G04*
G04 #@! TF.GenerationSoftware,Altium Limited,Altium Designer,21.1.1 (26)*
G04*
G04 Layer_Color=12632256*
%FSLAX25Y25*%
%MOIN*%
G70*
G04*
G04 #@! TF.SameCoordinates,66226772-4804-48D1-9218-E6406643AD96*
G04*
G04*
G04 #@! TF.FilePolarity,Positive*
G04*
G01*
G75*
%ADD14C,0.05906*%
%ADD15R,0.05906X0.05906*%
D14*
X163500Y405600D02*
D03*
Y475600D02*
D03*
Y465600D02*
D03*
Y455600D02*
D03*
Y445600D02*
D03*
Y435600D02*
D03*
Y425600D02*
D03*
Y415600D02*
D03*
Y395600D02*
D03*
X164000Y134000D02*
D03*
Y204000D02*
D03*
Y194000D02*
D03*
Y184000D02*
D03*
Y174000D02*
D03*
Y164000D02*
D03*
Y154000D02*
D03*
Y144000D02*
D03*
Y124000D02*
D03*
X120000Y237000D02*
D03*
Y247000D02*
D03*
Y257000D02*
D03*
Y267000D02*
D03*
Y277000D02*
D03*
Y287000D02*
D03*
Y297000D02*
D03*
Y227000D02*
D03*
X117000Y364000D02*
D03*
Y374000D02*
D03*
D15*
X163500Y385600D02*
D03*
X164000Y114000D02*
D03*
X120000Y217000D02*
D03*
X117000Y354000D02*
D03*
M02*
