G04*
G04 #@! TF.GenerationSoftware,Altium Limited,Altium Designer,21.1.1 (26)*
G04*
G04 Layer_Physical_Order=2*
G04 Layer_Color=16711680*
%FSLAX25Y25*%
%MOIN*%
G70*
G04*
G04 #@! TF.SameCoordinates,66226772-4804-48D1-9218-E6406643AD96*
G04*
G04*
G04 #@! TF.FilePolarity,Positive*
G04*
G01*
G75*
%ADD11C,0.01000*%
%ADD14C,0.05906*%
%ADD15R,0.05906X0.05906*%
D11*
X113547Y174453D02*
X164000Y124000D01*
X113547Y174453D02*
Y280547D01*
X120000Y287000D01*
X115547Y232547D02*
X120000Y237000D01*
X115547Y175353D02*
Y232547D01*
Y175353D02*
X161400Y129500D01*
X168000D01*
X170500Y132000D01*
Y167500D01*
X164000Y174000D02*
X170500Y167500D01*
X136300Y191700D02*
X164000Y164000D01*
X136300Y191700D02*
Y261353D01*
X126200Y271453D02*
X136300Y261353D01*
X118000Y271453D02*
X126200D01*
X115547Y269000D02*
X118000Y271453D01*
X115547Y251453D02*
Y269000D01*
Y251453D02*
X120000Y247000D01*
Y257000D02*
X124500Y252500D01*
Y171000D02*
Y252500D01*
Y171000D02*
X156500Y139000D01*
X166000D01*
X168500Y141500D01*
Y149500D01*
X164000Y154000D02*
X168500Y149500D01*
X164000Y204000D02*
Y327000D01*
X117000Y374000D02*
X164000Y327000D01*
X117000Y364000D02*
X140500Y340500D01*
Y217500D02*
Y340500D01*
Y217500D02*
X164000Y194000D01*
X120000Y267000D02*
X131500Y255500D01*
Y176500D02*
Y255500D01*
Y176500D02*
X164000Y144000D01*
D14*
X163500Y405600D02*
D03*
Y475600D02*
D03*
Y465600D02*
D03*
Y455600D02*
D03*
Y445600D02*
D03*
Y435600D02*
D03*
Y425600D02*
D03*
Y415600D02*
D03*
Y395600D02*
D03*
X164000Y134000D02*
D03*
Y204000D02*
D03*
Y194000D02*
D03*
Y184000D02*
D03*
Y174000D02*
D03*
Y164000D02*
D03*
Y154000D02*
D03*
Y144000D02*
D03*
Y124000D02*
D03*
X120000Y237000D02*
D03*
Y247000D02*
D03*
Y257000D02*
D03*
Y267000D02*
D03*
Y277000D02*
D03*
Y287000D02*
D03*
Y297000D02*
D03*
Y227000D02*
D03*
X117000Y364000D02*
D03*
Y374000D02*
D03*
D15*
X163500Y385600D02*
D03*
X164000Y114000D02*
D03*
X120000Y217000D02*
D03*
X117000Y354000D02*
D03*
M02*
