M48
;Layer_Color=9474304
;FILE_FORMAT=2:4
INCH,LZ
;TYPE=PLATED
T1F00S00C0.0354
%
T01
X0164Y0114
Y0124
Y0134
Y0144
Y0154
Y0164
Y0174
Y0184
Y0194
Y0204
X012Y0217
Y0227
Y0237
Y0247
Y0257
Y0267
Y0277
Y0287
Y0297
X0117Y0354
Y0364
Y0374
X01635Y03856
Y03956
Y04056
Y04156
Y04256
Y04356
Y04456
Y04556
Y04656
Y04756
M30
