G04*
G04 #@! TF.GenerationSoftware,Altium Limited,Altium Designer,21.1.1 (26)*
G04*
G04 Layer_Color=128*
%FSLAX25Y25*%
%MOIN*%
G70*
G04*
G04 #@! TF.SameCoordinates,66226772-4804-48D1-9218-E6406643AD96*
G04*
G04*
G04 #@! TF.FilePolarity,Positive*
G04*
G01*
G75*
%ADD16C,0.00200*%
D16*
X161728Y405600D02*
X165272D01*
X163500Y403828D02*
Y407372D01*
X161728Y475600D02*
X165272D01*
X163500Y473828D02*
Y477372D01*
X161728Y465600D02*
X165272D01*
X163500Y463828D02*
Y467372D01*
X161728Y455600D02*
X165272D01*
X163500Y453828D02*
Y457372D01*
X161728Y445600D02*
X165272D01*
X163500Y443828D02*
Y447372D01*
X161728Y435600D02*
X165272D01*
X163500Y433828D02*
Y437372D01*
X161728Y425600D02*
X165272D01*
X163500Y423828D02*
Y427372D01*
X161728Y415600D02*
X165272D01*
X163500Y413828D02*
Y417372D01*
X161728Y395600D02*
X165272D01*
X163500Y393828D02*
Y397372D01*
X161728Y385600D02*
X165272D01*
X163500Y383828D02*
Y387372D01*
X162228Y134000D02*
X165772D01*
X164000Y132228D02*
Y135772D01*
X162228Y204000D02*
X165772D01*
X164000Y202228D02*
Y205772D01*
X162228Y194000D02*
X165772D01*
X164000Y192228D02*
Y195772D01*
X162228Y184000D02*
X165772D01*
X164000Y182228D02*
Y185772D01*
X162228Y174000D02*
X165772D01*
X164000Y172228D02*
Y175772D01*
X162228Y164000D02*
X165772D01*
X164000Y162228D02*
Y165772D01*
X162228Y154000D02*
X165772D01*
X164000Y152228D02*
Y155772D01*
X162228Y144000D02*
X165772D01*
X164000Y142228D02*
Y145772D01*
X162228Y124000D02*
X165772D01*
X164000Y122228D02*
Y125772D01*
X162228Y114000D02*
X165772D01*
X164000Y112228D02*
Y115772D01*
X118228Y217000D02*
X121772D01*
X120000Y215228D02*
Y218772D01*
X118228Y237000D02*
X121772D01*
X120000Y235228D02*
Y238772D01*
X118228Y247000D02*
X121772D01*
X120000Y245228D02*
Y248772D01*
X118228Y257000D02*
X121772D01*
X120000Y255228D02*
Y258772D01*
X118228Y267000D02*
X121772D01*
X120000Y265228D02*
Y268772D01*
X118228Y277000D02*
X121772D01*
X120000Y275228D02*
Y278772D01*
X118228Y287000D02*
X121772D01*
X120000Y285228D02*
Y288772D01*
X118228Y297000D02*
X121772D01*
X120000Y295228D02*
Y298772D01*
X118228Y227000D02*
X121772D01*
X120000Y225228D02*
Y228772D01*
X115228Y354000D02*
X118772D01*
X117000Y352228D02*
Y355772D01*
X115228Y364000D02*
X118772D01*
X117000Y362228D02*
Y365772D01*
X115228Y374000D02*
X118772D01*
X117000Y372228D02*
Y375772D01*
M02*
