%FSTAX23Y23*%
%MOIN*%
%SFA1B1*%

%IPPOS*%
%ADD16C,0.002000*%
%LNpcb2-1*%
%LPD*%
G54D16*
X01627Y04048D02*
Y04064D01*
X01643*
Y04048*
X01627*
Y04748D02*
Y04764D01*
X01643*
Y04748*
X01627*
Y04648D02*
Y04664D01*
X01643*
Y04648*
X01627*
Y04548D02*
Y04564D01*
X01643*
Y04548*
X01627*
Y04448D02*
Y04464D01*
X01643*
Y04448*
X01627*
Y04348D02*
Y04364D01*
X01643*
Y04348*
X01627*
Y04248D02*
Y04264D01*
X01643*
Y04248*
X01627*
Y04148D02*
Y04164D01*
X01643*
Y04148*
X01627*
Y03948D02*
Y03964D01*
X01643*
Y03948*
X01627*
Y03848D02*
Y03864D01*
X01643*
Y03848*
X01627*
X01632Y01332D02*
Y01348D01*
X01648*
Y01332*
X01632*
Y02032D02*
Y02048D01*
X01648*
Y02032*
X01632*
Y01932D02*
Y01948D01*
X01648*
Y01932*
X01632*
Y01832D02*
Y01848D01*
X01648*
Y01832*
X01632*
Y01732D02*
Y01748D01*
X01648*
Y01732*
X01632*
Y01632D02*
Y01648D01*
X01648*
Y01632*
X01632*
Y01532D02*
Y01548D01*
X01648*
Y01532*
X01632*
Y01432D02*
Y01448D01*
X01648*
Y01432*
X01632*
Y01232D02*
Y01248D01*
X01648*
Y01232*
X01632*
Y01132D02*
Y01148D01*
X01648*
Y01132*
X01632*
X01192Y02162D02*
Y02178D01*
X01208*
Y02162*
X01192*
Y02362D02*
Y02378D01*
X01208*
Y02362*
X01192*
Y02462D02*
Y02478D01*
X01208*
Y02462*
X01192*
Y02562D02*
Y02578D01*
X01208*
Y02562*
X01192*
Y02662D02*
Y02678D01*
X01208*
Y02662*
X01192*
Y02762D02*
Y02778D01*
X01208*
Y02762*
X01192*
Y02862D02*
Y02878D01*
X01208*
Y02862*
X01192*
Y02962D02*
Y02978D01*
X01208*
Y02962*
X01192*
Y02262D02*
Y02278D01*
X01208*
Y02262*
X01192*
X01162Y03532D02*
Y03548D01*
X01178*
Y03532*
X01162*
Y03632D02*
Y03648D01*
X01178*
Y03632*
X01162*
Y03732D02*
Y03748D01*
X01178*
Y03732*
X01162*
M02*