%FSTAX23Y23*%
%MOIN*%
%SFA1B1*%

%IPPOS*%
%ADD11C,0.010000*%
%ADD14C,0.059060*%
%ADD15R,0.059060X0.059060*%
%LNpcb2-1*%
%LPD*%
G54D11*
X01135Y01744D02*
X0164Y0124D01*
X01135Y01744D02*
Y02805D01*
X012Y0287*
X01155Y02325D02*
X012Y0237D01*
X01155Y01753D02*
Y02325D01*
Y01753D02*
X01614Y01295D01*
X0168*
X01705Y0132*
Y01675*
X0164Y0174D02*
X01705Y01675D01*
X01363Y01917D02*
X0164Y0164D01*
X01363Y01917D02*
Y02613D01*
X01262Y02714D02*
X01363Y02613D01*
X0118Y02714D02*
X01262D01*
X01155Y0269D02*
X0118Y02714D01*
X01155Y02514D02*
Y0269D01*
Y02514D02*
X012Y0247D01*
Y0257D02*
X01245Y02525D01*
Y0171D02*
Y02525D01*
Y0171D02*
X01565Y0139D01*
X0166*
X01685Y01415*
Y01495*
X0164Y0154D02*
X01685Y01495D01*
X0164Y0204D02*
Y0327D01*
X0117Y0374D02*
X0164Y0327D01*
X0117Y0364D02*
X01405Y03405D01*
Y02175D02*
Y03405D01*
Y02175D02*
X0164Y0194D01*
X012Y0267D02*
X01315Y02555D01*
Y01765D02*
Y02555D01*
Y01765D02*
X0164Y0144D01*
G54D14*
X01635Y04056D03*
Y04756D03*
Y04656D03*
Y04556D03*
Y04456D03*
Y04356D03*
Y04256D03*
Y04156D03*
Y03956D03*
X0164Y0134D03*
Y0204D03*
Y0194D03*
Y0184D03*
Y0174D03*
Y0164D03*
Y0154D03*
Y0144D03*
Y0124D03*
X012Y0237D03*
Y0247D03*
Y0257D03*
Y0267D03*
Y0277D03*
Y0287D03*
Y0297D03*
Y0227D03*
X0117Y0364D03*
Y0374D03*
G54D15*
X01635Y03856D03*
X0164Y0114D03*
X012Y0217D03*
X0117Y0354D03*
M02*