%FSTAX23Y23*%
%MOIN*%
%SFA1B1*%

%IPPOS*%
%ADD11C,0.010000*%
%ADD14C,0.059060*%
%ADD15R,0.059060X0.059060*%
%LNpcb2-1*%
%LPD*%
G54D11*
X0098Y00985D02*
X01915D01*
X0098Y05035D02*
X01915D01*
Y00985D02*
Y05035D01*
X0098Y00985D02*
Y05035D01*
X0147Y03812D02*
Y04354D01*
X01314Y03277D02*
Y03489D01*
X01254Y03539D02*
X0151Y03795D01*
X01635Y03753D02*
Y03856D01*
X0161Y01082D02*
X0168D01*
X01408Y03778D02*
Y04429D01*
X01214Y03556D02*
X0147Y03812D01*
X01595Y01295D02*
X0164Y0134D01*
X01294Y03497D02*
X0155Y03753D01*
X0149Y03803D02*
Y03989D01*
X01595Y01097D02*
X0161Y01082D01*
X01314Y03489D02*
X0157Y03745D01*
X0159Y03736D02*
Y03909D01*
X01294Y03285D02*
Y03497D01*
X01825Y01227D02*
Y03866D01*
X0117Y0354D02*
X01408Y03778D01*
X0151Y03795D02*
Y03979D01*
X01422Y03192D02*
Y0354D01*
X0153Y03761D02*
Y03971D01*
X01422Y0354D02*
X01635Y03753D01*
Y04056D02*
X01825Y03866D01*
X0155Y03753D02*
Y03962D01*
X01595Y01097D02*
Y01295D01*
X01234Y03547D02*
X0149Y03803D01*
X01274Y03293D02*
Y03505D01*
X01372Y03307D02*
Y03519D01*
X01274Y03505D02*
X0153Y03761D01*
X0168Y01082D02*
X01825Y01227D01*
X01372Y03519D02*
X0159Y03736D01*
X012Y0217D02*
X01244Y02214D01*
Y02288*
X01212Y0232D02*
X01244Y02288D01*
X01187Y0232D02*
X01212D01*
X01035Y02471D02*
X01187Y0232D01*
X01035Y02471D02*
Y03139D01*
X01214Y03318*
Y03556*
X0147Y04354D02*
X01635Y04518D01*
Y04556*
X012Y0297D02*
X01265Y02905D01*
Y02143D02*
Y02905D01*
Y02143D02*
X01518Y0189D01*
X0166*
X01685Y01865*
Y01185D02*
Y01865D01*
X0164Y0114D02*
X01685Y01185D01*
X01408Y04429D02*
X01635Y04656D01*
X012Y0287D02*
Y02872D01*
X01155Y02916D02*
X012Y02872D01*
X01155Y02916D02*
Y03089D01*
X01372Y03307*
X0159Y03909D02*
X01635Y03953D01*
Y03956*
X012Y0237D02*
Y02372D01*
X01055Y02516D02*
X012Y02372D01*
X01055Y02516D02*
Y03131D01*
X01234Y0331*
Y03547*
X0149Y03989D02*
X0153Y04029D01*
Y04351*
X01635Y04456*
X012Y0267D02*
Y02672D01*
X01115Y02756D02*
X012Y02672D01*
X01115Y02756D02*
Y03106D01*
X01294Y03285*
X0155Y03962D02*
X0159Y04002D01*
Y04074*
X01635Y04118*
Y04156*
X01095Y02674D02*
X012Y0257D01*
X01095Y02674D02*
Y03114D01*
X01274Y03293*
X0153Y03971D02*
X0157Y04011D01*
Y04154*
X01635Y04218*
Y04256*
X012Y0297D02*
X01422Y03192D01*
X012Y0277D02*
Y02772D01*
X01135Y02836D02*
X012Y02772D01*
X01135Y02836D02*
Y03098D01*
X01314Y03277*
X0157Y03745D02*
Y03917D01*
X0159Y03937*
Y03974*
X01627Y04011*
Y04048*
X01635Y04056*
X012Y0247D02*
Y02472D01*
X01075Y02596D02*
X012Y02472D01*
X01075Y02596D02*
Y03122D01*
X01254Y03302*
Y03539*
X0151Y03979D02*
X0155Y04019D01*
Y04197*
X0159Y04237*
Y04311*
X01635Y04356*
X01449Y0184D02*
X0164D01*
X01155Y02134D02*
X01449Y0184D01*
X01155Y02134D02*
Y02225D01*
X012Y0227*
X0117Y0374D02*
Y04291D01*
X01635Y04756*
X01508Y02669D02*
Y02649D01*
Y02659*
X01558*
X01568Y02649*
Y0264*
X01558Y0263*
X01528Y02699D02*
Y02719D01*
X01538Y02729*
X01568*
Y02699*
X01558Y02689*
X01548Y02699*
Y02729*
X01568Y02749D02*
X01528D01*
Y02779*
X01538Y02789*
X01568*
X01508Y02869D02*
X01568D01*
X01538*
Y02909*
X01508*
X01568*
X01528Y02939D02*
Y02959D01*
X01538Y02969*
X01568*
Y02939*
X01558Y02929*
X01548Y02939*
Y02969*
X01568Y02989D02*
X01528D01*
Y03019*
X01538Y03029*
X01568*
Y03079D02*
Y03059D01*
X01558Y03049*
X01538*
X01528Y03059*
Y03079*
X01538Y03089*
X01548*
Y03049*
X01588Y03129D02*
Y03139D01*
X01578Y03149*
X01528*
Y03119*
X01538Y03109*
X01558*
X01568Y03119*
Y03149*
X01528Y03169D02*
X01568D01*
X01548*
X01538Y03179*
X01528Y03189*
Y03199*
Y03239D02*
Y03259D01*
X01538Y03269*
X01568*
Y03239*
X01558Y03229*
X01548Y03239*
Y03269*
X01528Y03299D02*
Y03319D01*
X01538Y03329*
X01568*
Y03299*
X01558Y03289*
X01548Y03299*
Y03329*
X01568Y03359D02*
X01518D01*
X01538*
Y03349*
Y03369*
Y03359*
X01518*
X01508Y03369*
X0173Y02669D02*
X0172Y02659D01*
Y0264*
X0173Y0263*
X0174*
X0175Y0264*
Y02659*
X0176Y02669*
X0177*
X0178Y02659*
Y0264*
X0177Y0263*
X018Y02689D02*
X0174D01*
Y02719*
X0175Y02729*
X0177*
X0178Y02719*
Y02689*
Y02749D02*
Y02769D01*
Y02759*
X0172*
Y02749*
X0178Y02799D02*
Y02819D01*
Y02809*
X0174*
Y02799*
X0173Y02859D02*
X0174D01*
Y02849*
Y02869*
Y02859*
X0177*
X0178Y02869*
X0173Y02909D02*
X0174D01*
Y02899*
Y02919*
Y02909*
X0177*
X0178Y02919*
Y02979D02*
Y02959D01*
X0177Y02949*
X0175*
X0174Y02959*
Y02979*
X0175Y02989*
X0176*
Y02949*
X0174Y03009D02*
X0178D01*
X0176*
X0175Y03019*
X0174Y03029*
Y03039*
X0175Y03069D02*
Y03109D01*
X0172Y03129D02*
X0178D01*
Y03169*
X0172Y03229D02*
Y03189D01*
X0178*
Y03229*
X0175Y03189D02*
Y03209D01*
X0172Y03249D02*
X0178D01*
Y03279*
X0177Y03289*
X0173*
X0172Y03279*
Y03249*
Y03309D02*
Y03329D01*
Y03319*
X0178*
Y03309*
Y03329*
X0172Y03359D02*
Y03399D01*
Y03379*
X0178*
Y03419D02*
X0172D01*
Y03449*
X0173Y03459*
X0175*
X0176Y03449*
Y03419*
Y03439D02*
X0178Y03459D01*
X0172Y03509D02*
Y03489D01*
X0173Y03479*
X0177*
X0178Y03489*
Y03509*
X0177Y03519*
X0173*
X0172Y03509*
X0178Y03539D02*
X0172D01*
X0178Y03579*
X0172*
G54D14*
X01635Y04056D03*
Y04756D03*
Y04656D03*
Y04556D03*
Y04456D03*
Y04356D03*
Y04256D03*
Y04156D03*
Y03956D03*
X0164Y0134D03*
Y0204D03*
Y0194D03*
Y0184D03*
Y0174D03*
Y0164D03*
Y0154D03*
Y0144D03*
Y0124D03*
X012Y0237D03*
Y0247D03*
Y0257D03*
Y0267D03*
Y0277D03*
Y0287D03*
Y0297D03*
Y0227D03*
X0117Y0364D03*
Y0374D03*
G54D15*
X01635Y03856D03*
X0164Y0114D03*
X012Y0217D03*
X0117Y0354D03*
M02*