%FSTAX23Y23*%
%MOIN*%
%SFA1B1*%

%IPPOS*%
%ADD16C,0.002000*%
%LNpcb2-1*%
%LPD*%
G54D16*
X01617Y04056D02*
X01652D01*
X01635Y04038D02*
Y04073D01*
X01617Y04756D02*
X01652D01*
X01635Y04738D02*
Y04773D01*
X01617Y04656D02*
X01652D01*
X01635Y04638D02*
Y04673D01*
X01617Y04556D02*
X01652D01*
X01635Y04538D02*
Y04573D01*
X01617Y04456D02*
X01652D01*
X01635Y04438D02*
Y04473D01*
X01617Y04356D02*
X01652D01*
X01635Y04338D02*
Y04373D01*
X01617Y04256D02*
X01652D01*
X01635Y04238D02*
Y04273D01*
X01617Y04156D02*
X01652D01*
X01635Y04138D02*
Y04173D01*
X01617Y03956D02*
X01652D01*
X01635Y03938D02*
Y03973D01*
X01617Y03856D02*
X01652D01*
X01635Y03838D02*
Y03873D01*
X01622Y0134D02*
X01657D01*
X0164Y01322D02*
Y01357D01*
X01622Y0204D02*
X01657D01*
X0164Y02022D02*
Y02057D01*
X01622Y0194D02*
X01657D01*
X0164Y01922D02*
Y01957D01*
X01622Y0184D02*
X01657D01*
X0164Y01822D02*
Y01857D01*
X01622Y0174D02*
X01657D01*
X0164Y01722D02*
Y01757D01*
X01622Y0164D02*
X01657D01*
X0164Y01622D02*
Y01657D01*
X01622Y0154D02*
X01657D01*
X0164Y01522D02*
Y01557D01*
X01622Y0144D02*
X01657D01*
X0164Y01422D02*
Y01457D01*
X01622Y0124D02*
X01657D01*
X0164Y01222D02*
Y01257D01*
X01622Y0114D02*
X01657D01*
X0164Y01122D02*
Y01157D01*
X01182Y0217D02*
X01217D01*
X012Y02152D02*
Y02187D01*
X01182Y0237D02*
X01217D01*
X012Y02352D02*
Y02387D01*
X01182Y0247D02*
X01217D01*
X012Y02452D02*
Y02487D01*
X01182Y0257D02*
X01217D01*
X012Y02552D02*
Y02587D01*
X01182Y0267D02*
X01217D01*
X012Y02652D02*
Y02687D01*
X01182Y0277D02*
X01217D01*
X012Y02752D02*
Y02787D01*
X01182Y0287D02*
X01217D01*
X012Y02852D02*
Y02887D01*
X01182Y0297D02*
X01217D01*
X012Y02952D02*
Y02987D01*
X01182Y0227D02*
X01217D01*
X012Y02252D02*
Y02287D01*
X01152Y0354D02*
X01187D01*
X0117Y03522D02*
Y03557D01*
X01152Y0364D02*
X01187D01*
X0117Y03622D02*
Y03657D01*
X01152Y0374D02*
X01187D01*
X0117Y03722D02*
Y03757D01*
M02*