G04*
G04 #@! TF.GenerationSoftware,Altium Limited,Altium Designer,21.1.1 (26)*
G04*
G04 Layer_Color=16711935*
%FSLAX25Y25*%
%MOIN*%
G70*
G04*
G04 #@! TF.SameCoordinates,B1EDFFF0-04F4-4B73-9F12-1C7DDB0DF417*
G04*
G04*
G04 #@! TF.FilePolarity,Positive*
G04*
G01*
G75*
%ADD46C,0.00394*%
D46*
X402114Y135243D02*
G03*
X386887Y135242I-7614J5257D01*
G01*
X356114Y110743D02*
G03*
X340887Y110742I-7614J5257D01*
G01*
X503114Y241743D02*
G03*
X487887Y241742I-7614J5257D01*
G01*
X477614Y241244D02*
G03*
X462387Y241242I-7614J5257D01*
G01*
X357614Y166744D02*
G03*
X342387Y166742I-7614J5257D01*
G01*
X401114Y165744D02*
G03*
X385887Y165742I-7614J5257D01*
G01*
X404114Y108244D02*
G03*
X388887Y108242I-7614J5257D01*
G01*
X313114Y119244D02*
G03*
X297887Y119242I-7614J5257D01*
G01*
X284114Y119244D02*
G03*
X268887Y119242I-7614J5257D01*
G01*
X254614Y119244D02*
G03*
X239387Y119242I-7614J5257D01*
G01*
X356614Y138743D02*
G03*
X341387Y138742I-7614J5257D01*
G01*
X189614Y204243D02*
G03*
X174387Y204242I-7614J5257D01*
G01*
X191614Y179244D02*
G03*
X176387Y179242I-7614J5257D01*
G01*
X135614Y179244D02*
G03*
X120387Y179242I-7614J5257D01*
G01*
X386887Y135244D02*
X402113D01*
X340887Y110744D02*
X356113D01*
X485252Y212748D02*
X491748D01*
X485252Y224165D02*
X491748D01*
X485252Y212748D02*
Y224165D01*
X491748Y212748D02*
Y224165D01*
X458252Y211748D02*
X464748D01*
X458252Y223165D02*
X464748D01*
X458252Y211748D02*
Y223165D01*
X464748Y211748D02*
Y223165D01*
X487887Y241744D02*
X503113D01*
X462387Y241244D02*
X477613D01*
X478252Y157748D02*
X484748D01*
X478252Y169165D02*
X484748D01*
X478252Y157748D02*
Y169165D01*
X484748Y157748D02*
Y169165D01*
X467252Y174748D02*
X473748D01*
X467252Y186165D02*
X473748D01*
X467252Y174748D02*
Y186165D01*
X473748Y174748D02*
Y186165D01*
X447122Y109457D02*
X460508D01*
X447122Y116543D02*
X460508D01*
Y109457D02*
Y116543D01*
X447122Y109457D02*
Y116543D01*
X465752Y128748D02*
X472248D01*
X465752Y140165D02*
X472248D01*
X465752Y128748D02*
Y140165D01*
X472248Y128748D02*
Y140165D01*
X445752Y128291D02*
X452248D01*
X445752Y139709D02*
X452248D01*
X445752Y128291D02*
Y139709D01*
X452248Y128291D02*
Y139709D01*
X447622Y153457D02*
X461008D01*
X447622Y160543D02*
X461008D01*
Y153457D02*
Y160543D01*
X447622Y153457D02*
Y160543D01*
X447122Y174457D02*
X460508D01*
X447122Y181543D02*
X460508D01*
Y174457D02*
Y181543D01*
X447122Y174457D02*
Y181543D01*
X426122Y111957D02*
X439508D01*
X426122Y119043D02*
X439508D01*
Y111957D02*
Y119043D01*
X426122Y111957D02*
Y119043D01*
X425622Y132457D02*
X439008D01*
X425622Y139543D02*
X439008D01*
Y132457D02*
Y139543D01*
X425622Y132457D02*
Y139543D01*
Y153957D02*
X439008D01*
X425622Y161043D02*
X439008D01*
Y153957D02*
Y161043D01*
X425622Y153957D02*
Y161043D01*
X424307Y174457D02*
X437693D01*
X424307Y181543D02*
X437693D01*
Y174457D02*
Y181543D01*
X424307Y174457D02*
Y181543D01*
X342387Y166744D02*
X357613D01*
X385887Y165744D02*
X401113D01*
X388887Y108244D02*
X404113D01*
X297887Y119244D02*
X313113D01*
X268887D02*
X284113D01*
X239387D02*
X254613D01*
X341387Y138744D02*
X356613D01*
X416252Y215748D02*
X422748D01*
X416252Y227165D02*
X422748D01*
X416252Y215748D02*
Y227165D01*
X422748Y215748D02*
Y227165D01*
X416252Y240748D02*
X422748D01*
X416252Y252165D02*
X422748D01*
X416252Y240748D02*
Y252165D01*
X422748Y240748D02*
Y252165D01*
X393835Y213752D02*
Y220248D01*
X405252Y213752D02*
Y220248D01*
X393835D02*
X405252D01*
X393835Y213752D02*
X405252D01*
X395752Y240248D02*
X402248D01*
X395752Y251665D02*
X402248D01*
X395752Y240248D02*
Y251665D01*
X402248Y240248D02*
Y251665D01*
X370752Y188248D02*
X377248D01*
X370752Y199665D02*
X377248D01*
X370752Y188248D02*
Y199665D01*
X377248Y188248D02*
Y199665D01*
X345752Y201248D02*
X352248D01*
X345752Y212665D02*
X352248D01*
X345752Y201248D02*
Y212665D01*
X352248Y201248D02*
Y212665D01*
X324252Y202748D02*
X330748D01*
X324252Y214165D02*
X330748D01*
X324252Y202748D02*
Y214165D01*
X330748Y202748D02*
Y214165D01*
X370252Y213748D02*
X376748D01*
X370252Y225165D02*
X376748D01*
X370252Y213748D02*
Y225165D01*
X376748Y213748D02*
Y225165D01*
X369752Y240248D02*
X376248D01*
X369752Y251665D02*
X376248D01*
X369752Y240248D02*
Y251665D01*
X376248Y240248D02*
Y251665D01*
X346122Y226457D02*
X359508D01*
X346122Y233543D02*
X359508D01*
Y226457D02*
Y233543D01*
X346122Y226457D02*
Y233543D01*
Y245957D02*
X359508D01*
X346122Y253043D02*
X359508D01*
Y245957D02*
Y253043D01*
X346122Y245957D02*
Y253043D01*
X323622Y226957D02*
X337008D01*
X323622Y234043D02*
X337008D01*
Y226957D02*
Y234043D01*
X323622Y226957D02*
Y234043D01*
X324622Y245957D02*
X338008D01*
X324622Y253043D02*
X338008D01*
Y245957D02*
Y253043D01*
X324622Y245957D02*
Y253043D01*
X309543Y234992D02*
Y248378D01*
X302457Y234992D02*
Y248378D01*
X309543D01*
X302457Y234992D02*
X309543D01*
X284122Y246457D02*
X297508D01*
X284122Y253543D02*
X297508D01*
Y246457D02*
Y253543D01*
X284122Y246457D02*
Y253543D01*
X263492Y228457D02*
X276878D01*
X263492Y235543D02*
X276878D01*
Y228457D02*
Y235543D01*
X263492Y228457D02*
Y235543D01*
X263307Y246925D02*
X276693D01*
X263307Y254012D02*
X276693D01*
Y246925D02*
Y254012D01*
X263307Y246925D02*
Y254012D01*
X146622Y273957D02*
X160008D01*
X146622Y281043D02*
X160008D01*
Y273957D02*
Y281043D01*
X146622Y273957D02*
Y281043D01*
X238500Y148504D02*
X298500D01*
X238500Y221496D02*
X298500D01*
X238500Y148504D02*
Y221496D01*
X298500Y148504D02*
Y221496D01*
X219043Y224992D02*
Y238378D01*
X211957Y224992D02*
Y238378D01*
X219043D01*
X211957Y224992D02*
X219043D01*
X209622Y202457D02*
X223008D01*
X209622Y209543D02*
X223008D01*
Y202457D02*
Y209543D01*
X209622Y202457D02*
Y209543D01*
X209122Y181457D02*
X222508D01*
X209122Y188543D02*
X222508D01*
Y181457D02*
Y188543D01*
X209122Y181457D02*
Y188543D01*
X209622Y162957D02*
X223008D01*
X209622Y170043D02*
X223008D01*
Y162957D02*
Y170043D01*
X209622Y162957D02*
Y170043D01*
X147122Y252957D02*
X160508D01*
X147122Y260043D02*
X160508D01*
Y252957D02*
Y260043D01*
X147122Y252957D02*
Y260043D01*
X174387Y204244D02*
X189613D01*
X146622Y229957D02*
X160008D01*
X146622Y237043D02*
X160008D01*
Y229957D02*
Y237043D01*
X146622Y229957D02*
Y237043D01*
X147122Y208957D02*
X160508D01*
X147122Y216043D02*
X160508D01*
Y208957D02*
Y216043D01*
X147122Y208957D02*
Y216043D01*
X147622Y189957D02*
X161008D01*
X147622Y197043D02*
X161008D01*
Y189957D02*
Y197043D01*
X147622Y189957D02*
Y197043D01*
X127894Y213528D02*
Y254472D01*
X114902Y213528D02*
X133012D01*
X114902Y254472D02*
X133012D01*
Y213528D02*
Y254472D01*
X114902Y213528D02*
Y254472D01*
X176622Y163457D02*
X190008D01*
X176622Y170543D02*
X190008D01*
Y163457D02*
Y170543D01*
X176622Y163457D02*
Y170543D01*
X176387Y179244D02*
X191613D01*
X120387D02*
X135613D01*
X150543Y130307D02*
Y143693D01*
X143457Y130307D02*
Y143693D01*
X150543D01*
X143457Y130307D02*
X150543D01*
X162622Y126957D02*
X176008D01*
X162622Y134043D02*
X176008D01*
Y126957D02*
Y134043D01*
X162622Y126957D02*
Y134043D01*
X146122Y159457D02*
X159508D01*
X146122Y166543D02*
X159508D01*
Y159457D02*
Y166543D01*
X146122Y159457D02*
Y166543D01*
X147622Y174957D02*
X161008D01*
X147622Y182043D02*
X161008D01*
Y174957D02*
Y182043D01*
X147622Y174957D02*
Y182043D01*
M02*
