G04*
G04 #@! TF.GenerationSoftware,Altium Limited,Altium Designer,21.1.1 (26)*
G04*
G04 Layer_Color=32768*
%FSLAX25Y25*%
%MOIN*%
G70*
G04*
G04 #@! TF.SameCoordinates,B1EDFFF0-04F4-4B73-9F12-1C7DDB0DF417*
G04*
G04*
G04 #@! TF.FilePolarity,Positive*
G04*
G01*
G75*
%ADD46C,0.00394*%
%ADD47C,0.00197*%
D46*
X394500Y138532D02*
Y142469D01*
X392532Y140500D02*
X396469D01*
X346532Y116000D02*
X350469D01*
X348500Y114032D02*
Y117969D01*
X485350Y211764D02*
X491650D01*
X485350Y225150D02*
X491650D01*
X485350Y211764D02*
Y225150D01*
X491650Y211764D02*
Y225150D01*
X488500Y216488D02*
Y220425D01*
X486531Y218457D02*
X490469D01*
X458350Y210764D02*
X464650D01*
X458350Y224150D02*
X464650D01*
X458350Y210764D02*
Y224150D01*
X464650Y210764D02*
Y224150D01*
X461500Y215488D02*
Y219425D01*
X459531Y217457D02*
X463469D01*
X493532Y247000D02*
X497469D01*
X495500Y245032D02*
Y248969D01*
X468032Y246500D02*
X471969D01*
X470000Y244532D02*
Y248469D01*
X478350Y156764D02*
X484650D01*
X478350Y170150D02*
X484650D01*
X478350Y156764D02*
Y170150D01*
X484650Y156764D02*
Y170150D01*
X481500Y161488D02*
Y165425D01*
X479531Y163457D02*
X483469D01*
X467350Y173764D02*
X473650D01*
X467350Y187150D02*
X473650D01*
X467350Y173764D02*
Y187150D01*
X473650Y173764D02*
Y187150D01*
X470500Y178488D02*
Y182425D01*
X468531Y180457D02*
X472469D01*
X453815Y111032D02*
Y114969D01*
X451846Y113000D02*
X455783D01*
X445941Y109260D02*
X461689D01*
X445941Y116740D02*
X461689D01*
Y109260D02*
Y116740D01*
X445941Y109260D02*
Y116740D01*
X465850Y127764D02*
X472150D01*
X465850Y141150D02*
X472150D01*
X465850Y127764D02*
Y141150D01*
X472150Y127764D02*
Y141150D01*
X469000Y132488D02*
Y136425D01*
X467031Y134457D02*
X470969D01*
X445850Y127307D02*
X452150D01*
X445850Y140693D02*
X452150D01*
X445850Y127307D02*
Y140693D01*
X452150Y127307D02*
Y140693D01*
X449000Y132032D02*
Y135969D01*
X447031Y134000D02*
X450968D01*
X454315Y155032D02*
Y158969D01*
X452346Y157000D02*
X456283D01*
X446441Y153260D02*
X462189D01*
X446441Y160740D02*
X462189D01*
Y153260D02*
Y160740D01*
X446441Y153260D02*
Y160740D01*
X453815Y176032D02*
Y179969D01*
X451846Y178000D02*
X455783D01*
X445941Y174260D02*
X461689D01*
X445941Y181740D02*
X461689D01*
Y174260D02*
Y181740D01*
X445941Y174260D02*
Y181740D01*
X432815Y113532D02*
Y117469D01*
X430846Y115500D02*
X434783D01*
X424941Y111760D02*
X440689D01*
X424941Y119240D02*
X440689D01*
Y111760D02*
Y119240D01*
X424941Y111760D02*
Y119240D01*
X432315Y134032D02*
Y137969D01*
X430346Y136000D02*
X434283D01*
X424441Y132260D02*
X440189D01*
X424441Y139740D02*
X440189D01*
Y132260D02*
Y139740D01*
X424441Y132260D02*
Y139740D01*
X432315Y155532D02*
Y159469D01*
X430346Y157500D02*
X434283D01*
X424441Y153760D02*
X440189D01*
X424441Y161240D02*
X440189D01*
Y153760D02*
Y161240D01*
X424441Y153760D02*
Y161240D01*
X431000Y176032D02*
Y179969D01*
X429032Y178000D02*
X432969D01*
X423126Y174260D02*
X438874D01*
X423126Y181740D02*
X438874D01*
Y174260D02*
Y181740D01*
X423126Y174260D02*
Y181740D01*
X348032Y172000D02*
X351969D01*
X350000Y170032D02*
Y173969D01*
X391532Y171000D02*
X395469D01*
X393500Y169032D02*
Y172969D01*
X394532Y113500D02*
X398469D01*
X396500Y111532D02*
Y115469D01*
X303532Y124500D02*
X307469D01*
X305500Y122532D02*
Y126469D01*
X274532Y124500D02*
X278469D01*
X276500Y122532D02*
Y126469D01*
X245032Y124500D02*
X248969D01*
X247000Y122532D02*
Y126469D01*
X347032Y144000D02*
X350969D01*
X349000Y142032D02*
Y145969D01*
X416350Y214764D02*
X422650D01*
X416350Y228150D02*
X422650D01*
X416350Y214764D02*
Y228150D01*
X422650Y214764D02*
Y228150D01*
X419500Y219488D02*
Y223425D01*
X417531Y221457D02*
X421469D01*
X416350Y239764D02*
X422650D01*
X416350Y253150D02*
X422650D01*
X416350Y239764D02*
Y253150D01*
X422650Y239764D02*
Y253150D01*
X419500Y244488D02*
Y248425D01*
X417531Y246457D02*
X421469D01*
X392850Y213850D02*
Y220150D01*
X406236Y213850D02*
Y220150D01*
X392850D02*
X406236D01*
X392850Y213850D02*
X406236D01*
X397575Y217000D02*
X401512D01*
X399543Y215032D02*
Y218969D01*
X395850Y239264D02*
X402150D01*
X395850Y252650D02*
X402150D01*
X395850Y239264D02*
Y252650D01*
X402150Y239264D02*
Y252650D01*
X399000Y243988D02*
Y247925D01*
X397031Y245957D02*
X400969D01*
X370850Y187264D02*
X377150D01*
X370850Y200650D02*
X377150D01*
X370850Y187264D02*
Y200650D01*
X377150Y187264D02*
Y200650D01*
X374000Y191988D02*
Y195925D01*
X372031Y193957D02*
X375969D01*
X345850Y200264D02*
X352150D01*
X345850Y213650D02*
X352150D01*
X345850Y200264D02*
Y213650D01*
X352150Y200264D02*
Y213650D01*
X349000Y204988D02*
Y208925D01*
X347031Y206957D02*
X350969D01*
X324350Y201764D02*
X330650D01*
X324350Y215150D02*
X330650D01*
X324350Y201764D02*
Y215150D01*
X330650Y201764D02*
Y215150D01*
X327500Y206488D02*
Y210425D01*
X325531Y208457D02*
X329469D01*
X370350Y212764D02*
X376650D01*
X370350Y226150D02*
X376650D01*
X370350Y212764D02*
Y226150D01*
X376650Y212764D02*
Y226150D01*
X373500Y217488D02*
Y221425D01*
X371531Y219457D02*
X375469D01*
X369850Y239264D02*
X376150D01*
X369850Y252650D02*
X376150D01*
X369850Y239264D02*
Y252650D01*
X376150Y239264D02*
Y252650D01*
X373000Y243988D02*
Y247925D01*
X371031Y245957D02*
X374969D01*
X352815Y228032D02*
Y231969D01*
X350846Y230000D02*
X354783D01*
X344941Y226260D02*
X360689D01*
X344941Y233740D02*
X360689D01*
Y226260D02*
Y233740D01*
X344941Y226260D02*
Y233740D01*
X352815Y247532D02*
Y251469D01*
X350846Y249500D02*
X354783D01*
X344941Y245760D02*
X360689D01*
X344941Y253240D02*
X360689D01*
Y245760D02*
Y253240D01*
X344941Y245760D02*
Y253240D01*
X330315Y228532D02*
Y232469D01*
X328346Y230500D02*
X332283D01*
X322441Y226760D02*
X338189D01*
X322441Y234240D02*
X338189D01*
Y226760D02*
Y234240D01*
X322441Y226760D02*
Y234240D01*
X331315Y247532D02*
Y251469D01*
X329346Y249500D02*
X333283D01*
X323441Y245760D02*
X339189D01*
X323441Y253240D02*
X339189D01*
Y245760D02*
Y253240D01*
X323441Y245760D02*
Y253240D01*
X304031Y241685D02*
X307969D01*
X306000Y239717D02*
Y243654D01*
X309740Y233811D02*
Y249559D01*
X302260Y233811D02*
Y249559D01*
X309740D01*
X302260Y233811D02*
X309740D01*
X290815Y248032D02*
Y251969D01*
X288846Y250000D02*
X292783D01*
X282941Y246260D02*
X298689D01*
X282941Y253740D02*
X298689D01*
Y246260D02*
Y253740D01*
X282941Y246260D02*
Y253740D01*
X270185Y230032D02*
Y233969D01*
X268217Y232000D02*
X272154D01*
X262311Y228260D02*
X278059D01*
X262311Y235740D02*
X278059D01*
Y228260D02*
Y235740D01*
X262311Y228260D02*
Y235740D01*
X270000Y248500D02*
Y252437D01*
X268032Y250469D02*
X271969D01*
X262126Y246728D02*
X277874D01*
X262126Y254209D02*
X277874D01*
Y246728D02*
Y254209D01*
X262126Y246728D02*
Y254209D01*
X153315Y275532D02*
Y279469D01*
X151347Y277500D02*
X155284D01*
X145441Y273760D02*
X161189D01*
X145441Y281240D02*
X161189D01*
Y273760D02*
Y281240D01*
X145441Y273760D02*
Y281240D01*
X237398Y145236D02*
X299602D01*
X237398Y224764D02*
X299602D01*
X237398Y145236D02*
Y224764D01*
X299602Y145236D02*
Y224764D01*
X268500Y183031D02*
Y186969D01*
X266531Y185000D02*
X270469D01*
X213531Y231685D02*
X217469D01*
X215500Y229717D02*
Y233654D01*
X219240Y223811D02*
Y239559D01*
X211760Y223811D02*
Y239559D01*
X219240D01*
X211760Y223811D02*
X219240D01*
X216315Y204032D02*
Y207969D01*
X214346Y206000D02*
X218283D01*
X208441Y202260D02*
X224189D01*
X208441Y209740D02*
X224189D01*
Y202260D02*
Y209740D01*
X208441Y202260D02*
Y209740D01*
X215815Y183032D02*
Y186969D01*
X213846Y185000D02*
X217783D01*
X207941Y181260D02*
X223689D01*
X207941Y188740D02*
X223689D01*
Y181260D02*
Y188740D01*
X207941Y181260D02*
Y188740D01*
X216315Y164532D02*
Y168469D01*
X214346Y166500D02*
X218283D01*
X208441Y162760D02*
X224189D01*
X208441Y170240D02*
X224189D01*
Y162760D02*
Y170240D01*
X208441Y162760D02*
Y170240D01*
X153815Y254532D02*
Y258469D01*
X151846Y256500D02*
X155783D01*
X145941Y252760D02*
X161689D01*
X145941Y260240D02*
X161689D01*
Y252760D02*
Y260240D01*
X145941Y252760D02*
Y260240D01*
X180032Y209500D02*
X183969D01*
X182000Y207532D02*
Y211469D01*
X153315Y231532D02*
Y235469D01*
X151346Y233500D02*
X155283D01*
X145441Y229760D02*
X161189D01*
X145441Y237240D02*
X161189D01*
Y229760D02*
Y237240D01*
X145441Y229760D02*
Y237240D01*
X153815Y210532D02*
Y214469D01*
X151846Y212500D02*
X155783D01*
X145941Y208760D02*
X161689D01*
X145941Y216240D02*
X161689D01*
Y208760D02*
Y216240D01*
X145941Y208760D02*
Y216240D01*
X154315Y191532D02*
Y195469D01*
X152346Y193500D02*
X156283D01*
X146441Y189760D02*
X162189D01*
X146441Y197240D02*
X162189D01*
Y189760D02*
Y197240D01*
X146441Y189760D02*
Y197240D01*
X122500Y232032D02*
Y235969D01*
X120532Y234000D02*
X124469D01*
X183315Y165032D02*
Y168969D01*
X181346Y167000D02*
X185283D01*
X175441Y163260D02*
X191189D01*
X175441Y170740D02*
X191189D01*
Y163260D02*
Y170740D01*
X175441Y163260D02*
Y170740D01*
X182032Y184500D02*
X185969D01*
X184000Y182532D02*
Y186469D01*
X126032Y184500D02*
X129969D01*
X128000Y182532D02*
Y186469D01*
X145031Y137000D02*
X148969D01*
X147000Y135032D02*
Y138969D01*
X150740Y129126D02*
Y144874D01*
X143260Y129126D02*
Y144874D01*
X150740D01*
X143260Y129126D02*
X150740D01*
X169315Y128532D02*
Y132469D01*
X167346Y130500D02*
X171283D01*
X161441Y126760D02*
X177189D01*
X161441Y134240D02*
X177189D01*
Y126760D02*
Y134240D01*
X161441Y126760D02*
Y134240D01*
X152815Y161032D02*
Y164969D01*
X150846Y163000D02*
X154783D01*
X144941Y159260D02*
X160689D01*
X144941Y166740D02*
X160689D01*
Y159260D02*
Y166740D01*
X144941Y159260D02*
Y166740D01*
X154315Y176532D02*
Y180469D01*
X152346Y178500D02*
X156283D01*
X146441Y174760D02*
X162189D01*
X146441Y182240D02*
X162189D01*
Y174760D02*
Y182240D01*
X146441Y174760D02*
Y182240D01*
D47*
X384854Y134850D02*
X404146D01*
Y150146D01*
X384854Y134850D02*
Y150146D01*
X404146D01*
X338854Y125646D02*
X358146D01*
X338854Y110350D02*
Y125646D01*
X358146Y110350D02*
Y125646D01*
X338854Y110350D02*
X358146D01*
X485854Y256646D02*
X505146D01*
X485854Y241350D02*
Y256646D01*
X505146Y241350D02*
Y256646D01*
X485854Y241350D02*
X505146D01*
X460354Y256146D02*
X479646D01*
X460354Y240850D02*
Y256146D01*
X479646Y240850D02*
Y256146D01*
X460354Y240850D02*
X479646D01*
X340354Y181646D02*
X359646D01*
X340354Y166350D02*
Y181646D01*
X359646Y166350D02*
Y181646D01*
X340354Y166350D02*
X359646D01*
X383854Y180646D02*
X403146D01*
X383854Y165350D02*
Y180646D01*
X403146Y165350D02*
Y180646D01*
X383854Y165350D02*
X403146D01*
X386854Y123146D02*
X406146D01*
X386854Y107850D02*
Y123146D01*
X406146Y107850D02*
Y123146D01*
X386854Y107850D02*
X406146D01*
X295854Y134146D02*
X315146D01*
X295854Y118850D02*
Y134146D01*
X315146Y118850D02*
Y134146D01*
X295854Y118850D02*
X315146D01*
X266854Y134146D02*
X286146D01*
X266854Y118850D02*
Y134146D01*
X286146Y118850D02*
Y134146D01*
X266854Y118850D02*
X286146D01*
X237354Y134146D02*
X256646D01*
X237354Y118850D02*
Y134146D01*
X256646Y118850D02*
Y134146D01*
X237354Y118850D02*
X256646D01*
X339354Y153646D02*
X358646D01*
X339354Y138350D02*
Y153646D01*
X358646Y138350D02*
Y153646D01*
X339354Y138350D02*
X358646D01*
X172354Y219146D02*
X191646D01*
X172354Y203850D02*
Y219146D01*
X191646Y203850D02*
Y219146D01*
X172354Y203850D02*
X191646D01*
X113917Y212543D02*
X133996D01*
X113917Y255457D02*
X133996D01*
Y212543D02*
Y255457D01*
X113917Y212543D02*
Y255457D01*
X174354Y194146D02*
X193646D01*
X174354Y178850D02*
Y194146D01*
X193646Y178850D02*
Y194146D01*
X174354Y178850D02*
X193646D01*
X118354Y194146D02*
X137646D01*
X118354Y178850D02*
Y194146D01*
X137646Y178850D02*
Y194146D01*
X118354Y178850D02*
X137646D01*
M02*
