G04*
G04 #@! TF.GenerationSoftware,Altium Limited,Altium Designer,21.1.1 (26)*
G04*
G04 Layer_Color=16711935*
%FSLAX25Y25*%
%MOIN*%
G70*
G04*
G04 #@! TF.SameCoordinates,B1EDFFF0-04F4-4B73-9F12-1C7DDB0DF417*
G04*
G04*
G04 #@! TF.FilePolarity,Negative*
G04*
G01*
G75*
%ADD26C,0.04934*%
%ADD27R,0.04934X0.04934*%
%ADD28R,0.06706X0.06706*%
%ADD29C,0.06706*%
%ADD30C,0.06902*%
%ADD31C,0.07099*%
%ADD32R,0.07099X0.07099*%
%ADD33R,0.05524X0.05524*%
%ADD34C,0.05524*%
%ADD35C,0.05800*%
D26*
X399500Y140500D02*
D03*
X394500D02*
D03*
X348500Y116000D02*
D03*
X353500D02*
D03*
X495500Y247000D02*
D03*
X500500D02*
D03*
X470000Y246500D02*
D03*
X475000D02*
D03*
X350000Y172000D02*
D03*
X355000D02*
D03*
X393500Y171000D02*
D03*
X398500D02*
D03*
X396500Y113500D02*
D03*
X401500D02*
D03*
X305500Y124500D02*
D03*
X310500D02*
D03*
X276500D02*
D03*
X281500D02*
D03*
X247000D02*
D03*
X252000D02*
D03*
X349000Y144000D02*
D03*
X354000D02*
D03*
X182000Y209500D02*
D03*
X187000D02*
D03*
X184000Y184500D02*
D03*
X189000D02*
D03*
X128000D02*
D03*
X133000D02*
D03*
D27*
X389500Y140500D02*
D03*
X343500Y116000D02*
D03*
X490500Y247000D02*
D03*
X465000Y246500D02*
D03*
X345000Y172000D02*
D03*
X388500Y171000D02*
D03*
X391500Y113500D02*
D03*
X300500Y124500D02*
D03*
X271500D02*
D03*
X242000D02*
D03*
X344000Y144000D02*
D03*
X177000Y209500D02*
D03*
X179000Y184500D02*
D03*
X123000D02*
D03*
D28*
X446500Y243500D02*
D03*
X513000Y120000D02*
D03*
X247815Y253000D02*
D03*
X322500Y154000D02*
D03*
X125500Y287500D02*
D03*
D29*
X446500Y253500D02*
D03*
X513000Y140000D02*
D03*
Y150000D02*
D03*
Y160000D02*
D03*
Y170000D02*
D03*
Y180000D02*
D03*
Y190000D02*
D03*
Y200000D02*
D03*
Y130000D02*
D03*
X237815Y293000D02*
D03*
X247815D02*
D03*
X237815Y283000D02*
D03*
X247815D02*
D03*
X237815Y273000D02*
D03*
X247815D02*
D03*
X237815Y263000D02*
D03*
X247815D02*
D03*
X237815Y253000D02*
D03*
X322500Y164000D02*
D03*
X125500Y297500D02*
D03*
D30*
X197500Y113220D02*
D03*
Y150780D02*
D03*
D31*
X122500Y224000D02*
D03*
Y234000D02*
D03*
D32*
Y244000D02*
D03*
D33*
X120000Y123500D02*
D03*
D34*
Y133500D02*
D03*
Y143500D02*
D03*
D35*
X475800Y159300D02*
D03*
X188500Y219000D02*
D03*
X167900Y179000D02*
D03*
X436315Y167500D02*
D03*
X439600Y129700D02*
D03*
X425000Y150100D02*
D03*
X315500Y158500D02*
D03*
X168000Y232500D02*
D03*
X158650Y223150D02*
D03*
X188630Y174070D02*
D03*
X200300Y249400D02*
D03*
X374400Y232800D02*
D03*
X374000Y206900D02*
D03*
X277100Y243485D02*
D03*
X361400Y142200D02*
D03*
X340500Y197200D02*
D03*
X196300Y254900D02*
D03*
X469000Y118800D02*
D03*
X437600Y151200D02*
D03*
X320400Y255100D02*
D03*
X312300Y236400D02*
D03*
X343600Y237700D02*
D03*
X452400Y147200D02*
D03*
X455600Y213300D02*
D03*
X461130Y170000D02*
D03*
X408400Y171000D02*
D03*
X348500Y221100D02*
D03*
X386700Y240300D02*
D03*
X313700Y213300D02*
D03*
X331500Y193500D02*
D03*
X308100Y252000D02*
D03*
X333400Y238000D02*
D03*
X317700Y206500D02*
D03*
X448500Y106700D02*
D03*
X419700Y135100D02*
D03*
X314400Y227000D02*
D03*
X264900Y225700D02*
D03*
X285500Y263100D02*
D03*
X268500Y198300D02*
D03*
X299100Y236500D02*
D03*
X148500Y206300D02*
D03*
X217570Y176400D02*
D03*
X465000Y227900D02*
D03*
X425700Y171700D02*
D03*
X427000Y129700D02*
D03*
X427500Y109200D02*
D03*
M02*
