G04*
G04 #@! TF.GenerationSoftware,Altium Limited,Altium Designer,21.1.1 (26)*
G04*
G04 Layer_Color=65535*
%FSLAX25Y25*%
%MOIN*%
G70*
G04*
G04 #@! TF.SameCoordinates,B1EDFFF0-04F4-4B73-9F12-1C7DDB0DF417*
G04*
G04*
G04 #@! TF.FilePolarity,Positive*
G04*
G01*
G75*
%ADD10C,0.00984*%
%ADD11C,0.00787*%
%ADD12C,0.00800*%
%ADD13C,0.01000*%
D10*
X383378Y140500D02*
G03*
X383378Y140500I-492J0D01*
G01*
X337378Y116000D02*
G03*
X337378Y116000I-492J0D01*
G01*
X484378Y247000D02*
G03*
X484378Y247000I-492J0D01*
G01*
X458878Y246500D02*
G03*
X458878Y246500I-492J0D01*
G01*
X338878Y172000D02*
G03*
X338878Y172000I-492J0D01*
G01*
X382378Y171000D02*
G03*
X382378Y171000I-492J0D01*
G01*
X385378Y113500D02*
G03*
X385378Y113500I-492J0D01*
G01*
X294378Y124500D02*
G03*
X294378Y124500I-492J0D01*
G01*
X265378D02*
G03*
X265378Y124500I-492J0D01*
G01*
X235878D02*
G03*
X235878Y124500I-492J0D01*
G01*
X337878Y144000D02*
G03*
X337878Y144000I-492J0D01*
G01*
X170878Y209500D02*
G03*
X170878Y209500I-492J0D01*
G01*
X171244Y242500D02*
G03*
X171244Y242500I-492J0D01*
G01*
X122992Y257031D02*
G03*
X122992Y257031I-492J0D01*
G01*
X172878Y184500D02*
G03*
X172878Y184500I-492J0D01*
G01*
X116878D02*
G03*
X116878Y184500I-492J0D01*
G01*
D11*
X402114Y135243D02*
G03*
X386887Y135242I-7614J5257D01*
G01*
X356114Y110743D02*
G03*
X340887Y110742I-7614J5257D01*
G01*
X503114Y241743D02*
G03*
X487887Y241742I-7614J5257D01*
G01*
X477614Y241244D02*
G03*
X462387Y241242I-7614J5257D01*
G01*
X357614Y166744D02*
G03*
X342387Y166742I-7614J5257D01*
G01*
X401114Y165744D02*
G03*
X385887Y165742I-7614J5257D01*
G01*
X404114Y108244D02*
G03*
X388887Y108242I-7614J5257D01*
G01*
X313114Y119244D02*
G03*
X297887Y119242I-7614J5257D01*
G01*
X284114Y119244D02*
G03*
X268887Y119242I-7614J5257D01*
G01*
X254614Y119244D02*
G03*
X239387Y119242I-7614J5257D01*
G01*
X356614Y138743D02*
G03*
X341387Y138742I-7614J5257D01*
G01*
X189614Y204243D02*
G03*
X174387Y204242I-7614J5257D01*
G01*
X191614Y179244D02*
G03*
X176387Y179242I-7614J5257D01*
G01*
X135614Y179244D02*
G03*
X120387Y179242I-7614J5257D01*
G01*
X386887Y135244D02*
X402113D01*
X340887Y110744D02*
X356113D01*
X441500Y258500D02*
X451500D01*
Y238500D02*
Y258500D01*
X441500Y238500D02*
X451500D01*
X441500D02*
Y258500D01*
X486138Y210976D02*
X490862D01*
X459138Y209976D02*
X463862D01*
X487887Y241744D02*
X503113D01*
X462387Y241244D02*
X477613D01*
X508000Y205000D02*
X518000D01*
Y115000D02*
Y205000D01*
X508000Y115000D02*
X518000D01*
X508000D02*
Y205000D01*
X479138Y155976D02*
X483862D01*
X468138Y172976D02*
X472862D01*
X452240Y110047D02*
X455390D01*
X452240Y115953D02*
X455390D01*
X466638Y126976D02*
X471362D01*
X446638Y126520D02*
X451362D01*
X452740Y154047D02*
X455890D01*
X452740Y159953D02*
X455890D01*
X452240Y175047D02*
X455390D01*
X452240Y180953D02*
X455390D01*
X431240Y112547D02*
X434390D01*
X431240Y118453D02*
X434390D01*
X430740Y133047D02*
X433890D01*
X430740Y138953D02*
X433890D01*
X430740Y154547D02*
X433890D01*
X430740Y160453D02*
X433890D01*
X429425Y175047D02*
X432575D01*
X429425Y180953D02*
X432575D01*
X342387Y166744D02*
X357613D01*
X385887Y165744D02*
X401113D01*
X388887Y108244D02*
X404113D01*
X297887Y119244D02*
X313113D01*
X268887D02*
X284113D01*
X239387D02*
X254613D01*
X341387Y138744D02*
X356613D01*
X417138Y213976D02*
X421862D01*
X417138Y238976D02*
X421862D01*
X392063Y214638D02*
Y219362D01*
X396638Y238476D02*
X401362D01*
X371638Y186476D02*
X376362D01*
X346638Y199476D02*
X351362D01*
X325138Y200976D02*
X329862D01*
X371138Y211976D02*
X375862D01*
X370638Y238476D02*
X375362D01*
X351240Y227047D02*
X354390D01*
X351240Y232953D02*
X354390D01*
X351240Y246547D02*
X354390D01*
X351240Y252453D02*
X354390D01*
X328740Y227547D02*
X331890D01*
X328740Y233453D02*
X331890D01*
X329740Y246547D02*
X332890D01*
X329740Y252453D02*
X332890D01*
X308953Y240110D02*
Y243260D01*
X303047Y240110D02*
Y243260D01*
X289240Y247047D02*
X292390D01*
X289240Y252953D02*
X292390D01*
X268610Y229047D02*
X271760D01*
X268610Y234953D02*
X271760D01*
X268425Y247516D02*
X271575D01*
X268425Y253421D02*
X271575D01*
X151740Y274547D02*
X154890D01*
X151740Y280453D02*
X154890D01*
X252815Y248000D02*
Y298000D01*
X232815Y248000D02*
Y298000D01*
Y248000D02*
X252815D01*
X232815Y298000D02*
X252815D01*
X317500Y169000D02*
X327500D01*
Y149000D02*
Y169000D01*
X317500Y149000D02*
X327500D01*
X317500D02*
Y169000D01*
X238579Y148386D02*
Y221614D01*
X298421Y148386D02*
Y221614D01*
X238579Y148386D02*
X261433D01*
X238579Y221614D02*
X261433D01*
X275567Y148386D02*
X298421D01*
X275567Y221614D02*
X298421D01*
X218453Y230110D02*
Y233260D01*
X212547Y230110D02*
Y233260D01*
X214740Y203047D02*
X217890D01*
X214740Y208953D02*
X217890D01*
X214240Y182047D02*
X217390D01*
X214240Y187953D02*
X217390D01*
X214740Y163547D02*
X217890D01*
X214740Y169453D02*
X217890D01*
X152240Y253547D02*
X155390D01*
X152240Y259453D02*
X155390D01*
X192874Y122846D02*
Y141154D01*
Y122846D02*
X202126D01*
Y141154D01*
X192874D02*
X202126D01*
X197500D02*
Y146154D01*
Y117846D02*
Y122846D01*
X192874Y127846D02*
X202126D01*
X174387Y204244D02*
X189613D01*
X151740Y230547D02*
X154890D01*
X151740Y236453D02*
X154890D01*
X183248Y225354D02*
Y244646D01*
Y225354D02*
X189382D01*
Y244646D01*
X183248D02*
X189382D01*
X152240Y209547D02*
X155390D01*
X152240Y215453D02*
X155390D01*
X152740Y190547D02*
X155890D01*
X152740Y196453D02*
X155890D01*
X131043Y213528D02*
Y254472D01*
X133012Y213528D02*
Y254472D01*
X114902Y213528D02*
Y254472D01*
Y213528D02*
X133012D01*
X114902Y254472D02*
X133012D01*
X181740Y164047D02*
X184890D01*
X181740Y169953D02*
X184890D01*
X120500Y302500D02*
X130500D01*
Y282500D02*
Y302500D01*
X120500Y282500D02*
X130500D01*
X120500D02*
Y302500D01*
X176387Y179244D02*
X191613D01*
X120387D02*
X135613D01*
X149953Y135425D02*
Y138575D01*
X144047Y135425D02*
Y138575D01*
X167740Y127547D02*
X170890D01*
X167740Y133453D02*
X170890D01*
X151240Y160047D02*
X154390D01*
X151240Y165953D02*
X154390D01*
X110000Y113500D02*
X130000D01*
Y158500D01*
X120000D02*
X130000D01*
X120000Y153500D02*
Y158500D01*
X110000Y153500D02*
X120000D01*
X110000Y113500D02*
Y153500D01*
X152740Y175547D02*
X155890D01*
X152740Y181453D02*
X155890D01*
D12*
X239815Y299000D02*
Y300666D01*
Y299833D01*
X234817D01*
X235650Y299000D01*
Y303165D02*
X234817Y303998D01*
Y305664D01*
X235650Y306498D01*
X238982D01*
X239815Y305664D01*
Y303998D01*
X238982Y303165D01*
X235650D01*
X248982Y299000D02*
X249815Y299833D01*
Y301499D01*
X248982Y302332D01*
X245650D01*
X244817Y301499D01*
Y299833D01*
X245650Y299000D01*
X246483D01*
X247316Y299833D01*
Y302332D01*
X249815Y245000D02*
Y246666D01*
Y245833D01*
X244817D01*
X245650Y245000D01*
X239815Y246332D02*
Y243000D01*
X236483Y246332D01*
X235650D01*
X234817Y245499D01*
Y243833D01*
X235650Y243000D01*
D13*
X170800Y254998D02*
Y250000D01*
X171800Y249000D01*
X173799D01*
X174799Y250000D01*
Y254998D01*
X176798Y253998D02*
X177798Y254998D01*
X179797D01*
X180797Y253998D01*
Y252999D01*
X178797Y250999D01*
Y250000D02*
Y249000D01*
X458400Y265198D02*
X462399D01*
X460399D01*
Y259200D01*
X464398D02*
X466397D01*
X465398D01*
Y265198D01*
X464398Y264198D01*
X473395Y265198D02*
X469396D01*
Y262199D01*
X471396Y263199D01*
X472396D01*
X473395Y262199D01*
Y260200D01*
X472396Y259200D01*
X470396D01*
X469396Y260200D01*
X483900Y265698D02*
X487899D01*
X485899D01*
Y259700D01*
X489898D02*
X491897D01*
X490898D01*
Y265698D01*
X489898Y264698D01*
X497895Y259700D02*
Y265698D01*
X494896Y262699D01*
X498895D01*
X338400Y190698D02*
X342399D01*
X340399D01*
Y184700D01*
X344398D02*
X346397D01*
X345398D01*
Y190698D01*
X344398Y189698D01*
X349396D02*
X350396Y190698D01*
X352396D01*
X353395Y189698D01*
Y188699D01*
X352396Y187699D01*
X351396D01*
X352396D01*
X353395Y186699D01*
Y185700D01*
X352396Y184700D01*
X350396D01*
X349396Y185700D01*
X381900Y189698D02*
X385899D01*
X383899D01*
Y183700D01*
X387898D02*
X389897D01*
X388898D01*
Y189698D01*
X387898Y188698D01*
X396895Y183700D02*
X392896D01*
X396895Y187699D01*
Y188698D01*
X395896Y189698D01*
X393896D01*
X392896Y188698D01*
X384900Y132198D02*
X388899D01*
X386899D01*
Y126200D01*
X390898D02*
X392897D01*
X391898D01*
Y132198D01*
X390898Y131198D01*
X395896Y126200D02*
X397896D01*
X396896D01*
Y132198D01*
X395896Y131198D01*
X382900Y159198D02*
X386899D01*
X384899D01*
Y153200D01*
X388898D02*
X390897D01*
X389898D01*
Y159198D01*
X388898Y158198D01*
X393896D02*
X394896Y159198D01*
X396896D01*
X397895Y158198D01*
Y154200D01*
X396896Y153200D01*
X394896D01*
X393896Y154200D01*
Y158198D01*
X342686Y134499D02*
X346685D01*
X344686D01*
Y128501D01*
X348685Y129501D02*
X349684Y128501D01*
X351683D01*
X352683Y129501D01*
Y133499D01*
X351683Y134499D01*
X349684D01*
X348685Y133499D01*
Y132500D01*
X349684Y131500D01*
X352683D01*
X293900Y143198D02*
X297899D01*
X295899D01*
Y137200D01*
X299898Y142198D02*
X300898Y143198D01*
X302897D01*
X303897Y142198D01*
Y141199D01*
X302897Y140199D01*
X303897Y139199D01*
Y138200D01*
X302897Y137200D01*
X300898D01*
X299898Y138200D01*
Y139199D01*
X300898Y140199D01*
X299898Y141199D01*
Y142198D01*
X300898Y140199D02*
X302897D01*
X264900Y143198D02*
X268899D01*
X266899D01*
Y137200D01*
X270898Y143198D02*
X274897D01*
Y142198D01*
X270898Y138200D01*
Y137200D01*
X235400Y143198D02*
X239399D01*
X237399D01*
Y137200D01*
X245397Y143198D02*
X243397Y142198D01*
X241398Y140199D01*
Y138200D01*
X242398Y137200D01*
X244397D01*
X245397Y138200D01*
Y139199D01*
X244397Y140199D01*
X241398D01*
X337400Y162698D02*
X341399D01*
X339399D01*
Y156700D01*
X347397Y162698D02*
X343398D01*
Y159699D01*
X345397Y160699D01*
X346397D01*
X347397Y159699D01*
Y157700D01*
X346397Y156700D01*
X344398D01*
X343398Y157700D01*
X114800Y266998D02*
X118799D01*
X116799D01*
Y261000D01*
X123797D02*
Y266998D01*
X120798Y263999D01*
X124797D01*
X172400Y203198D02*
X176399D01*
X174399D01*
Y197200D01*
X178398Y202198D02*
X179398Y203198D01*
X181397D01*
X182397Y202198D01*
Y201199D01*
X181397Y200199D01*
X180397D01*
X181397D01*
X182397Y199199D01*
Y198200D01*
X181397Y197200D01*
X179398D01*
X178398Y198200D01*
X170400Y228198D02*
X174399D01*
X172399D01*
Y222200D01*
X180397D02*
X176398D01*
X180397Y226199D01*
Y227198D01*
X179397Y228198D01*
X177398D01*
X176398Y227198D01*
X116400Y203198D02*
X120399D01*
X118399D01*
Y197200D01*
X122398D02*
X124397D01*
X123398D01*
Y203198D01*
X122398Y202198D01*
X144100Y148100D02*
Y154098D01*
X147099D01*
X148099Y153098D01*
Y151099D01*
X147099Y150099D01*
X144100D01*
X146099D02*
X148099Y148100D01*
X150098Y153098D02*
X151098Y154098D01*
X153097D01*
X154097Y153098D01*
Y152099D01*
X153097Y151099D01*
X152097D01*
X153097D01*
X154097Y150099D01*
Y149100D01*
X153097Y148100D01*
X151098D01*
X150098Y149100D01*
X156096Y153098D02*
X157096Y154098D01*
X159095D01*
X160095Y153098D01*
Y152099D01*
X159095Y151099D01*
X160095Y150099D01*
Y149100D01*
X159095Y148100D01*
X157096D01*
X156096Y149100D01*
Y150099D01*
X157096Y151099D01*
X156096Y152099D01*
Y153098D01*
X157096Y151099D02*
X159095D01*
X479100Y173300D02*
Y179298D01*
X482099D01*
X483099Y178298D01*
Y176299D01*
X482099Y175299D01*
X479100D01*
X481099D02*
X483099Y173300D01*
X485098Y178298D02*
X486098Y179298D01*
X488097D01*
X489097Y178298D01*
Y177299D01*
X488097Y176299D01*
X487097D01*
X488097D01*
X489097Y175299D01*
Y174300D01*
X488097Y173300D01*
X486098D01*
X485098Y174300D01*
X491096Y179298D02*
X495095D01*
Y178298D01*
X491096Y174300D01*
Y173300D01*
X468100Y190300D02*
Y196298D01*
X471099D01*
X472099Y195298D01*
Y193299D01*
X471099Y192299D01*
X468100D01*
X470099D02*
X472099Y190300D01*
X474098Y195298D02*
X475098Y196298D01*
X477097D01*
X478097Y195298D01*
Y194299D01*
X477097Y193299D01*
X476097D01*
X477097D01*
X478097Y192299D01*
Y191300D01*
X477097Y190300D01*
X475098D01*
X474098Y191300D01*
X484095Y196298D02*
X482095Y195298D01*
X480096Y193299D01*
Y191300D01*
X481096Y190300D01*
X483095D01*
X484095Y191300D01*
Y192299D01*
X483095Y193299D01*
X480096D01*
X486100Y228300D02*
Y234298D01*
X489099D01*
X490099Y233298D01*
Y231299D01*
X489099Y230299D01*
X486100D01*
X488099D02*
X490099Y228300D01*
X492098Y233298D02*
X493098Y234298D01*
X495097D01*
X496097Y233298D01*
Y232299D01*
X495097Y231299D01*
X494097D01*
X495097D01*
X496097Y230299D01*
Y229300D01*
X495097Y228300D01*
X493098D01*
X492098Y229300D01*
X502095Y234298D02*
X498096D01*
Y231299D01*
X500096Y232299D01*
X501095D01*
X502095Y231299D01*
Y229300D01*
X501095Y228300D01*
X499096D01*
X498096Y229300D01*
X459100Y227300D02*
Y233298D01*
X462099D01*
X463099Y232298D01*
Y230299D01*
X462099Y229299D01*
X459100D01*
X461099D02*
X463099Y227300D01*
X465098Y232298D02*
X466098Y233298D01*
X468097D01*
X469097Y232298D01*
Y231299D01*
X468097Y230299D01*
X467097D01*
X468097D01*
X469097Y229299D01*
Y228300D01*
X468097Y227300D01*
X466098D01*
X465098Y228300D01*
X474095Y227300D02*
Y233298D01*
X471096Y230299D01*
X475095D01*
X417100Y256300D02*
Y262298D01*
X420099D01*
X421099Y261298D01*
Y259299D01*
X420099Y258299D01*
X417100D01*
X419099D02*
X421099Y256300D01*
X423098Y261298D02*
X424098Y262298D01*
X426097D01*
X427097Y261298D01*
Y260299D01*
X426097Y259299D01*
X425097D01*
X426097D01*
X427097Y258299D01*
Y257300D01*
X426097Y256300D01*
X424098D01*
X423098Y257300D01*
X429096Y261298D02*
X430096Y262298D01*
X432095D01*
X433095Y261298D01*
Y260299D01*
X432095Y259299D01*
X431096D01*
X432095D01*
X433095Y258299D01*
Y257300D01*
X432095Y256300D01*
X430096D01*
X429096Y257300D01*
X417100Y231300D02*
Y237298D01*
X420099D01*
X421099Y236298D01*
Y234299D01*
X420099Y233299D01*
X417100D01*
X419099D02*
X421099Y231300D01*
X423098Y236298D02*
X424098Y237298D01*
X426097D01*
X427097Y236298D01*
Y235299D01*
X426097Y234299D01*
X425097D01*
X426097D01*
X427097Y233299D01*
Y232300D01*
X426097Y231300D01*
X424098D01*
X423098Y232300D01*
X433095Y231300D02*
X429096D01*
X433095Y235299D01*
Y236298D01*
X432095Y237298D01*
X430096D01*
X429096Y236298D01*
X392700Y223400D02*
Y229398D01*
X395699D01*
X396699Y228398D01*
Y226399D01*
X395699Y225399D01*
X392700D01*
X394699D02*
X396699Y223400D01*
X398698Y228398D02*
X399698Y229398D01*
X401697D01*
X402697Y228398D01*
Y227399D01*
X401697Y226399D01*
X400697D01*
X401697D01*
X402697Y225399D01*
Y224400D01*
X401697Y223400D01*
X399698D01*
X398698Y224400D01*
X404696Y223400D02*
X406696D01*
X405696D01*
Y229398D01*
X404696Y228398D01*
X396600Y255800D02*
Y261798D01*
X399599D01*
X400599Y260798D01*
Y258799D01*
X399599Y257799D01*
X396600D01*
X398599D02*
X400599Y255800D01*
X402598Y260798D02*
X403598Y261798D01*
X405597D01*
X406597Y260798D01*
Y259799D01*
X405597Y258799D01*
X404597D01*
X405597D01*
X406597Y257799D01*
Y256800D01*
X405597Y255800D01*
X403598D01*
X402598Y256800D01*
X408596Y260798D02*
X409596Y261798D01*
X411595D01*
X412595Y260798D01*
Y256800D01*
X411595Y255800D01*
X409596D01*
X408596Y256800D01*
Y260798D01*
X371600Y203800D02*
Y209798D01*
X374599D01*
X375599Y208798D01*
Y206799D01*
X374599Y205799D01*
X371600D01*
X373599D02*
X375599Y203800D01*
X381597D02*
X377598D01*
X381597Y207799D01*
Y208798D01*
X380597Y209798D01*
X378598D01*
X377598Y208798D01*
X383596Y204800D02*
X384596Y203800D01*
X386595D01*
X387595Y204800D01*
Y208798D01*
X386595Y209798D01*
X384596D01*
X383596Y208798D01*
Y207799D01*
X384596Y206799D01*
X387595D01*
X346600Y216800D02*
Y222798D01*
X349599D01*
X350599Y221798D01*
Y219799D01*
X349599Y218799D01*
X346600D01*
X348599D02*
X350599Y216800D01*
X356597D02*
X352598D01*
X356597Y220799D01*
Y221798D01*
X355597Y222798D01*
X353598D01*
X352598Y221798D01*
X358596D02*
X359596Y222798D01*
X361595D01*
X362595Y221798D01*
Y220799D01*
X361595Y219799D01*
X362595Y218799D01*
Y217800D01*
X361595Y216800D01*
X359596D01*
X358596Y217800D01*
Y218799D01*
X359596Y219799D01*
X358596Y220799D01*
Y221798D01*
X359596Y219799D02*
X361595D01*
X325100Y218300D02*
Y224298D01*
X328099D01*
X329099Y223298D01*
Y221299D01*
X328099Y220299D01*
X325100D01*
X327099D02*
X329099Y218300D01*
X335097D02*
X331098D01*
X335097Y222299D01*
Y223298D01*
X334097Y224298D01*
X332098D01*
X331098Y223298D01*
X337096Y224298D02*
X341095D01*
Y223298D01*
X337096Y219300D01*
Y218300D01*
X371100Y229300D02*
Y235298D01*
X374099D01*
X375099Y234298D01*
Y232299D01*
X374099Y231299D01*
X371100D01*
X373099D02*
X375099Y229300D01*
X381097D02*
X377098D01*
X381097Y233299D01*
Y234298D01*
X380097Y235298D01*
X378098D01*
X377098Y234298D01*
X387095Y235298D02*
X385096Y234298D01*
X383096Y232299D01*
Y230300D01*
X384096Y229300D01*
X386095D01*
X387095Y230300D01*
Y231299D01*
X386095Y232299D01*
X383096D01*
X370600Y255800D02*
Y261798D01*
X373599D01*
X374599Y260798D01*
Y258799D01*
X373599Y257799D01*
X370600D01*
X372599D02*
X374599Y255800D01*
X380597D02*
X376598D01*
X380597Y259799D01*
Y260798D01*
X379597Y261798D01*
X377598D01*
X376598Y260798D01*
X386595Y261798D02*
X382596D01*
Y258799D01*
X384595Y259799D01*
X385595D01*
X386595Y258799D01*
Y256800D01*
X385595Y255800D01*
X383596D01*
X382596Y256800D01*
X466600Y144300D02*
Y150298D01*
X469599D01*
X470599Y149298D01*
Y147299D01*
X469599Y146299D01*
X466600D01*
X468599D02*
X470599Y144300D01*
X476597D02*
X472598D01*
X476597Y148299D01*
Y149298D01*
X475597Y150298D01*
X473598D01*
X472598Y149298D01*
X481595Y144300D02*
Y150298D01*
X478596Y147299D01*
X482595D01*
X446600Y143900D02*
Y149898D01*
X449599D01*
X450599Y148898D01*
Y146899D01*
X449599Y145899D01*
X446600D01*
X448599D02*
X450599Y143900D01*
X456597D02*
X452598D01*
X456597Y147899D01*
Y148898D01*
X455597Y149898D01*
X453598D01*
X452598Y148898D01*
X458596D02*
X459596Y149898D01*
X461595D01*
X462595Y148898D01*
Y147899D01*
X461595Y146899D01*
X460596D01*
X461595D01*
X462595Y145899D01*
Y144900D01*
X461595Y143900D01*
X459596D01*
X458596Y144900D01*
X212600Y242800D02*
Y248798D01*
X215599D01*
X216599Y247798D01*
Y245799D01*
X215599Y244799D01*
X212600D01*
X214599D02*
X216599Y242800D01*
X222597D02*
X218598D01*
X222597Y246799D01*
Y247798D01*
X221597Y248798D01*
X219598D01*
X218598Y247798D01*
X228595Y242800D02*
X224596D01*
X228595Y246799D01*
Y247798D01*
X227595Y248798D01*
X225596D01*
X224596Y247798D01*
X176200Y173900D02*
Y179898D01*
X179199D01*
X180199Y178898D01*
Y176899D01*
X179199Y175899D01*
X176200D01*
X178199D02*
X180199Y173900D01*
X186197D02*
X182198D01*
X186197Y177899D01*
Y178898D01*
X185197Y179898D01*
X183198D01*
X182198Y178898D01*
X188196Y173900D02*
X190196D01*
X189196D01*
Y179898D01*
X188196Y178898D01*
X303100Y252800D02*
Y258798D01*
X306099D01*
X307099Y257798D01*
Y255799D01*
X306099Y254799D01*
X303100D01*
X305099D02*
X307099Y252800D01*
X313097D02*
X309098D01*
X313097Y256799D01*
Y257798D01*
X312097Y258798D01*
X310098D01*
X309098Y257798D01*
X315096D02*
X316096Y258798D01*
X318095D01*
X319095Y257798D01*
Y253800D01*
X318095Y252800D01*
X316096D01*
X315096Y253800D01*
Y257798D01*
X283700Y256900D02*
Y262898D01*
X286699D01*
X287699Y261898D01*
Y259899D01*
X286699Y258899D01*
X283700D01*
X285699D02*
X287699Y256900D01*
X289698D02*
X291697D01*
X290698D01*
Y262898D01*
X289698Y261898D01*
X294696Y257900D02*
X295696Y256900D01*
X297695D01*
X298695Y257900D01*
Y261898D01*
X297695Y262898D01*
X295696D01*
X294696Y261898D01*
Y260899D01*
X295696Y259899D01*
X298695D01*
X345700Y236900D02*
Y242898D01*
X348699D01*
X349699Y241898D01*
Y239899D01*
X348699Y238899D01*
X345700D01*
X347699D02*
X349699Y236900D01*
X351698D02*
X353697D01*
X352698D01*
Y242898D01*
X351698Y241898D01*
X356696D02*
X357696Y242898D01*
X359696D01*
X360695Y241898D01*
Y240899D01*
X359696Y239899D01*
X360695Y238899D01*
Y237900D01*
X359696Y236900D01*
X357696D01*
X356696Y237900D01*
Y238899D01*
X357696Y239899D01*
X356696Y240899D01*
Y241898D01*
X357696Y239899D02*
X359696D01*
X263100Y238900D02*
Y244898D01*
X266099D01*
X267099Y243898D01*
Y241899D01*
X266099Y240899D01*
X263100D01*
X265099D02*
X267099Y238900D01*
X269098D02*
X271097D01*
X270098D01*
Y244898D01*
X269098Y243898D01*
X274096Y244898D02*
X278095D01*
Y243898D01*
X274096Y239900D01*
Y238900D01*
X262900Y257400D02*
Y263398D01*
X265899D01*
X266899Y262398D01*
Y260399D01*
X265899Y259399D01*
X262900D01*
X264899D02*
X266899Y257400D01*
X268898D02*
X270897D01*
X269898D01*
Y263398D01*
X268898Y262398D01*
X277895Y263398D02*
X275896Y262398D01*
X273896Y260399D01*
Y258400D01*
X274896Y257400D01*
X276895D01*
X277895Y258400D01*
Y259399D01*
X276895Y260399D01*
X273896D01*
X146200Y284400D02*
Y290398D01*
X149199D01*
X150199Y289398D01*
Y287399D01*
X149199Y286399D01*
X146200D01*
X148199D02*
X150199Y284400D01*
X152198D02*
X154197D01*
X153198D01*
Y290398D01*
X152198Y289398D01*
X161195Y290398D02*
X157196D01*
Y287399D01*
X159196Y288399D01*
X160196D01*
X161195Y287399D01*
Y285400D01*
X160196Y284400D01*
X158196D01*
X157196Y285400D01*
X345700Y256400D02*
Y262398D01*
X348699D01*
X349699Y261398D01*
Y259399D01*
X348699Y258399D01*
X345700D01*
X347699D02*
X349699Y256400D01*
X351698D02*
X353697D01*
X352698D01*
Y262398D01*
X351698Y261398D01*
X359696Y256400D02*
Y262398D01*
X356696Y259399D01*
X360695D01*
X323200Y237400D02*
Y243398D01*
X326199D01*
X327199Y242398D01*
Y240399D01*
X326199Y239399D01*
X323200D01*
X325199D02*
X327199Y237400D01*
X329198D02*
X331197D01*
X330198D01*
Y243398D01*
X329198Y242398D01*
X334196D02*
X335196Y243398D01*
X337195D01*
X338195Y242398D01*
Y241399D01*
X337195Y240399D01*
X336196D01*
X337195D01*
X338195Y239399D01*
Y238400D01*
X337195Y237400D01*
X335196D01*
X334196Y238400D01*
X324200Y256400D02*
Y262398D01*
X327199D01*
X328199Y261398D01*
Y259399D01*
X327199Y258399D01*
X324200D01*
X326199D02*
X328199Y256400D01*
X330198D02*
X332197D01*
X331198D01*
Y262398D01*
X330198Y261398D01*
X339195Y256400D02*
X335196D01*
X339195Y260399D01*
Y261398D01*
X338195Y262398D01*
X336196D01*
X335196Y261398D01*
X146700Y263400D02*
Y269398D01*
X149699D01*
X150699Y268398D01*
Y266399D01*
X149699Y265399D01*
X146700D01*
X148699D02*
X150699Y263400D01*
X152698D02*
X154697D01*
X153698D01*
Y269398D01*
X152698Y268398D01*
X157696Y263400D02*
X159696D01*
X158696D01*
Y269398D01*
X157696Y268398D01*
X162200Y137400D02*
Y143398D01*
X165199D01*
X166199Y142398D01*
Y140399D01*
X165199Y139399D01*
X162200D01*
X164199D02*
X166199Y137400D01*
X168198D02*
X170197D01*
X169198D01*
Y143398D01*
X168198Y142398D01*
X173196D02*
X174196Y143398D01*
X176196D01*
X177195Y142398D01*
Y138400D01*
X176196Y137400D01*
X174196D01*
X173196Y138400D01*
Y142398D01*
X147200Y200400D02*
Y206398D01*
X150199D01*
X151199Y205398D01*
Y203399D01*
X150199Y202399D01*
X147200D01*
X149199D02*
X151199Y200400D01*
X153198Y201400D02*
X154198Y200400D01*
X156197D01*
X157197Y201400D01*
Y205398D01*
X156197Y206398D01*
X154198D01*
X153198Y205398D01*
Y204399D01*
X154198Y203399D01*
X157197D01*
X447200Y163900D02*
Y169898D01*
X450199D01*
X451199Y168898D01*
Y166899D01*
X450199Y165899D01*
X447200D01*
X449199D02*
X451199Y163900D01*
X453198Y168898D02*
X454198Y169898D01*
X456197D01*
X457197Y168898D01*
Y167899D01*
X456197Y166899D01*
X457197Y165899D01*
Y164900D01*
X456197Y163900D01*
X454198D01*
X453198Y164900D01*
Y165899D01*
X454198Y166899D01*
X453198Y167899D01*
Y168898D01*
X454198Y166899D02*
X456197D01*
X446700Y184900D02*
Y190898D01*
X449699D01*
X450699Y189898D01*
Y187899D01*
X449699Y186899D01*
X446700D01*
X448699D02*
X450699Y184900D01*
X452698Y190898D02*
X456697D01*
Y189898D01*
X452698Y185900D01*
Y184900D01*
X425700Y122400D02*
Y128398D01*
X428699D01*
X429699Y127398D01*
Y125399D01*
X428699Y124399D01*
X425700D01*
X427699D02*
X429699Y122400D01*
X435697Y128398D02*
X433697Y127398D01*
X431698Y125399D01*
Y123400D01*
X432698Y122400D01*
X434697D01*
X435697Y123400D01*
Y124399D01*
X434697Y125399D01*
X431698D01*
X425200Y142900D02*
Y148898D01*
X428199D01*
X429199Y147898D01*
Y145899D01*
X428199Y144899D01*
X425200D01*
X427199D02*
X429199Y142900D01*
X435197Y148898D02*
X431198D01*
Y145899D01*
X433197Y146899D01*
X434197D01*
X435197Y145899D01*
Y143900D01*
X434197Y142900D01*
X432198D01*
X431198Y143900D01*
X425200Y164400D02*
Y170398D01*
X428199D01*
X429199Y169398D01*
Y167399D01*
X428199Y166399D01*
X425200D01*
X427199D02*
X429199Y164400D01*
X434197D02*
Y170398D01*
X431198Y167399D01*
X435197D01*
X423900Y184900D02*
Y190898D01*
X426899D01*
X427899Y189898D01*
Y187899D01*
X426899Y186899D01*
X423900D01*
X425899D02*
X427899Y184900D01*
X429898Y189898D02*
X430898Y190898D01*
X432897D01*
X433897Y189898D01*
Y188899D01*
X432897Y187899D01*
X431897D01*
X432897D01*
X433897Y186899D01*
Y185900D01*
X432897Y184900D01*
X430898D01*
X429898Y185900D01*
X446700Y119900D02*
Y125898D01*
X449699D01*
X450699Y124898D01*
Y122899D01*
X449699Y121899D01*
X446700D01*
X448699D02*
X450699Y119900D01*
X456697D02*
X452698D01*
X456697Y123899D01*
Y124898D01*
X455697Y125898D01*
X453698D01*
X452698Y124898D01*
X146700Y219400D02*
Y225398D01*
X149699D01*
X150699Y224398D01*
Y222399D01*
X149699Y221399D01*
X146700D01*
X148699D02*
X150699Y219400D01*
X152698D02*
X154697D01*
X153698D01*
Y225398D01*
X152698Y224398D01*
X121100Y305900D02*
Y311898D01*
X124099D01*
X125099Y310898D01*
Y308899D01*
X124099Y307899D01*
X121100D01*
X127098Y310898D02*
X128098Y311898D01*
X130097D01*
X131097Y310898D01*
Y309899D01*
X129097Y307899D01*
Y306900D02*
Y305900D01*
X508600Y208400D02*
Y214398D01*
X511599D01*
X512599Y213398D01*
Y211399D01*
X511599Y210399D01*
X508600D01*
X514598Y213398D02*
X515598Y214398D01*
X517597D01*
X518597Y213398D01*
Y212399D01*
X516597Y210399D01*
Y209400D02*
Y208400D01*
X110600Y161900D02*
Y167898D01*
X113599D01*
X114599Y166898D01*
Y164899D01*
X113599Y163899D01*
X110600D01*
X116598Y161900D02*
X118597D01*
X117598D01*
Y167898D01*
X116598Y166898D01*
X319100Y172400D02*
X321099D01*
X322099Y173400D01*
Y175399D01*
X321099Y176399D01*
X319100D01*
X318100Y175399D01*
Y173400D01*
X319100Y172400D01*
X324098Y176399D02*
Y173400D01*
X325098Y172400D01*
X328097D01*
Y176399D01*
X331096Y177398D02*
Y176399D01*
X330096D01*
X332096D01*
X331096D01*
Y173400D01*
X332096Y172400D01*
X238200Y233998D02*
Y228000D01*
X242199D01*
X244198D02*
X246197D01*
X245198D01*
Y233998D01*
X244198Y232998D01*
X233400Y316298D02*
Y310300D01*
Y312299D01*
X237399Y316298D01*
X234400Y313299D01*
X237399Y310300D01*
X243397D02*
X239398D01*
X243397Y314299D01*
Y315298D01*
X242397Y316298D01*
X240398D01*
X239398Y315298D01*
X442100Y267898D02*
X444099D01*
X443100D01*
Y261900D01*
X442100D01*
X444099D01*
X447098D02*
Y267898D01*
X451097Y261900D01*
Y267898D01*
X150199Y246398D02*
X146200D01*
Y243399D01*
X148199D01*
X146200D01*
Y240400D01*
X152198D02*
X154197D01*
X153198D01*
Y246398D01*
X152198Y245398D01*
X193500Y163198D02*
Y157200D01*
X196499D01*
X197499Y158200D01*
Y162198D01*
X196499Y163198D01*
X193500D01*
X199498Y157200D02*
X201497D01*
X200498D01*
Y163198D01*
X199498Y162198D01*
X212699Y196898D02*
X211699Y197898D01*
X209700D01*
X208700Y196898D01*
Y192900D01*
X209700Y191900D01*
X211699D01*
X212699Y192900D01*
X218697Y197898D02*
X214698D01*
Y194899D01*
X216697Y195899D01*
X217697D01*
X218697Y194899D01*
Y192900D01*
X217697Y191900D01*
X215698D01*
X214698Y192900D01*
X213199Y178398D02*
X212199Y179398D01*
X210200D01*
X209200Y178398D01*
Y174400D01*
X210200Y173400D01*
X212199D01*
X213199Y174400D01*
X218197Y173400D02*
Y179398D01*
X215198Y176399D01*
X219197D01*
X149699Y174898D02*
X148699Y175898D01*
X146700D01*
X145700Y174898D01*
Y170900D01*
X146700Y169900D01*
X148699D01*
X149699Y170900D01*
X151698Y174898D02*
X152698Y175898D01*
X154697D01*
X155697Y174898D01*
Y173899D01*
X154697Y172899D01*
X153697D01*
X154697D01*
X155697Y171899D01*
Y170900D01*
X154697Y169900D01*
X152698D01*
X151698Y170900D01*
X213199Y217898D02*
X212199Y218898D01*
X210200D01*
X209200Y217898D01*
Y213900D01*
X210200Y212900D01*
X212199D01*
X213199Y213900D01*
X219197Y212900D02*
X215198D01*
X219197Y216899D01*
Y217898D01*
X218197Y218898D01*
X216198D01*
X215198Y217898D01*
X151199Y190398D02*
X150199Y191398D01*
X148200D01*
X147200Y190398D01*
Y186400D01*
X148200Y185400D01*
X150199D01*
X151199Y186400D01*
X153198Y185400D02*
X155197D01*
X154198D01*
Y191398D01*
X153198Y190398D01*
M02*
