G04*
G04 #@! TF.GenerationSoftware,Altium Limited,Altium Designer,21.1.1 (26)*
G04*
G04 Layer_Physical_Order=1*
G04 Layer_Color=255*
%FSLAX25Y25*%
%MOIN*%
G70*
G04*
G04 #@! TF.SameCoordinates,B1EDFFF0-04F4-4B73-9F12-1C7DDB0DF417*
G04*
G04*
G04 #@! TF.FilePolarity,Positive*
G04*
G01*
G75*
%ADD13C,0.01000*%
%ADD14R,0.05512X0.05512*%
%ADD15R,0.04331X0.06693*%
%ADD16R,0.05512X0.05512*%
%ADD17R,0.06693X0.04331*%
%ADD18R,0.10984X0.11496*%
G04:AMPARAMS|DCode=19|XSize=85.59mil|YSize=22.97mil|CornerRadius=11.48mil|HoleSize=0mil|Usage=FLASHONLY|Rotation=0.000|XOffset=0mil|YOffset=0mil|HoleType=Round|Shape=RoundedRectangle|*
%AMROUNDEDRECTD19*
21,1,0.08559,0.00000,0,0,0.0*
21,1,0.06263,0.02297,0,0,0.0*
1,1,0.02297,0.03131,0.00000*
1,1,0.02297,-0.03131,0.00000*
1,1,0.02297,-0.03131,0.00000*
1,1,0.02297,0.03131,0.00000*
%
%ADD19ROUNDEDRECTD19*%
%ADD20R,0.08559X0.02297*%
%ADD36C,0.04134*%
%ADD37R,0.04134X0.04134*%
%ADD38R,0.05906X0.05906*%
%ADD39C,0.05906*%
%ADD40C,0.06102*%
%ADD41C,0.06299*%
%ADD42R,0.06299X0.06299*%
%ADD43R,0.04724X0.04724*%
%ADD44C,0.04724*%
%ADD45C,0.05000*%
D13*
X100500Y104000D02*
X526000D01*
X100500Y319000D02*
X526000D01*
Y104000D02*
Y319000D01*
X100500Y104000D02*
Y319000D01*
X164500Y295500D02*
Y298500D01*
X163000Y300000D02*
X164500Y298500D01*
X163000Y300000D02*
X190000D01*
X212000Y278000D01*
X239500D01*
X243000Y274500D01*
Y268500D02*
Y274500D01*
X237815Y263315D02*
X243000Y268500D01*
X237815Y263000D02*
Y263315D01*
X435913Y242913D02*
X442000Y249000D01*
X344500Y203413D02*
X346000D01*
X470500Y168000D02*
X477500Y161000D01*
X477778Y160564D01*
X478587Y159300D01*
X293200Y246800D02*
X296130D01*
X180400Y182000D02*
Y184500D01*
X210500Y176300D02*
Y180900D01*
X147500Y142315D02*
Y163000D01*
X159630Y177300D02*
X166200D01*
X314400Y227000D02*
X325000D01*
X459130Y112800D02*
X481900D01*
X438130Y119000D02*
X450200D01*
X459630Y153600D02*
X486600D01*
X475000Y188500D02*
X476500Y190000D01*
X159630Y194700D02*
X174400D01*
X199772Y249400D02*
X202212Y246959D01*
X199772Y249400D02*
X200300D01*
X192100D02*
X199772D01*
X374400Y223000D02*
Y232800D01*
X317700Y206177D02*
X323523Y212000D01*
X277492Y165969D02*
X317700Y206177D01*
Y206500D01*
Y186800D02*
Y206177D01*
X277492Y146592D02*
X317700Y186800D01*
X276500Y145600D02*
X277492Y146592D01*
Y165969D01*
Y145600D02*
Y146592D01*
X276500Y144608D02*
Y145600D01*
X260800Y238815D02*
X284715D01*
X221856D02*
X260800D01*
X403087Y213987D02*
Y217000D01*
Y120131D02*
Y213987D01*
X308100Y247000D02*
X312000D01*
X308100D02*
Y252000D01*
X221630Y165300D02*
X245100D01*
X221630Y172340D02*
Y175500D01*
Y166500D02*
Y172340D01*
X161130Y250000D02*
X169500D01*
X466973Y176913D02*
X470500D01*
X465887Y178000D02*
X466973Y176913D01*
X465887Y178000D02*
Y196913D01*
X442000Y220800D02*
X465887Y196913D01*
X442000Y220800D02*
Y249000D01*
X446500Y253500D01*
X478587Y159300D02*
X481500Y159913D01*
X475800Y159300D02*
X478587D01*
X470500Y168000D02*
Y176913D01*
X296130Y246800D02*
Y250000D01*
X293100Y246700D02*
X293200Y246800D01*
X293100Y224000D02*
Y246700D01*
Y224000D02*
X298100Y219000D01*
X330413D01*
X346000Y203413D01*
X349000D01*
X370287Y215913D02*
X373500D01*
X369200Y217000D02*
X370287Y215913D01*
X369200Y217000D02*
Y238613D01*
X373000Y242413D01*
X159630Y177300D02*
Y178500D01*
Y170230D02*
Y177300D01*
Y170230D02*
X167160Y162700D01*
X178000D01*
Y167000D01*
X177000Y237500D02*
X181486D01*
X182986Y236000D01*
Y224514D02*
Y236000D01*
Y224514D02*
X188500Y219000D01*
X166200Y177300D02*
X167900Y179000D01*
X436315Y167500D02*
Y178000D01*
X437630Y131670D02*
Y136000D01*
Y131670D02*
X439600Y129700D01*
X427000Y152100D02*
Y157500D01*
X425000Y150100D02*
X427000Y152100D01*
X281500Y124500D02*
X315500Y158500D01*
X168000Y232500D02*
X177000D01*
X158650Y223150D02*
X162800Y219000D01*
Y208000D02*
Y219000D01*
X157100Y202300D02*
X162800Y208000D01*
X151300Y202300D02*
X157100D01*
X149000Y200000D02*
X151300Y202300D01*
X149000Y193500D02*
Y200000D01*
X148500Y256500D02*
Y260000D01*
X151600Y263100D01*
X178400D01*
X192100Y249400D01*
X202212Y240951D02*
Y246959D01*
X198762Y237500D02*
X202212Y240951D01*
X195630Y237500D02*
X198762D01*
X188630Y167000D02*
Y174070D01*
X349000Y140200D02*
Y144000D01*
Y140200D02*
X353200Y136000D01*
X362800D01*
X366800Y140000D01*
Y209273D01*
X354464Y221608D02*
X366800Y209273D01*
X354464Y221608D02*
Y234264D01*
X369700Y249500D01*
X373000D01*
X373500Y223000D02*
X374400D01*
X338500Y221000D02*
X349000Y210500D01*
X289200Y252100D02*
X292000Y254900D01*
X289200Y243300D02*
Y252100D01*
X260800Y176692D02*
Y238815D01*
Y176692D02*
X275492Y162000D01*
Y147500D02*
Y162000D01*
X267900Y139908D02*
X275492Y147500D01*
X267900Y120900D02*
Y139908D01*
Y120900D02*
X304400D01*
X305500Y124500D01*
X158630Y276319D02*
Y277500D01*
Y276319D02*
X160296Y274654D01*
X186018D01*
X221856Y238815D01*
X284715D02*
X289200Y243300D01*
X292000Y254900D02*
X299800D01*
Y243047D02*
Y254900D01*
X295100Y238347D02*
X299800Y243047D01*
X295100Y228500D02*
Y238347D01*
Y228500D02*
X302600Y221000D01*
X338500D01*
X374000Y197500D02*
Y206900D01*
X275315Y245270D02*
X277100Y243485D01*
X275315Y245270D02*
Y250469D01*
X361400Y142200D02*
Y176300D01*
X340500Y197200D02*
X361400Y176300D01*
X386700Y240300D02*
X395900Y249500D01*
X196300Y254900D02*
X201000D01*
X204300Y251600D01*
Y233500D02*
Y251600D01*
X198300Y227500D02*
X204300Y233500D01*
X195630Y227500D02*
X198300D01*
X469000Y118800D02*
Y130913D01*
Y138000D02*
X476700D01*
X503700Y165000D01*
X516500D01*
X519500Y168000D01*
Y249500D01*
X518400Y250600D02*
X519500Y249500D01*
X498000Y250600D02*
X518400D01*
X496900Y249500D02*
X498000Y250600D01*
X496900Y248400D02*
Y249500D01*
X495500Y247000D02*
X496900Y248400D01*
X461500Y213913D02*
X468000D01*
X470000Y215913D01*
Y246500D01*
X513000Y200000D02*
X517500Y195500D01*
Y188000D02*
Y195500D01*
X514000Y184500D02*
X517500Y188000D01*
X499000Y184500D02*
X514000D01*
X481500Y167000D02*
X499000Y184500D01*
X476500Y190000D02*
X513000D01*
X475000Y188500D02*
Y246500D01*
X470500Y184000D02*
X475000Y188500D01*
X437600Y151200D02*
X437630Y151230D01*
Y157500D01*
X327500Y169000D02*
Y204913D01*
X322500Y164000D02*
X327500Y169000D01*
X149000Y172300D02*
Y178500D01*
X147500Y170800D02*
X149000Y172300D01*
X147500Y163000D02*
Y170800D01*
X147000Y142315D02*
X147500D01*
X210500Y176300D02*
X211000Y175800D01*
Y166500D02*
Y175800D01*
Y196000D02*
Y206000D01*
X210500Y195500D02*
X211000Y196000D01*
X210500Y185000D02*
Y195500D01*
X179000Y184500D02*
X180400D01*
Y182000D02*
X181500Y180900D01*
X210500D01*
Y185000D01*
X312000Y247000D02*
X316000Y251000D01*
Y257166D01*
X318000Y259166D01*
X410334D01*
X419500Y250000D01*
X347500Y249500D02*
Y254000D01*
X346400Y255100D02*
X347500Y254000D01*
X320400Y255100D02*
X346400D01*
X306030Y236400D02*
X312300D01*
X306000Y236370D02*
X306030Y236400D01*
X347500Y230000D02*
Y233800D01*
X343600Y237700D02*
X347500Y233800D01*
X343000Y204913D02*
X344500Y203413D01*
X327500Y204913D02*
X343000D01*
X495500Y218000D02*
Y247000D01*
X492413Y214913D02*
X495500Y218000D01*
X488500Y214913D02*
X492413D01*
X459630Y153600D02*
Y157000D01*
X486600Y153600D02*
X513000Y180000D01*
X449000Y137543D02*
Y143800D01*
X452400Y147200D01*
X455600Y213300D02*
X456213Y213913D01*
X461500D01*
X459130Y172000D02*
Y178000D01*
Y172000D02*
X461130Y170000D01*
X408400Y171000D02*
X426000Y188600D01*
X450500D01*
X455100Y184000D01*
Y153000D02*
Y184000D01*
Y153000D02*
X456400Y151700D01*
Y134857D02*
Y151700D01*
X452000Y130457D02*
X456400Y134857D01*
X449000Y130457D02*
X452000D01*
X371200Y194700D02*
X374000Y197500D01*
X369700Y194700D02*
X371200D01*
X369700Y126300D02*
Y194700D01*
X364000Y120600D02*
X369700Y126300D01*
X350000Y120600D02*
X364000D01*
X348500Y119100D02*
X350000Y120600D01*
X348500Y116000D02*
Y119100D01*
X346000Y223600D02*
X348500Y221100D01*
X338000Y223600D02*
X346000D01*
X335630Y225970D02*
X338000Y223600D01*
X335630Y225970D02*
Y230500D01*
X395900Y249500D02*
X399000D01*
X280000Y213300D02*
X313700D01*
X275500Y217800D02*
X280000Y213300D01*
X275500Y217800D02*
Y232000D01*
X350000Y172000D02*
Y175000D01*
X331500Y193500D02*
X350000Y175000D01*
X306000Y247000D02*
X308100D01*
X358130Y248230D02*
Y249500D01*
X352553Y242653D02*
X358130Y248230D01*
X338053Y242653D02*
X352553D01*
X333400Y238000D02*
X338053Y242653D01*
X366400Y256100D02*
X373000Y249500D01*
X355900Y256100D02*
X366400D01*
X353800Y254000D02*
X355900Y256100D01*
X353800Y246853D02*
Y254000D01*
X351600Y244653D02*
X353800Y246853D01*
X337977Y244653D02*
X351600D01*
X336630Y246000D02*
X337977Y244653D01*
X336630Y246000D02*
Y249500D01*
X448500Y106700D02*
Y113000D01*
Y171700D02*
Y178000D01*
Y171700D02*
X452700Y167500D01*
Y152100D02*
Y167500D01*
X450100Y152100D02*
X452700D01*
X444700Y146700D02*
X450100Y152100D01*
X444700Y128000D02*
Y146700D01*
X442400Y125700D02*
X444700Y128000D01*
X424000Y125700D02*
X442400D01*
X419700Y130000D02*
X424000Y125700D01*
X419700Y130000D02*
Y135100D01*
X489100Y120000D02*
X513000D01*
X481900Y112800D02*
X489100Y120000D01*
X459130Y112800D02*
Y113000D01*
X513000Y160000D02*
X517500Y155500D01*
Y138000D02*
Y155500D01*
X514800Y135300D02*
X517500Y138000D01*
X494300Y135300D02*
X514800D01*
X473800Y114800D02*
X494300Y135300D01*
X465000Y114800D02*
X473800D01*
X461900Y117900D02*
X465000Y114800D01*
X451300Y117900D02*
X461900D01*
X450200Y119000D02*
X451300Y117900D01*
X438130Y115500D02*
Y119000D01*
X325000Y227000D02*
Y230500D01*
X264870Y225730D02*
X264900Y225700D01*
X264870Y225730D02*
Y232000D01*
X285500Y250000D02*
Y263100D01*
X268500Y198300D02*
Y215256D01*
X388500Y171000D02*
Y175913D01*
X374000Y190413D02*
X388500Y175913D01*
X326000Y245300D02*
Y249500D01*
X324000Y243300D02*
X326000Y245300D01*
X303900Y243300D02*
X324000D01*
X299100Y238500D02*
X303900Y243300D01*
X299100Y236500D02*
Y238500D01*
X276500Y124500D02*
Y144608D01*
X277492Y145600D01*
X323523Y212000D02*
X327500D01*
X221630Y206000D02*
Y208530D01*
X222400Y209300D01*
Y235600D01*
X221000Y237000D02*
X222400Y235600D01*
X215500Y237000D02*
X221000D01*
X123000Y184500D02*
X124567Y186067D01*
Y186111D01*
X126523Y188067D01*
X173440D01*
X211743Y226370D01*
X215500D01*
X211000Y206000D02*
Y213300D01*
X220400Y222700D01*
Y230100D01*
X208200D02*
X220400D01*
X202900Y224800D02*
X208200Y230100D01*
X190000Y224800D02*
X202900D01*
X186900Y227900D02*
X190000Y224800D01*
X186900Y227900D02*
Y237000D01*
X181400Y242500D02*
X186900Y237000D01*
X177000Y242500D02*
X181400D01*
X400700Y211600D02*
X403087Y213987D01*
X368573Y211600D02*
X400700D01*
X358130Y222043D02*
X368573Y211600D01*
X358130Y222043D02*
Y230000D01*
X159630Y193500D02*
Y194700D01*
X174400D02*
X187000Y207300D01*
Y209500D01*
X148500Y206300D02*
Y212500D01*
X161130Y227500D02*
X177000D01*
X158630Y230000D02*
X161130Y227500D01*
X158630Y230000D02*
Y233500D01*
X182000Y209500D02*
Y222500D01*
X177000Y227500D02*
X182000Y222500D01*
X217570Y176400D02*
X221630Y172340D01*
X461500Y221000D02*
Y224400D01*
X465000Y227900D01*
X449000Y157000D02*
Y161900D01*
X448000Y162900D02*
X449000Y161900D01*
X420000Y162900D02*
X448000D01*
X414200Y157100D02*
X420000Y162900D01*
X414200Y126200D02*
Y157100D01*
X401500Y113500D02*
X414200Y126200D01*
X264685Y250469D02*
Y256130D01*
X247815Y273000D02*
X264685Y256130D01*
X419500Y242913D02*
X435913D01*
X133000Y184500D02*
X146500D01*
X149000Y182000D01*
X425685Y171715D02*
X425700Y171700D01*
X425685Y171715D02*
Y178000D01*
X385287Y217000D02*
X396000D01*
X384200Y215913D02*
X385287Y217000D01*
X373500Y215913D02*
X384200D01*
X513000Y200000D02*
Y234500D01*
X500500Y247000D02*
X513000Y234500D01*
X221630Y165300D02*
Y166500D01*
X245100Y165300D02*
X255656Y154744D01*
X268500D01*
X151500Y184500D02*
X179000D01*
X149000Y182000D02*
X151500Y184500D01*
X149000Y178500D02*
Y182000D01*
X427000Y129700D02*
Y136000D01*
X411300Y217913D02*
X419500D01*
X407913Y221300D02*
X411300Y217913D01*
X398800Y221300D02*
X407913D01*
X398800Y219800D02*
Y221300D01*
X396000Y217000D02*
X398800Y219800D01*
X427500Y109200D02*
Y115500D01*
X490500Y235500D02*
Y247000D01*
X488500Y233500D02*
X490500Y235500D01*
X488500Y222000D02*
Y233500D01*
X171900Y130500D02*
X174630D01*
X166600Y135800D02*
X171900Y130500D01*
X157515Y135800D02*
X166600D01*
X153400Y131685D02*
X157515Y135800D01*
X147000Y131685D02*
X153400D01*
X147500Y163000D02*
X158130D01*
X345000Y158500D02*
Y172000D01*
X344000Y157500D02*
X345000Y158500D01*
X344000Y144000D02*
Y157500D01*
Y130200D02*
Y144000D01*
X343500Y129700D02*
X344000Y130200D01*
X343500Y116000D02*
Y129700D01*
X322500Y154000D02*
Y164000D01*
X388500Y156200D02*
Y171000D01*
Y156200D02*
X389500Y155200D01*
Y140500D02*
Y155200D01*
Y128000D02*
Y140500D01*
Y128000D02*
X391500Y126000D01*
Y113500D02*
Y126000D01*
X419500Y225000D02*
Y242913D01*
Y217913D02*
Y225000D01*
X221630Y195700D02*
Y206000D01*
X221130Y195200D02*
X221630Y195700D01*
X221130Y185000D02*
Y195200D01*
Y176000D02*
Y185000D01*
Y176000D02*
X221630Y175500D01*
X129433Y180933D02*
X133000Y184500D01*
X120312Y180933D02*
X129433D01*
X119433Y181812D02*
X120312Y180933D01*
X119433Y181812D02*
Y220933D01*
X122500Y224000D01*
X109000Y237500D02*
X122500Y224000D01*
X109000Y237500D02*
Y271000D01*
X125500Y287500D01*
X183067Y127654D02*
X197500Y113220D01*
X176295Y127654D02*
X183067D01*
X174630Y129319D02*
X176295Y127654D01*
X174630Y129319D02*
Y130500D01*
X120000Y133500D02*
X121815Y131685D01*
X147000D01*
X120000Y133500D02*
X128815Y142315D01*
X147000D01*
X399500Y242913D02*
X419500D01*
X399000Y242413D02*
X399500Y242913D01*
X173869Y237500D02*
X177000D01*
X171220Y240148D02*
X173869Y237500D01*
X171220Y240148D02*
Y244270D01*
X172099Y245148D01*
X182960D01*
X189091Y239017D01*
Y233260D02*
Y239017D01*
Y233260D02*
X189851Y232500D01*
X195630D01*
X148000Y233500D02*
Y249367D01*
X144335Y253032D02*
X148000Y249367D01*
X144335Y253032D02*
Y278665D01*
X125500Y297500D02*
X144335Y278665D01*
X120000Y123500D02*
X162000D01*
X164000Y125500D01*
Y130500D01*
X122500Y244000D02*
X128811D01*
X159130Y213681D01*
Y212500D02*
Y213681D01*
X396500Y113500D02*
Y113544D01*
X403087Y120131D01*
X159130Y252000D02*
Y256500D01*
Y252000D02*
X161130Y250000D01*
X185179D02*
X192679Y242500D01*
X195630D01*
X158630Y233500D02*
Y239130D01*
X169500Y250000D01*
X185179D01*
X147500Y278000D02*
Y295000D01*
X168500D01*
X221500Y242000D01*
X246630D01*
X247815Y240815D01*
Y253000D01*
X355500Y286595D02*
Y280597D01*
X359499D01*
X365497Y286595D02*
X361498D01*
Y280597D01*
X365497D01*
X361498Y283596D02*
X363497D01*
X367496Y286595D02*
Y280597D01*
X370495D01*
X371495Y281597D01*
Y285595D01*
X370495Y286595D01*
X367496D01*
X373494D02*
X375494D01*
X374494D01*
Y280597D01*
X373494D01*
X375494D01*
X378493Y286595D02*
X382491D01*
X380492D01*
Y280597D01*
X384491D02*
Y286595D01*
X387490D01*
X388489Y285595D01*
Y283596D01*
X387490Y282596D01*
X384491D01*
X386490D02*
X388489Y280597D01*
X393488Y286595D02*
X391488D01*
X390489Y285595D01*
Y281597D01*
X391488Y280597D01*
X393488D01*
X394487Y281597D01*
Y285595D01*
X393488Y286595D01*
X396487Y280597D02*
Y286595D01*
X400485Y280597D01*
Y286595D01*
X359499Y276997D02*
X357499D01*
X358499D01*
Y271999D01*
X357499Y270999D01*
X356500D01*
X355500Y271999D01*
X362498Y274998D02*
X364497D01*
X365497Y273998D01*
Y270999D01*
X362498D01*
X361498Y271999D01*
X362498Y272999D01*
X365497D01*
X367496Y270999D02*
Y274998D01*
X370495D01*
X371495Y273998D01*
Y270999D01*
X379492Y276997D02*
Y270999D01*
Y273998D01*
X383491D01*
Y276997D01*
Y270999D01*
X386490Y274998D02*
X388489D01*
X389489Y273998D01*
Y270999D01*
X386490D01*
X385490Y271999D01*
X386490Y272999D01*
X389489D01*
X391488Y270999D02*
Y274998D01*
X394487D01*
X395487Y273998D01*
Y270999D01*
X400485D02*
X398486D01*
X397486Y271999D01*
Y273998D01*
X398486Y274998D01*
X400485D01*
X401485Y273998D01*
Y272999D01*
X397486D01*
X405484Y269000D02*
X406484D01*
X407483Y270000D01*
Y274998D01*
X404484D01*
X403484Y273998D01*
Y271999D01*
X404484Y270999D01*
X407483D01*
X409482Y274998D02*
Y270999D01*
Y272999D01*
X410482Y273998D01*
X411482Y274998D01*
X412482D01*
X416480D02*
X418480D01*
X419479Y273998D01*
Y270999D01*
X416480D01*
X415481Y271999D01*
X416480Y272999D01*
X419479D01*
X422478Y274998D02*
X424478D01*
X425477Y273998D01*
Y270999D01*
X422478D01*
X421479Y271999D01*
X422478Y272999D01*
X425477D01*
X428476Y270999D02*
Y275998D01*
Y273998D01*
X427477D01*
X429476D01*
X428476D01*
Y275998D01*
X429476Y276997D01*
D14*
X488500Y214913D02*
D03*
Y222000D02*
D03*
X461500Y213913D02*
D03*
Y221000D02*
D03*
X481500Y159913D02*
D03*
Y167000D02*
D03*
X470500Y176913D02*
D03*
Y184000D02*
D03*
X469000Y130913D02*
D03*
Y138000D02*
D03*
X449000Y130457D02*
D03*
Y137543D02*
D03*
X419500Y217913D02*
D03*
Y225000D02*
D03*
Y242913D02*
D03*
Y250000D02*
D03*
X399000Y242413D02*
D03*
Y249500D02*
D03*
X374000Y190413D02*
D03*
Y197500D02*
D03*
X349000Y203413D02*
D03*
Y210500D02*
D03*
X327500Y204913D02*
D03*
Y212000D02*
D03*
X373500Y215913D02*
D03*
Y223000D02*
D03*
X373000Y242413D02*
D03*
Y249500D02*
D03*
D15*
X459130Y113000D02*
D03*
X448500D02*
D03*
X459630Y157000D02*
D03*
X449000D02*
D03*
X459130Y178000D02*
D03*
X448500D02*
D03*
X438130Y115500D02*
D03*
X427500D02*
D03*
X437630Y136000D02*
D03*
X427000D02*
D03*
X437630Y157500D02*
D03*
X427000D02*
D03*
X436315Y178000D02*
D03*
X425685D02*
D03*
X358130Y230000D02*
D03*
X347500D02*
D03*
X358130Y249500D02*
D03*
X347500D02*
D03*
X335630Y230500D02*
D03*
X325000D02*
D03*
X336630Y249500D02*
D03*
X326000D02*
D03*
X296130Y250000D02*
D03*
X285500D02*
D03*
X275500Y232000D02*
D03*
X264870D02*
D03*
X275315Y250469D02*
D03*
X264685D02*
D03*
X158630Y277500D02*
D03*
X148000D02*
D03*
X221630Y206000D02*
D03*
X211000D02*
D03*
X221130Y185000D02*
D03*
X210500D02*
D03*
X221630Y166500D02*
D03*
X211000D02*
D03*
X159130Y256500D02*
D03*
X148500D02*
D03*
X158630Y233500D02*
D03*
X148000D02*
D03*
X159130Y212500D02*
D03*
X148500D02*
D03*
X159630Y193500D02*
D03*
X149000D02*
D03*
X188630Y167000D02*
D03*
X178000D02*
D03*
X174630Y130500D02*
D03*
X164000D02*
D03*
X158130Y163000D02*
D03*
X147500D02*
D03*
X159630Y178500D02*
D03*
X149000D02*
D03*
D16*
X396000Y217000D02*
D03*
X403087D02*
D03*
D17*
X306000Y247000D02*
D03*
Y236370D02*
D03*
X215500Y237000D02*
D03*
Y226370D02*
D03*
X147000Y142315D02*
D03*
Y131685D02*
D03*
D18*
X268500Y154744D02*
D03*
Y215256D02*
D03*
D19*
X195630Y242500D02*
D03*
Y237500D02*
D03*
Y232500D02*
D03*
Y227500D02*
D03*
X177000D02*
D03*
Y232500D02*
D03*
Y237500D02*
D03*
D20*
Y242500D02*
D03*
D36*
X399500Y140500D02*
D03*
X394500D02*
D03*
X348500Y116000D02*
D03*
X353500D02*
D03*
X495500Y247000D02*
D03*
X500500D02*
D03*
X470000Y246500D02*
D03*
X475000D02*
D03*
X350000Y172000D02*
D03*
X355000D02*
D03*
X393500Y171000D02*
D03*
X398500D02*
D03*
X396500Y113500D02*
D03*
X401500D02*
D03*
X305500Y124500D02*
D03*
X310500D02*
D03*
X276500D02*
D03*
X281500D02*
D03*
X247000D02*
D03*
X252000D02*
D03*
X349000Y144000D02*
D03*
X354000D02*
D03*
X182000Y209500D02*
D03*
X187000D02*
D03*
X184000Y184500D02*
D03*
X189000D02*
D03*
X128000D02*
D03*
X133000D02*
D03*
D37*
X389500Y140500D02*
D03*
X343500Y116000D02*
D03*
X490500Y247000D02*
D03*
X465000Y246500D02*
D03*
X345000Y172000D02*
D03*
X388500Y171000D02*
D03*
X391500Y113500D02*
D03*
X300500Y124500D02*
D03*
X271500D02*
D03*
X242000D02*
D03*
X344000Y144000D02*
D03*
X177000Y209500D02*
D03*
X179000Y184500D02*
D03*
X123000D02*
D03*
D38*
X446500Y243500D02*
D03*
X513000Y120000D02*
D03*
X247815Y253000D02*
D03*
X322500Y154000D02*
D03*
X125500Y287500D02*
D03*
D39*
X446500Y253500D02*
D03*
X513000Y140000D02*
D03*
Y150000D02*
D03*
Y160000D02*
D03*
Y170000D02*
D03*
Y180000D02*
D03*
Y190000D02*
D03*
Y200000D02*
D03*
Y130000D02*
D03*
X237815Y293000D02*
D03*
X247815D02*
D03*
X237815Y283000D02*
D03*
X247815D02*
D03*
X237815Y273000D02*
D03*
X247815D02*
D03*
X237815Y263000D02*
D03*
X247815D02*
D03*
X237815Y253000D02*
D03*
X322500Y164000D02*
D03*
X125500Y297500D02*
D03*
D40*
X197500Y113220D02*
D03*
Y150780D02*
D03*
D41*
X122500Y224000D02*
D03*
Y234000D02*
D03*
D42*
Y244000D02*
D03*
D43*
X120000Y123500D02*
D03*
D44*
Y133500D02*
D03*
Y143500D02*
D03*
D45*
X475800Y159300D02*
D03*
X188500Y219000D02*
D03*
X167900Y179000D02*
D03*
X436315Y167500D02*
D03*
X439600Y129700D02*
D03*
X425000Y150100D02*
D03*
X315500Y158500D02*
D03*
X168000Y232500D02*
D03*
X158650Y223150D02*
D03*
X188630Y174070D02*
D03*
X200300Y249400D02*
D03*
X374400Y232800D02*
D03*
X374000Y206900D02*
D03*
X277100Y243485D02*
D03*
X361400Y142200D02*
D03*
X340500Y197200D02*
D03*
X196300Y254900D02*
D03*
X469000Y118800D02*
D03*
X437600Y151200D02*
D03*
X320400Y255100D02*
D03*
X312300Y236400D02*
D03*
X343600Y237700D02*
D03*
X452400Y147200D02*
D03*
X455600Y213300D02*
D03*
X461130Y170000D02*
D03*
X408400Y171000D02*
D03*
X348500Y221100D02*
D03*
X386700Y240300D02*
D03*
X313700Y213300D02*
D03*
X331500Y193500D02*
D03*
X308100Y252000D02*
D03*
X333400Y238000D02*
D03*
X317700Y206500D02*
D03*
X448500Y106700D02*
D03*
X419700Y135100D02*
D03*
X314400Y227000D02*
D03*
X264900Y225700D02*
D03*
X285500Y263100D02*
D03*
X268500Y198300D02*
D03*
X299100Y236500D02*
D03*
X148500Y206300D02*
D03*
X217570Y176400D02*
D03*
X465000Y227900D02*
D03*
X425700Y171700D02*
D03*
X427000Y129700D02*
D03*
X427500Y109200D02*
D03*
M02*
