G04*
G04 #@! TF.GenerationSoftware,Altium Limited,Altium Designer,21.1.1 (26)*
G04*
G04 Layer_Color=12632256*
%FSLAX25Y25*%
%MOIN*%
G70*
G04*
G04 #@! TF.SameCoordinates,B1EDFFF0-04F4-4B73-9F12-1C7DDB0DF417*
G04*
G04*
G04 #@! TF.FilePolarity,Positive*
G04*
G01*
G75*
%ADD36C,0.04134*%
%ADD37R,0.04134X0.04134*%
%ADD38R,0.05906X0.05906*%
%ADD39C,0.05906*%
%ADD40C,0.06102*%
%ADD41C,0.06299*%
%ADD42R,0.06299X0.06299*%
%ADD43R,0.04724X0.04724*%
%ADD44C,0.04724*%
D36*
X399500Y140500D02*
D03*
X394500D02*
D03*
X348500Y116000D02*
D03*
X353500D02*
D03*
X495500Y247000D02*
D03*
X500500D02*
D03*
X470000Y246500D02*
D03*
X475000D02*
D03*
X350000Y172000D02*
D03*
X355000D02*
D03*
X393500Y171000D02*
D03*
X398500D02*
D03*
X396500Y113500D02*
D03*
X401500D02*
D03*
X305500Y124500D02*
D03*
X310500D02*
D03*
X276500D02*
D03*
X281500D02*
D03*
X247000D02*
D03*
X252000D02*
D03*
X349000Y144000D02*
D03*
X354000D02*
D03*
X182000Y209500D02*
D03*
X187000D02*
D03*
X184000Y184500D02*
D03*
X189000D02*
D03*
X128000D02*
D03*
X133000D02*
D03*
D37*
X389500Y140500D02*
D03*
X343500Y116000D02*
D03*
X490500Y247000D02*
D03*
X465000Y246500D02*
D03*
X345000Y172000D02*
D03*
X388500Y171000D02*
D03*
X391500Y113500D02*
D03*
X300500Y124500D02*
D03*
X271500D02*
D03*
X242000D02*
D03*
X344000Y144000D02*
D03*
X177000Y209500D02*
D03*
X179000Y184500D02*
D03*
X123000D02*
D03*
D38*
X446500Y243500D02*
D03*
X513000Y120000D02*
D03*
X247815Y253000D02*
D03*
X322500Y154000D02*
D03*
X125500Y287500D02*
D03*
D39*
X446500Y253500D02*
D03*
X513000Y140000D02*
D03*
Y150000D02*
D03*
Y160000D02*
D03*
Y170000D02*
D03*
Y180000D02*
D03*
Y190000D02*
D03*
Y200000D02*
D03*
Y130000D02*
D03*
X237815Y293000D02*
D03*
X247815D02*
D03*
X237815Y283000D02*
D03*
X247815D02*
D03*
X237815Y273000D02*
D03*
X247815D02*
D03*
X237815Y263000D02*
D03*
X247815D02*
D03*
X237815Y253000D02*
D03*
X322500Y164000D02*
D03*
X125500Y297500D02*
D03*
D40*
X197500Y113220D02*
D03*
Y150780D02*
D03*
D41*
X122500Y224000D02*
D03*
Y234000D02*
D03*
D42*
Y244000D02*
D03*
D43*
X120000Y123500D02*
D03*
D44*
Y133500D02*
D03*
Y143500D02*
D03*
M02*
