G04*
G04 #@! TF.GenerationSoftware,Altium Limited,Altium Designer,21.1.1 (26)*
G04*
G04 Layer_Color=16711935*
%FSLAX25Y25*%
%MOIN*%
G70*
G04*
G04 #@! TF.SameCoordinates,B1EDFFF0-04F4-4B73-9F12-1C7DDB0DF417*
G04*
G04*
G04 #@! TF.FilePolarity,Positive*
G04*
G01*
G75*
%ADD11C,0.00787*%
G36*
X189609Y237603D02*
X189642Y237599D01*
X189675Y237595D01*
X189719Y237588D01*
X189762Y237581D01*
X189853Y237555D01*
X189952Y237519D01*
X190003Y237497D01*
X190050Y237472D01*
X190094Y237439D01*
X190137Y237402D01*
X190141Y237399D01*
X190148Y237395D01*
X190159Y237381D01*
X190174Y237366D01*
X190188Y237348D01*
X190206Y237322D01*
X190228Y237297D01*
X190250Y237268D01*
X190290Y237195D01*
X190326Y237111D01*
X190337Y237068D01*
X190348Y237017D01*
X190356Y236969D01*
X190359Y236915D01*
Y236907D01*
Y236885D01*
X190356Y236856D01*
X190348Y236816D01*
X190341Y236769D01*
X190326Y236718D01*
X190305Y236663D01*
X190279Y236609D01*
X190276Y236601D01*
X190265Y236583D01*
X190243Y236554D01*
X190214Y236514D01*
X190174Y236467D01*
X190119Y236409D01*
X190053Y236343D01*
X189977Y236274D01*
X189970Y236267D01*
X189952Y236252D01*
X189926Y236227D01*
X189893Y236197D01*
X189860Y236165D01*
X189828Y236132D01*
X189799Y236103D01*
X189777Y236074D01*
Y236070D01*
X189769Y236063D01*
X189762Y236048D01*
X189751Y236034D01*
X189740Y236012D01*
X189729Y235986D01*
X189708Y235928D01*
Y235925D01*
X189704Y235914D01*
X189700Y235892D01*
X189697Y235866D01*
X189693Y235830D01*
X189690Y235783D01*
X189686Y235728D01*
Y235666D01*
X189387D01*
Y235670D01*
Y235677D01*
Y235699D01*
X189384Y235728D01*
Y235757D01*
Y235761D01*
Y235764D01*
Y235786D01*
X189387Y235823D01*
X189391Y235866D01*
X189395Y235914D01*
X189406Y235965D01*
X189417Y236019D01*
X189435Y236070D01*
X189438Y236074D01*
X189442Y236088D01*
X189453Y236106D01*
X189464Y236132D01*
X189482Y236161D01*
X189504Y236197D01*
X189529Y236234D01*
X189558Y236270D01*
X189562Y236274D01*
X189569Y236285D01*
X189587Y236299D01*
X189609Y236325D01*
X189638Y236354D01*
X189679Y236390D01*
X189726Y236434D01*
X189780Y236485D01*
X189784D01*
X189788Y236492D01*
X189806Y236507D01*
X189835Y236536D01*
X189868Y236565D01*
X189904Y236601D01*
X189937Y236642D01*
X189970Y236678D01*
X189992Y236711D01*
X189995Y236714D01*
X189999Y236725D01*
X190006Y236743D01*
X190017Y236765D01*
X190028Y236794D01*
X190035Y236824D01*
X190039Y236860D01*
X190042Y236896D01*
Y236900D01*
Y236904D01*
X190039Y236926D01*
X190035Y236962D01*
X190024Y237002D01*
X190010Y237053D01*
X189984Y237104D01*
X189948Y237158D01*
X189901Y237213D01*
X189893Y237220D01*
X189875Y237235D01*
X189846Y237257D01*
X189806Y237282D01*
X189755Y237308D01*
X189697Y237330D01*
X189628Y237344D01*
X189555Y237351D01*
X189537D01*
X189522Y237348D01*
X189486Y237344D01*
X189438Y237337D01*
X189387Y237319D01*
X189333Y237297D01*
X189278Y237268D01*
X189224Y237224D01*
X189216Y237217D01*
X189202Y237202D01*
X189180Y237169D01*
X189154Y237129D01*
X189125Y237075D01*
X189096Y237009D01*
X189071Y236929D01*
X189052Y236838D01*
X188736Y236878D01*
Y236882D01*
X188739Y236893D01*
Y236911D01*
X188747Y236936D01*
X188750Y236965D01*
X188761Y236998D01*
X188768Y237035D01*
X188783Y237078D01*
X188816Y237162D01*
X188859Y237253D01*
X188914Y237340D01*
X188951Y237381D01*
X188987Y237417D01*
X188991Y237421D01*
X188998Y237424D01*
X189009Y237435D01*
X189027Y237446D01*
X189049Y237461D01*
X189074Y237475D01*
X189103Y237493D01*
X189136Y237511D01*
X189176Y237530D01*
X189220Y237548D01*
X189264Y237562D01*
X189314Y237577D01*
X189424Y237599D01*
X189486Y237603D01*
X189548Y237606D01*
X189584D01*
X189609Y237603D01*
D02*
G37*
G36*
X188295Y236106D02*
Y236103D01*
Y236088D01*
Y236070D01*
Y236045D01*
X188292Y236012D01*
Y235976D01*
X188288Y235932D01*
X188284Y235888D01*
X188274Y235790D01*
X188259Y235688D01*
X188237Y235590D01*
X188223Y235542D01*
X188208Y235499D01*
Y235495D01*
X188204Y235488D01*
X188197Y235477D01*
X188190Y235462D01*
X188168Y235422D01*
X188135Y235371D01*
X188092Y235313D01*
X188040Y235255D01*
X187975Y235193D01*
X187895Y235138D01*
X187891D01*
X187884Y235131D01*
X187873Y235127D01*
X187855Y235116D01*
X187833Y235105D01*
X187804Y235095D01*
X187775Y235084D01*
X187738Y235069D01*
X187698Y235055D01*
X187655Y235044D01*
X187607Y235033D01*
X187553Y235022D01*
X187498Y235015D01*
X187440Y235007D01*
X187309Y235000D01*
X187276D01*
X187251Y235004D01*
X187222D01*
X187185Y235007D01*
X187145Y235011D01*
X187105Y235015D01*
X187014Y235029D01*
X186916Y235051D01*
X186821Y235080D01*
X186730Y235120D01*
X186726D01*
X186719Y235127D01*
X186708Y235135D01*
X186694Y235142D01*
X186654Y235171D01*
X186606Y235211D01*
X186552Y235262D01*
X186501Y235320D01*
X186450Y235393D01*
X186410Y235473D01*
Y235477D01*
X186406Y235484D01*
X186402Y235499D01*
X186395Y235517D01*
X186388Y235539D01*
X186381Y235568D01*
X186370Y235601D01*
X186363Y235641D01*
X186355Y235684D01*
X186344Y235732D01*
X186337Y235783D01*
X186330Y235837D01*
X186322Y235899D01*
X186319Y235965D01*
X186315Y236034D01*
Y236106D01*
Y237562D01*
X186650D01*
Y236106D01*
Y236103D01*
Y236092D01*
Y236074D01*
Y236052D01*
X186654Y236026D01*
Y235994D01*
X186657Y235925D01*
X186665Y235844D01*
X186676Y235764D01*
X186690Y235688D01*
X186697Y235655D01*
X186708Y235622D01*
X186712Y235615D01*
X186719Y235597D01*
X186737Y235571D01*
X186759Y235535D01*
X186785Y235499D01*
X186821Y235459D01*
X186865Y235419D01*
X186916Y235386D01*
X186923Y235382D01*
X186941Y235371D01*
X186974Y235360D01*
X187018Y235346D01*
X187069Y235328D01*
X187134Y235317D01*
X187203Y235306D01*
X187280Y235302D01*
X187316D01*
X187338Y235306D01*
X187371D01*
X187404Y235309D01*
X187484Y235324D01*
X187571Y235342D01*
X187655Y235371D01*
X187735Y235411D01*
X187771Y235437D01*
X187804Y235466D01*
X187808Y235470D01*
X187811Y235473D01*
X187819Y235484D01*
X187829Y235499D01*
X187840Y235521D01*
X187855Y235542D01*
X187870Y235575D01*
X187884Y235608D01*
X187899Y235648D01*
X187909Y235695D01*
X187924Y235750D01*
X187935Y235808D01*
X187946Y235874D01*
X187953Y235943D01*
X187960Y236023D01*
Y236106D01*
Y237562D01*
X188295D01*
Y236106D01*
D02*
G37*
G36*
X189686Y235044D02*
X189333D01*
Y235397D01*
X189686D01*
Y235044D01*
D02*
G37*
D11*
X171736Y224370D02*
Y245630D01*
Y224370D02*
X200894D01*
Y245630D01*
X171736D02*
X200894D01*
M02*
