G04*
G04 #@! TF.GenerationSoftware,Altium Limited,Altium Designer,21.1.1 (26)*
G04*
G04 Layer_Color=8421504*
%FSLAX25Y25*%
%MOIN*%
G70*
G04*
G04 #@! TF.SameCoordinates,B1EDFFF0-04F4-4B73-9F12-1C7DDB0DF417*
G04*
G04*
G04 #@! TF.FilePolarity,Positive*
G04*
G01*
G75*
%ADD14R,0.05512X0.05512*%
%ADD15R,0.04331X0.06693*%
%ADD16R,0.05512X0.05512*%
%ADD17R,0.06693X0.04331*%
%ADD18R,0.10984X0.11496*%
G04:AMPARAMS|DCode=19|XSize=85.59mil|YSize=22.97mil|CornerRadius=11.48mil|HoleSize=0mil|Usage=FLASHONLY|Rotation=0.000|XOffset=0mil|YOffset=0mil|HoleType=Round|Shape=RoundedRectangle|*
%AMROUNDEDRECTD19*
21,1,0.08559,0.00000,0,0,0.0*
21,1,0.06263,0.02297,0,0,0.0*
1,1,0.02297,0.03131,0.00000*
1,1,0.02297,-0.03131,0.00000*
1,1,0.02297,-0.03131,0.00000*
1,1,0.02297,0.03131,0.00000*
%
%ADD19ROUNDEDRECTD19*%
%ADD20R,0.08559X0.02297*%
D14*
X488500Y214913D02*
D03*
Y222000D02*
D03*
X461500Y213913D02*
D03*
Y221000D02*
D03*
X481500Y159913D02*
D03*
Y167000D02*
D03*
X470500Y176913D02*
D03*
Y184000D02*
D03*
X469000Y130913D02*
D03*
Y138000D02*
D03*
X449000Y130457D02*
D03*
Y137543D02*
D03*
X419500Y217913D02*
D03*
Y225000D02*
D03*
Y242913D02*
D03*
Y250000D02*
D03*
X399000Y242413D02*
D03*
Y249500D02*
D03*
X374000Y190413D02*
D03*
Y197500D02*
D03*
X349000Y203413D02*
D03*
Y210500D02*
D03*
X327500Y204913D02*
D03*
Y212000D02*
D03*
X373500Y215913D02*
D03*
Y223000D02*
D03*
X373000Y242413D02*
D03*
Y249500D02*
D03*
D15*
X459130Y113000D02*
D03*
X448500D02*
D03*
X459630Y157000D02*
D03*
X449000D02*
D03*
X459130Y178000D02*
D03*
X448500D02*
D03*
X438130Y115500D02*
D03*
X427500D02*
D03*
X437630Y136000D02*
D03*
X427000D02*
D03*
X437630Y157500D02*
D03*
X427000D02*
D03*
X436315Y178000D02*
D03*
X425685D02*
D03*
X358130Y230000D02*
D03*
X347500D02*
D03*
X358130Y249500D02*
D03*
X347500D02*
D03*
X335630Y230500D02*
D03*
X325000D02*
D03*
X336630Y249500D02*
D03*
X326000D02*
D03*
X296130Y250000D02*
D03*
X285500D02*
D03*
X275500Y232000D02*
D03*
X264870D02*
D03*
X275315Y250469D02*
D03*
X264685D02*
D03*
X158630Y277500D02*
D03*
X148000D02*
D03*
X221630Y206000D02*
D03*
X211000D02*
D03*
X221130Y185000D02*
D03*
X210500D02*
D03*
X221630Y166500D02*
D03*
X211000D02*
D03*
X159130Y256500D02*
D03*
X148500D02*
D03*
X158630Y233500D02*
D03*
X148000D02*
D03*
X159130Y212500D02*
D03*
X148500D02*
D03*
X159630Y193500D02*
D03*
X149000D02*
D03*
X188630Y167000D02*
D03*
X178000D02*
D03*
X174630Y130500D02*
D03*
X164000D02*
D03*
X158130Y163000D02*
D03*
X147500D02*
D03*
X159630Y178500D02*
D03*
X149000D02*
D03*
D16*
X396000Y217000D02*
D03*
X403087D02*
D03*
D17*
X306000Y247000D02*
D03*
Y236370D02*
D03*
X215500Y237000D02*
D03*
Y226370D02*
D03*
X147000Y142315D02*
D03*
Y131685D02*
D03*
D18*
X268500Y154744D02*
D03*
Y215256D02*
D03*
D19*
X195630Y242500D02*
D03*
Y237500D02*
D03*
Y232500D02*
D03*
Y227500D02*
D03*
X177000D02*
D03*
Y232500D02*
D03*
Y237500D02*
D03*
D20*
Y242500D02*
D03*
M02*
