G04*
G04 #@! TF.GenerationSoftware,Altium Limited,Altium Designer,21.1.1 (26)*
G04*
G04 Layer_Color=8388736*
%FSLAX25Y25*%
%MOIN*%
G70*
G04*
G04 #@! TF.SameCoordinates,B1EDFFF0-04F4-4B73-9F12-1C7DDB0DF417*
G04*
G04*
G04 #@! TF.FilePolarity,Negative*
G04*
G01*
G75*
G04:AMPARAMS|DCode=19|XSize=85.59mil|YSize=22.97mil|CornerRadius=11.48mil|HoleSize=0mil|Usage=FLASHONLY|Rotation=0.000|XOffset=0mil|YOffset=0mil|HoleType=Round|Shape=RoundedRectangle|*
%AMROUNDEDRECTD19*
21,1,0.08559,0.00000,0,0,0.0*
21,1,0.06263,0.02297,0,0,0.0*
1,1,0.02297,0.03131,0.00000*
1,1,0.02297,-0.03131,0.00000*
1,1,0.02297,-0.03131,0.00000*
1,1,0.02297,0.03131,0.00000*
%
%ADD19ROUNDEDRECTD19*%
%ADD20R,0.08559X0.02297*%
%ADD21R,0.06312X0.06312*%
%ADD22R,0.05131X0.07493*%
%ADD23R,0.06312X0.06312*%
%ADD24R,0.07493X0.05131*%
%ADD25R,0.11784X0.12296*%
%ADD26C,0.04934*%
%ADD27R,0.04934X0.04934*%
%ADD28R,0.06706X0.06706*%
%ADD29C,0.06706*%
%ADD30C,0.06902*%
%ADD31C,0.07099*%
%ADD32R,0.07099X0.07099*%
%ADD33R,0.05524X0.05524*%
%ADD34C,0.05524*%
%ADD35C,0.05800*%
D19*
X195630Y242500D02*
D03*
Y237500D02*
D03*
Y232500D02*
D03*
Y227500D02*
D03*
X177000D02*
D03*
Y232500D02*
D03*
Y237500D02*
D03*
D20*
Y242500D02*
D03*
D21*
X488500Y214913D02*
D03*
Y222000D02*
D03*
X461500Y213913D02*
D03*
Y221000D02*
D03*
X481500Y159913D02*
D03*
Y167000D02*
D03*
X470500Y176913D02*
D03*
Y184000D02*
D03*
X469000Y130913D02*
D03*
Y138000D02*
D03*
X449000Y130457D02*
D03*
Y137543D02*
D03*
X419500Y217913D02*
D03*
Y225000D02*
D03*
Y242913D02*
D03*
Y250000D02*
D03*
X399000Y242413D02*
D03*
Y249500D02*
D03*
X374000Y190413D02*
D03*
Y197500D02*
D03*
X349000Y203413D02*
D03*
Y210500D02*
D03*
X327500Y204913D02*
D03*
Y212000D02*
D03*
X373500Y215913D02*
D03*
Y223000D02*
D03*
X373000Y242413D02*
D03*
Y249500D02*
D03*
D22*
X459130Y113000D02*
D03*
X448500D02*
D03*
X459630Y157000D02*
D03*
X449000D02*
D03*
X459130Y178000D02*
D03*
X448500D02*
D03*
X438130Y115500D02*
D03*
X427500D02*
D03*
X437630Y136000D02*
D03*
X427000D02*
D03*
X437630Y157500D02*
D03*
X427000D02*
D03*
X436315Y178000D02*
D03*
X425685D02*
D03*
X358130Y230000D02*
D03*
X347500D02*
D03*
X358130Y249500D02*
D03*
X347500D02*
D03*
X335630Y230500D02*
D03*
X325000D02*
D03*
X336630Y249500D02*
D03*
X326000D02*
D03*
X296130Y250000D02*
D03*
X285500D02*
D03*
X275500Y232000D02*
D03*
X264870D02*
D03*
X275315Y250469D02*
D03*
X264685D02*
D03*
X158630Y277500D02*
D03*
X148000D02*
D03*
X221630Y206000D02*
D03*
X211000D02*
D03*
X221130Y185000D02*
D03*
X210500D02*
D03*
X221630Y166500D02*
D03*
X211000D02*
D03*
X159130Y256500D02*
D03*
X148500D02*
D03*
X158630Y233500D02*
D03*
X148000D02*
D03*
X159130Y212500D02*
D03*
X148500D02*
D03*
X159630Y193500D02*
D03*
X149000D02*
D03*
X188630Y167000D02*
D03*
X178000D02*
D03*
X174630Y130500D02*
D03*
X164000D02*
D03*
X158130Y163000D02*
D03*
X147500D02*
D03*
X159630Y178500D02*
D03*
X149000D02*
D03*
D23*
X396000Y217000D02*
D03*
X403087D02*
D03*
D24*
X306000Y247000D02*
D03*
Y236370D02*
D03*
X215500Y237000D02*
D03*
Y226370D02*
D03*
X147000Y142315D02*
D03*
Y131685D02*
D03*
D25*
X268500Y154744D02*
D03*
Y215256D02*
D03*
D26*
X399500Y140500D02*
D03*
X394500D02*
D03*
X348500Y116000D02*
D03*
X353500D02*
D03*
X495500Y247000D02*
D03*
X500500D02*
D03*
X470000Y246500D02*
D03*
X475000D02*
D03*
X350000Y172000D02*
D03*
X355000D02*
D03*
X393500Y171000D02*
D03*
X398500D02*
D03*
X396500Y113500D02*
D03*
X401500D02*
D03*
X305500Y124500D02*
D03*
X310500D02*
D03*
X276500D02*
D03*
X281500D02*
D03*
X247000D02*
D03*
X252000D02*
D03*
X349000Y144000D02*
D03*
X354000D02*
D03*
X182000Y209500D02*
D03*
X187000D02*
D03*
X184000Y184500D02*
D03*
X189000D02*
D03*
X128000D02*
D03*
X133000D02*
D03*
D27*
X389500Y140500D02*
D03*
X343500Y116000D02*
D03*
X490500Y247000D02*
D03*
X465000Y246500D02*
D03*
X345000Y172000D02*
D03*
X388500Y171000D02*
D03*
X391500Y113500D02*
D03*
X300500Y124500D02*
D03*
X271500D02*
D03*
X242000D02*
D03*
X344000Y144000D02*
D03*
X177000Y209500D02*
D03*
X179000Y184500D02*
D03*
X123000D02*
D03*
D28*
X446500Y243500D02*
D03*
X513000Y120000D02*
D03*
X247815Y253000D02*
D03*
X322500Y154000D02*
D03*
X125500Y287500D02*
D03*
D29*
X446500Y253500D02*
D03*
X513000Y140000D02*
D03*
Y150000D02*
D03*
Y160000D02*
D03*
Y170000D02*
D03*
Y180000D02*
D03*
Y190000D02*
D03*
Y200000D02*
D03*
Y130000D02*
D03*
X237815Y293000D02*
D03*
X247815D02*
D03*
X237815Y283000D02*
D03*
X247815D02*
D03*
X237815Y273000D02*
D03*
X247815D02*
D03*
X237815Y263000D02*
D03*
X247815D02*
D03*
X237815Y253000D02*
D03*
X322500Y164000D02*
D03*
X125500Y297500D02*
D03*
D30*
X197500Y113220D02*
D03*
Y150780D02*
D03*
D31*
X122500Y224000D02*
D03*
Y234000D02*
D03*
D32*
Y244000D02*
D03*
D33*
X120000Y123500D02*
D03*
D34*
Y133500D02*
D03*
Y143500D02*
D03*
D35*
X475800Y159300D02*
D03*
X188500Y219000D02*
D03*
X167900Y179000D02*
D03*
X436315Y167500D02*
D03*
X439600Y129700D02*
D03*
X425000Y150100D02*
D03*
X315500Y158500D02*
D03*
X168000Y232500D02*
D03*
X158650Y223150D02*
D03*
X188630Y174070D02*
D03*
X200300Y249400D02*
D03*
X374400Y232800D02*
D03*
X374000Y206900D02*
D03*
X277100Y243485D02*
D03*
X361400Y142200D02*
D03*
X340500Y197200D02*
D03*
X196300Y254900D02*
D03*
X469000Y118800D02*
D03*
X437600Y151200D02*
D03*
X320400Y255100D02*
D03*
X312300Y236400D02*
D03*
X343600Y237700D02*
D03*
X452400Y147200D02*
D03*
X455600Y213300D02*
D03*
X461130Y170000D02*
D03*
X408400Y171000D02*
D03*
X348500Y221100D02*
D03*
X386700Y240300D02*
D03*
X313700Y213300D02*
D03*
X331500Y193500D02*
D03*
X308100Y252000D02*
D03*
X333400Y238000D02*
D03*
X317700Y206500D02*
D03*
X448500Y106700D02*
D03*
X419700Y135100D02*
D03*
X314400Y227000D02*
D03*
X264900Y225700D02*
D03*
X285500Y263100D02*
D03*
X268500Y198300D02*
D03*
X299100Y236500D02*
D03*
X148500Y206300D02*
D03*
X217570Y176400D02*
D03*
X465000Y227900D02*
D03*
X425700Y171700D02*
D03*
X427000Y129700D02*
D03*
X427500Y109200D02*
D03*
M02*
