%FSTAX23Y23*%
%MOIN*%
%SFA1B1*%

%IPPOS*%
%AMD19*
4,1,8,0.031300,0.011500,-0.031300,0.011500,-0.042800,0.000000,-0.042800,0.000000,-0.031300,-0.011500,0.031300,-0.011500,0.042800,0.000000,0.042800,0.000000,0.031300,0.011500,0.0*
1,1,0.022960,0.031300,0.000000*
1,1,0.022960,-0.031300,0.000000*
1,1,0.022960,-0.031300,0.000000*
1,1,0.022960,0.031300,0.000000*
%
%ADD13C,0.010000*%
%ADD14R,0.055120X0.055120*%
%ADD15R,0.043310X0.066930*%
%ADD16R,0.055120X0.055120*%
%ADD17R,0.066930X0.043310*%
%ADD18R,0.109840X0.114960*%
G04~CAMADD=19~8~0.0~0.0~855.9~229.7~114.8~0.0~15~0.0~0.0~0.0~0.0~0~0.0~0.0~0.0~0.0~0~0.0~0.0~0.0~0.0~855.9~229.7*
%ADD19D19*%
%ADD20R,0.085590X0.022970*%
%ADD36C,0.041340*%
%ADD37R,0.041340X0.041340*%
%ADD38R,0.059060X0.059060*%
%ADD39C,0.059060*%
%ADD40C,0.061020*%
%ADD41C,0.062990*%
%ADD42R,0.062990X0.062990*%
%ADD43R,0.047240X0.047240*%
%ADD44C,0.047240*%
%ADD45C,0.050000*%
%LNpcb1-1*%
%LPD*%
G54D13*
X01005Y0104D02*
X0526D01*
X01005Y0319D02*
X0526D01*
Y0104D02*
Y0319D01*
X01005Y0104D02*
Y0319D01*
X01645Y02955D02*
Y02985D01*
X0163Y03D02*
X01645Y02985D01*
X0163Y03D02*
X019D01*
X0212Y0278*
X02395*
X0243Y02745*
Y02685D02*
Y02745D01*
X02378Y02633D02*
X0243Y02685D01*
X02378Y0263D02*
Y02633D01*
X04359Y02429D02*
X0442Y0249D01*
X03445Y02034D02*
X0346D01*
X04705Y0168D02*
X04775Y0161D01*
X04777Y01605*
X04785Y01593*
X02932Y02468D02*
X02961D01*
X01804Y0182D02*
Y01845D01*
X02105Y01763D02*
Y01809D01*
X01475Y01423D02*
Y0163D01*
X01596Y01773D02*
X01662D01*
X03144Y0227D02*
X0325D01*
X04591Y01128D02*
X04819D01*
X04381Y0119D02*
X04502D01*
X04596Y01536D02*
X04866D01*
X0475Y01885D02*
X04765Y019D01*
X01596Y01947D02*
X01744D01*
X01997Y02494D02*
X02022Y02469D01*
X01997Y02494D02*
X02003D01*
X01921D02*
X01997D01*
X03744Y0223D02*
Y02328D01*
X03177Y02061D02*
X03235Y0212D01*
X02774Y01659D02*
X03177Y02061D01*
Y02065*
Y01868D02*
Y02061D01*
X02774Y01465D02*
X03177Y01868D01*
X02765Y01456D02*
X02774Y01465D01*
Y01659*
Y01456D02*
Y01465D01*
X02765Y01446D02*
Y01456D01*
X02608Y02388D02*
X02847D01*
X02218D02*
X02608D01*
X0403Y02139D02*
Y0217D01*
Y01201D02*
Y02139D01*
X03081Y0247D02*
X0312D01*
X03081D02*
Y0252D01*
X02216Y01653D02*
X02451D01*
X02216Y01723D02*
Y01755D01*
Y01665D02*
Y01723D01*
X01611Y025D02*
X01695D01*
X04669Y01769D02*
X04705D01*
X04658Y0178D02*
X04669Y01769D01*
X04658Y0178D02*
Y01969D01*
X0442Y02208D02*
X04658Y01969D01*
X0442Y02208D02*
Y0249D01*
X04465Y02535*
X04785Y01593D02*
X04815Y01599D01*
X04758Y01593D02*
X04785D01*
X04705Y0168D02*
Y01769D01*
X02961Y02468D02*
Y025D01*
X02931Y02467D02*
X02932Y02468D01*
X02931Y0224D02*
Y02467D01*
Y0224D02*
X02981Y0219D01*
X03304*
X0346Y02034*
X0349*
X03702Y02159D02*
X03735D01*
X03692Y0217D02*
X03702Y02159D01*
X03692Y0217D02*
Y02386D01*
X0373Y02424*
X01596Y01773D02*
Y01785D01*
Y01702D02*
Y01773D01*
Y01702D02*
X01671Y01627D01*
X0178*
Y0167*
X0177Y02375D02*
X01814D01*
X01829Y0236*
Y02245D02*
Y0236D01*
Y02245D02*
X01885Y0219D01*
X01662Y01773D02*
X01679Y0179D01*
X04363Y01675D02*
Y0178D01*
X04376Y01316D02*
Y0136D01*
Y01316D02*
X04396Y01297D01*
X0427Y01521D02*
Y01575D01*
X0425Y01501D02*
X0427Y01521D01*
X02815Y01245D02*
X03155Y01585D01*
X0168Y02325D02*
X0177D01*
X01586Y02231D02*
X01628Y0219D01*
Y0208D02*
Y0219D01*
X01571Y02023D02*
X01628Y0208D01*
X01513Y02023D02*
X01571D01*
X0149Y02D02*
X01513Y02023D01*
X0149Y01935D02*
Y02D01*
X01485Y02565D02*
Y026D01*
X01516Y02631*
X01784*
X01921Y02494*
X02022Y02409D02*
Y02469D01*
X01987Y02375D02*
X02022Y02409D01*
X01956Y02375D02*
X01987D01*
X01886Y0167D02*
Y0174D01*
X0349Y01402D02*
Y0144D01*
Y01402D02*
X03532Y0136D01*
X03628*
X03668Y014*
Y02092*
X03544Y02216D02*
X03668Y02092D01*
X03544Y02216D02*
Y02342D01*
X03697Y02495*
X0373*
X03735Y0223D02*
X03744D01*
X03385Y0221D02*
X0349Y02105D01*
X02892Y02521D02*
X0292Y02549D01*
X02892Y02433D02*
Y02521D01*
X02608Y01766D02*
Y02388D01*
Y01766D02*
X02754Y0162D01*
Y01475D02*
Y0162D01*
X02679Y01399D02*
X02754Y01475D01*
X02679Y01209D02*
Y01399D01*
Y01209D02*
X03044D01*
X03055Y01245*
X01586Y02763D02*
Y02775D01*
Y02763D02*
X01602Y02746D01*
X0186*
X02218Y02388*
X02847D02*
X02892Y02433D01*
X0292Y02549D02*
X02998D01*
Y0243D02*
Y02549D01*
X02951Y02383D02*
X02998Y0243D01*
X02951Y02285D02*
Y02383D01*
Y02285D02*
X03026Y0221D01*
X03385*
X0374Y01975D02*
Y02069D01*
X02753Y02452D02*
X02771Y02434D01*
X02753Y02452D02*
Y02504D01*
X03614Y01422D02*
Y01763D01*
X03405Y01972D02*
X03614Y01763D01*
X03867Y02403D02*
X03959Y02495D01*
X01963Y02549D02*
X0201D01*
X02043Y02516*
Y02335D02*
Y02516D01*
X01983Y02275D02*
X02043Y02335D01*
X01956Y02275D02*
X01983D01*
X0469Y01188D02*
Y01309D01*
Y0138D02*
X04767D01*
X05037Y0165*
X05165*
X05195Y0168*
Y02495*
X05184Y02506D02*
X05195Y02495D01*
X0498Y02506D02*
X05184D01*
X04969Y02495D02*
X0498Y02506D01*
X04969Y02484D02*
Y02495D01*
X04955Y0247D02*
X04969Y02484D01*
X04615Y02139D02*
X0468D01*
X047Y02159*
Y02465*
X0513Y02D02*
X05175Y01955D01*
Y0188D02*
Y01955D01*
X0514Y01845D02*
X05175Y0188D01*
X0499Y01845D02*
X0514D01*
X04815Y0167D02*
X0499Y01845D01*
X04765Y019D02*
X0513D01*
X0475Y01885D02*
Y02465D01*
X04705Y0184D02*
X0475Y01885D01*
X04376Y01512D02*
X04376Y01512D01*
Y01575*
X03275Y0169D02*
Y02049D01*
X03225Y0164D02*
X03275Y0169D01*
X0149Y01723D02*
Y01785D01*
X01475Y01708D02*
X0149Y01723D01*
X01475Y0163D02*
Y01708D01*
X0147Y01423D02*
X01475D01*
X02105Y01763D02*
X0211Y01758D01*
Y01665D02*
Y01758D01*
Y0196D02*
Y0206D01*
X02105Y01955D02*
X0211Y0196D01*
X02105Y0185D02*
Y01955D01*
X0179Y01845D02*
X01804D01*
Y0182D02*
X01815Y01809D01*
X02105*
Y0185*
X0312Y0247D02*
X0316Y0251D01*
Y02571*
X0318Y02591*
X04103*
X04195Y025*
X03475Y02495D02*
Y0254D01*
X03464Y02551D02*
X03475Y0254D01*
X03204Y02551D02*
X03464D01*
X0306Y02364D02*
X03123D01*
X0306Y02363D02*
X0306Y02364D01*
X03475Y023D02*
Y02338D01*
X03436Y02377D02*
X03475Y02338D01*
X0343Y02049D02*
X03445Y02034D01*
X03275Y02049D02*
X0343D01*
X04955Y0218D02*
Y0247D01*
X04924Y02149D02*
X04955Y0218D01*
X04885Y02149D02*
X04924D01*
X04596Y01536D02*
Y0157D01*
X04866Y01536D02*
X0513Y018D01*
X0449Y01375D02*
Y01438D01*
X04524Y01472*
X04556Y02133D02*
X04562Y02139D01*
X04615*
X04591Y0172D02*
Y0178D01*
Y0172D02*
X04611Y017D01*
X04084Y0171D02*
X0426Y01886D01*
X04505*
X04551Y0184*
Y0153D02*
Y0184D01*
Y0153D02*
X04564Y01517D01*
Y01348D02*
Y01517D01*
X0452Y01304D02*
X04564Y01348D01*
X0449Y01304D02*
X0452D01*
X03712Y01947D02*
X0374Y01975D01*
X03697Y01947D02*
X03712D01*
X03697Y01263D02*
Y01947D01*
X0364Y01206D02*
X03697Y01263D01*
X035Y01206D02*
X0364D01*
X03485Y01191D02*
X035Y01206D01*
X03485Y0116D02*
Y01191D01*
X0346Y02236D02*
X03485Y02211D01*
X0338Y02236D02*
X0346D01*
X03356Y02259D02*
X0338Y02236D01*
X03356Y02259D02*
Y02305D01*
X03959Y02495D02*
X0399D01*
X028Y02133D02*
X03137D01*
X02755Y02178D02*
X028Y02133D01*
X02755Y02178D02*
Y0232D01*
X035Y0172D02*
Y0175D01*
X03315Y01935D02*
X035Y0175D01*
X0306Y0247D02*
X03081D01*
X03581Y02482D02*
Y02495D01*
X03525Y02426D02*
X03581Y02482D01*
X0338Y02426D02*
X03525D01*
X03334Y0238D02*
X0338Y02426D01*
X03664Y02561D02*
X0373Y02495D01*
X03559Y02561D02*
X03664D01*
X03538Y0254D02*
X03559Y02561D01*
X03538Y02468D02*
Y0254D01*
X03516Y02446D02*
X03538Y02468D01*
X03379Y02446D02*
X03516D01*
X03366Y0246D02*
X03379Y02446D01*
X03366Y0246D02*
Y02495D01*
X04485Y01067D02*
Y0113D01*
Y01717D02*
Y0178D01*
Y01717D02*
X04527Y01675D01*
Y01521D02*
Y01675D01*
X04501Y01521D02*
X04527D01*
X04447Y01467D02*
X04501Y01521D01*
X04447Y0128D02*
Y01467D01*
X04424Y01257D02*
X04447Y0128D01*
X0424Y01257D02*
X04424D01*
X04197Y013D02*
X0424Y01257D01*
X04197Y013D02*
Y01351D01*
X04891Y012D02*
X0513D01*
X04819Y01128D02*
X04891Y012D01*
X04591Y01128D02*
Y0113D01*
X0513Y016D02*
X05175Y01555D01*
Y0138D02*
Y01555D01*
X05148Y01353D02*
X05175Y0138D01*
X04943Y01353D02*
X05148D01*
X04738Y01148D02*
X04943Y01353D01*
X0465Y01148D02*
X04738D01*
X04619Y01179D02*
X0465Y01148D01*
X04513Y01179D02*
X04619D01*
X04502Y0119D02*
X04513Y01179D01*
X04381Y01155D02*
Y0119D01*
X0325Y0227D02*
Y02305D01*
X02648Y02257D02*
X02649Y02257D01*
X02648Y02257D02*
Y0232D01*
X02855Y025D02*
Y02631D01*
X02685Y01983D02*
Y02152D01*
X03885Y0171D02*
Y01759D01*
X0374Y01904D02*
X03885Y01759D01*
X0326Y02453D02*
Y02495D01*
X0324Y02433D02*
X0326Y02453D01*
X03039Y02433D02*
X0324D01*
X02991Y02385D02*
X03039Y02433D01*
X02991Y02365D02*
Y02385D01*
X02765Y01245D02*
Y01446D01*
X02774Y01456*
X03235Y0212D02*
X03275D01*
X02216Y0206D02*
Y02085D01*
X02224Y02093*
Y02356*
X0221Y0237D02*
X02224Y02356D01*
X02155Y0237D02*
X0221D01*
X0123Y01845D02*
X01245Y0186D01*
Y01861*
X01265Y0188*
X01734*
X02117Y02263*
X02155*
X0211Y0206D02*
Y02133D01*
X02204Y02227*
Y02301*
X02082D02*
X02204D01*
X02029Y02248D02*
X02082Y02301D01*
X019Y02248D02*
X02029D01*
X01869Y02279D02*
X019Y02248D01*
X01869Y02279D02*
Y0237D01*
X01814Y02425D02*
X01869Y0237D01*
X0177Y02425D02*
X01814D01*
X04007Y02116D02*
X0403Y02139D01*
X03685Y02116D02*
X04007D01*
X03581Y0222D02*
X03685Y02116D01*
X03581Y0222D02*
Y023D01*
X01596Y01935D02*
Y01947D01*
X01744D02*
X0187Y02073D01*
Y02095*
X01485Y02063D02*
Y02125D01*
X01611Y02275D02*
X0177D01*
X01586Y023D02*
X01611Y02275D01*
X01586Y023D02*
Y02335D01*
X0182Y02095D02*
Y02225D01*
X0177Y02275D02*
X0182Y02225D01*
X02175Y01764D02*
X02216Y01723D01*
X04615Y0221D02*
Y02244D01*
X0465Y02279*
X0449Y0157D02*
Y01619D01*
X0448Y01629D02*
X0449Y01619D01*
X042Y01629D02*
X0448D01*
X04142Y01571D02*
X042Y01629D01*
X04142Y01262D02*
Y01571D01*
X04015Y01135D02*
X04142Y01262D01*
X02646Y02504D02*
Y02561D01*
X02478Y0273D02*
X02646Y02561D01*
X04195Y02429D02*
X04359D01*
X0133Y01845D02*
X01465D01*
X0149Y0182*
X04256Y01717D02*
X04257Y01717D01*
X04256Y01717D02*
Y0178D01*
X03852Y0217D02*
X0396D01*
X03842Y02159D02*
X03852Y0217D01*
X03735Y02159D02*
X03842D01*
X0513Y02D02*
Y02345D01*
X05005Y0247D02*
X0513Y02345D01*
X02216Y01653D02*
Y01665D01*
X02451Y01653D02*
X02556Y01547D01*
X02685*
X01515Y01845D02*
X0179D01*
X0149Y0182D02*
X01515Y01845D01*
X0149Y01785D02*
Y0182D01*
X0427Y01297D02*
Y0136D01*
X04113Y02179D02*
X04195D01*
X04079Y02213D02*
X04113Y02179D01*
X03988Y02213D02*
X04079D01*
X03988Y02198D02*
Y02213D01*
X0396Y0217D02*
X03988Y02198D01*
X04275Y01092D02*
Y01155D01*
X04905Y02355D02*
Y0247D01*
X04885Y02335D02*
X04905Y02355D01*
X04885Y0222D02*
Y02335D01*
X01719Y01305D02*
X01746D01*
X01666Y01358D02*
X01719Y01305D01*
X01575Y01358D02*
X01666D01*
X01534Y01316D02*
X01575Y01358D01*
X0147Y01316D02*
X01534D01*
X01475Y0163D02*
X01581D01*
X0345Y01585D02*
Y0172D01*
X0344Y01575D02*
X0345Y01585D01*
X0344Y0144D02*
Y01575D01*
Y01302D02*
Y0144D01*
X03435Y01297D02*
X0344Y01302D01*
X03435Y0116D02*
Y01297D01*
X03225Y0154D02*
Y0164D01*
X03885Y01562D02*
Y0171D01*
Y01562D02*
X03895Y01552D01*
Y01405D02*
Y01552D01*
Y0128D02*
Y01405D01*
Y0128D02*
X03915Y0126D01*
Y01135D02*
Y0126D01*
X04195Y0225D02*
Y02429D01*
Y02179D02*
Y0225D01*
X02216Y01957D02*
Y0206D01*
X02211Y01952D02*
X02216Y01957D01*
X02211Y0185D02*
Y01952D01*
Y0176D02*
Y0185D01*
Y0176D02*
X02216Y01755D01*
X01294Y01809D02*
X0133Y01845D01*
X01203Y01809D02*
X01294D01*
X01194Y01818D02*
X01203Y01809D01*
X01194Y01818D02*
Y02209D01*
X01225Y0224*
X0109Y02375D02*
X01225Y0224D01*
X0109Y02375D02*
Y0271D01*
X01255Y02875*
X0183Y01276D02*
X01975Y01132D01*
X01762Y01276D02*
X0183D01*
X01746Y01293D02*
X01762Y01276D01*
X01746Y01293D02*
Y01305D01*
X012Y01335D02*
X01218Y01316D01*
X0147*
X012Y01335D02*
X01288Y01423D01*
X0147*
X03995Y02429D02*
X04195D01*
X0399Y02424D02*
X03995Y02429D01*
X01738Y02375D02*
X0177D01*
X01712Y02401D02*
X01738Y02375D01*
X01712Y02401D02*
Y02442D01*
X0172Y02451*
X01829*
X0189Y0239*
Y02332D02*
Y0239D01*
Y02332D02*
X01898Y02325D01*
X01956*
X0148Y02335D02*
Y02493D01*
X01443Y0253D02*
X0148Y02493D01*
X01443Y0253D02*
Y02786D01*
X01255Y02975D02*
X01443Y02786D01*
X012Y01235D02*
X0162D01*
X0164Y01255*
Y01305*
X01225Y0244D02*
X01288D01*
X01591Y02136*
Y02125D02*
Y02136D01*
X03965Y01135D02*
Y01135D01*
X0403Y01201*
X01591Y0252D02*
Y02565D01*
Y0252D02*
X01611Y025D01*
X01851D02*
X01926Y02425D01*
X01956*
X01586Y02335D02*
Y02391D01*
X01695Y025*
X01851*
X01475Y0278D02*
Y0295D01*
X01685*
X02215Y0242*
X02466*
X02478Y02408*
Y0253*
X03555Y02865D02*
Y02805D01*
X03594*
X03654Y02865D02*
X03614D01*
Y02805*
X03654*
X03614Y02835D02*
X03634D01*
X03674Y02865D02*
Y02805D01*
X03704*
X03714Y02815*
Y02855*
X03704Y02865*
X03674*
X03734D02*
X03754D01*
X03744*
Y02805*
X03734*
X03754*
X03784Y02865D02*
X03824D01*
X03804*
Y02805*
X03844D02*
Y02865D01*
X03874*
X03884Y02855*
Y02835*
X03874Y02825*
X03844*
X03864D02*
X03884Y02805D01*
X03934Y02865D02*
X03914D01*
X03904Y02855*
Y02815*
X03914Y02805*
X03934*
X03944Y02815*
Y02855*
X03934Y02865*
X03964Y02805D02*
Y02865D01*
X04004Y02805*
Y02865*
X03594Y02769D02*
X03574D01*
X03584*
Y02719*
X03574Y02709*
X03565*
X03555Y02719*
X03624Y02749D02*
X03644D01*
X03654Y02739*
Y02709*
X03624*
X03614Y02719*
X03624Y02729*
X03654*
X03674Y02709D02*
Y02749D01*
X03704*
X03714Y02739*
Y02709*
X03794Y02769D02*
Y02709D01*
Y02739*
X03834*
Y02769*
Y02709*
X03864Y02749D02*
X03884D01*
X03894Y02739*
Y02709*
X03864*
X03854Y02719*
X03864Y02729*
X03894*
X03914Y02709D02*
Y02749D01*
X03944*
X03954Y02739*
Y02709*
X04004D02*
X03984D01*
X03974Y02719*
Y02739*
X03984Y02749*
X04004*
X04014Y02739*
Y02729*
X03974*
X04054Y0269D02*
X04064D01*
X04074Y027*
Y02749*
X04044*
X04034Y02739*
Y02719*
X04044Y02709*
X04074*
X04094Y02749D02*
Y02709D01*
Y02729*
X04104Y02739*
X04114Y02749*
X04124*
X04164D02*
X04184D01*
X04194Y02739*
Y02709*
X04164*
X04154Y02719*
X04164Y02729*
X04194*
X04224Y02749D02*
X04244D01*
X04254Y02739*
Y02709*
X04224*
X04214Y02719*
X04224Y02729*
X04254*
X04284Y02709D02*
Y02759D01*
Y02739*
X04274*
X04294*
X04284*
Y02759*
X04294Y02769*
G54D14*
X04885Y02149D03*
Y0222D03*
X04615Y02139D03*
Y0221D03*
X04815Y01599D03*
Y0167D03*
X04705Y01769D03*
Y0184D03*
X0469Y01309D03*
Y0138D03*
X0449Y01304D03*
Y01375D03*
X04195Y02179D03*
Y0225D03*
Y02429D03*
Y025D03*
X0399Y02424D03*
Y02495D03*
X0374Y01904D03*
Y01975D03*
X0349Y02034D03*
Y02105D03*
X03275Y02049D03*
Y0212D03*
X03735Y02159D03*
Y0223D03*
X0373Y02424D03*
Y02495D03*
G54D15*
X04591Y0113D03*
X04485D03*
X04596Y0157D03*
X0449D03*
X04591Y0178D03*
X04485D03*
X04381Y01155D03*
X04275D03*
X04376Y0136D03*
X0427D03*
X04376Y01575D03*
X0427D03*
X04363Y0178D03*
X04256D03*
X03581Y023D03*
X03475D03*
X03581Y02495D03*
X03475D03*
X03356Y02305D03*
X0325D03*
X03366Y02495D03*
X0326D03*
X02961Y025D03*
X02855D03*
X02755Y0232D03*
X02648D03*
X02753Y02504D03*
X02646D03*
X01586Y02775D03*
X0148D03*
X02216Y0206D03*
X0211D03*
X02211Y0185D03*
X02105D03*
X02216Y01665D03*
X0211D03*
X01591Y02565D03*
X01485D03*
X01586Y02335D03*
X0148D03*
X01591Y02125D03*
X01485D03*
X01596Y01935D03*
X0149D03*
X01886Y0167D03*
X0178D03*
X01746Y01305D03*
X0164D03*
X01581Y0163D03*
X01475D03*
X01596Y01785D03*
X0149D03*
G54D16*
X0396Y0217D03*
X0403D03*
G54D17*
X0306Y0247D03*
Y02363D03*
X02155Y0237D03*
Y02263D03*
X0147Y01423D03*
Y01316D03*
G54D18*
X02685Y01547D03*
Y02152D03*
G54D19*
X01956Y02425D03*
Y02375D03*
Y02325D03*
Y02275D03*
X0177D03*
Y02325D03*
Y02375D03*
G54D20*
X0177Y02425D03*
G54D36*
X03995Y01405D03*
X03945D03*
X03485Y0116D03*
X03535D03*
X04955Y0247D03*
X05005D03*
X047Y02465D03*
X0475D03*
X035Y0172D03*
X0355D03*
X03935Y0171D03*
X03985D03*
X03965Y01135D03*
X04015D03*
X03055Y01245D03*
X03105D03*
X02765D03*
X02815D03*
X0247D03*
X0252D03*
X0349Y0144D03*
X0354D03*
X0182Y02095D03*
X0187D03*
X0184Y01845D03*
X0189D03*
X0128D03*
X0133D03*
G54D37*
X03895Y01405D03*
X03435Y0116D03*
X04905Y0247D03*
X0465Y02465D03*
X0345Y0172D03*
X03885Y0171D03*
X03915Y01135D03*
X03005Y01245D03*
X02715D03*
X0242D03*
X0344Y0144D03*
X0177Y02095D03*
X0179Y01845D03*
X0123D03*
G54D38*
X04465Y02435D03*
X0513Y012D03*
X02478Y0253D03*
X03225Y0154D03*
X01255Y02875D03*
G54D39*
X04465Y02535D03*
X0513Y014D03*
Y015D03*
Y016D03*
Y017D03*
Y018D03*
Y019D03*
Y02D03*
Y013D03*
X02378Y0293D03*
X02478D03*
X02378Y0283D03*
X02478D03*
X02378Y0273D03*
X02478D03*
X02378Y0263D03*
X02478D03*
X02378Y0253D03*
X03225Y0164D03*
X01255Y02975D03*
G54D40*
X01975Y01132D03*
Y01507D03*
G54D41*
X01225Y0224D03*
Y0234D03*
G54D42*
X01225Y0244D03*
G54D43*
X012Y01235D03*
G54D44*
X012Y01335D03*
Y01435D03*
G54D45*
X04758Y01593D03*
X01885Y0219D03*
X01679Y0179D03*
X04363Y01675D03*
X04396Y01297D03*
X0425Y01501D03*
X03155Y01585D03*
X0168Y02325D03*
X01586Y02231D03*
X01886Y0174D03*
X02003Y02494D03*
X03744Y02328D03*
X0374Y02069D03*
X02771Y02434D03*
X03614Y01422D03*
X03405Y01972D03*
X01963Y02549D03*
X0469Y01188D03*
X04376Y01512D03*
X03204Y02551D03*
X03123Y02364D03*
X03436Y02377D03*
X04524Y01472D03*
X04556Y02133D03*
X04611Y017D03*
X04084Y0171D03*
X03485Y02211D03*
X03867Y02403D03*
X03137Y02133D03*
X03315Y01935D03*
X03081Y0252D03*
X03334Y0238D03*
X03177Y02065D03*
X04485Y01067D03*
X04197Y01351D03*
X03144Y0227D03*
X02649Y02257D03*
X02855Y02631D03*
X02685Y01983D03*
X02991Y02365D03*
X01485Y02063D03*
X02175Y01764D03*
X0465Y02279D03*
X04257Y01717D03*
X0427Y01297D03*
X04275Y01092D03*
M02*