%FSTAX23Y23*%
%MOIN*%
%SFA1B1*%

%IPPOS*%
%ADD10C,0.009840*%
%ADD11C,0.007870*%
%ADD12C,0.008000*%
%ADD13C,0.010000*%
%LNpcb1-1*%
%LPD*%
G54D10*
X03833Y01405D02*
D01*
X03833Y01405*
X03833Y01405*
X03833Y01406*
X03833Y01406*
X03833Y01406*
X03833Y01407*
X03833Y01407*
X03833Y01407*
X03832Y01407*
X03832Y01408*
X03832Y01408*
X03832Y01408*
X03831Y01408*
X03831Y01409*
X03831Y01409*
X03831Y01409*
X0383Y01409*
X0383Y01409*
X0383Y01409*
X03829Y01409*
X03829Y01409*
X03829Y01409*
X03828*
X03828Y01409*
X03828Y01409*
X03827Y01409*
X03827Y01409*
X03827Y01409*
X03826Y01409*
X03826Y01409*
X03826Y01409*
X03825Y01408*
X03825Y01408*
X03825Y01408*
X03825Y01408*
X03824Y01407*
X03824Y01407*
X03824Y01407*
X03824Y01407*
X03824Y01406*
X03824Y01406*
X03824Y01406*
X03823Y01405*
X03823Y01405*
X03823Y01405*
X03823Y01404*
X03823Y01404*
X03824Y01403*
X03824Y01403*
X03824Y01403*
X03824Y01402*
X03824Y01402*
X03824Y01402*
X03824Y01402*
X03825Y01401*
X03825Y01401*
X03825Y01401*
X03825Y01401*
X03826Y014*
X03826Y014*
X03826Y014*
X03827Y014*
X03827Y014*
X03827Y014*
X03828Y014*
X03828Y014*
X03828Y014*
X03829*
X03829Y014*
X03829Y014*
X0383Y014*
X0383Y014*
X0383Y014*
X03831Y014*
X03831Y014*
X03831Y014*
X03831Y01401*
X03832Y01401*
X03832Y01401*
X03832Y01401*
X03832Y01402*
X03833Y01402*
X03833Y01402*
X03833Y01402*
X03833Y01403*
X03833Y01403*
X03833Y01403*
X03833Y01404*
X03833Y01404*
X03833Y01405*
X03373Y0116D02*
D01*
X03373Y0116*
X03373Y0116*
X03373Y01161*
X03373Y01161*
X03373Y01161*
X03373Y01162*
X03373Y01162*
X03373Y01162*
X03372Y01162*
X03372Y01163*
X03372Y01163*
X03372Y01163*
X03371Y01163*
X03371Y01164*
X03371Y01164*
X03371Y01164*
X0337Y01164*
X0337Y01164*
X0337Y01164*
X03369Y01164*
X03369Y01164*
X03369Y01164*
X03368*
X03368Y01164*
X03368Y01164*
X03367Y01164*
X03367Y01164*
X03367Y01164*
X03366Y01164*
X03366Y01164*
X03366Y01164*
X03365Y01163*
X03365Y01163*
X03365Y01163*
X03365Y01163*
X03364Y01162*
X03364Y01162*
X03364Y01162*
X03364Y01162*
X03364Y01161*
X03364Y01161*
X03364Y01161*
X03363Y0116*
X03363Y0116*
X03363Y0116*
X03363Y01159*
X03363Y01159*
X03364Y01158*
X03364Y01158*
X03364Y01158*
X03364Y01157*
X03364Y01157*
X03364Y01157*
X03364Y01157*
X03365Y01156*
X03365Y01156*
X03365Y01156*
X03365Y01156*
X03366Y01155*
X03366Y01155*
X03366Y01155*
X03367Y01155*
X03367Y01155*
X03367Y01155*
X03368Y01155*
X03368Y01155*
X03368Y01155*
X03369*
X03369Y01155*
X03369Y01155*
X0337Y01155*
X0337Y01155*
X0337Y01155*
X03371Y01155*
X03371Y01155*
X03371Y01155*
X03371Y01156*
X03372Y01156*
X03372Y01156*
X03372Y01156*
X03372Y01157*
X03373Y01157*
X03373Y01157*
X03373Y01157*
X03373Y01158*
X03373Y01158*
X03373Y01158*
X03373Y01159*
X03373Y01159*
X03373Y0116*
X04843Y0247D02*
D01*
X04843Y0247*
X04843Y0247*
X04843Y02471*
X04843Y02471*
X04843Y02471*
X04843Y02472*
X04843Y02472*
X04843Y02472*
X04842Y02472*
X04842Y02473*
X04842Y02473*
X04842Y02473*
X04841Y02473*
X04841Y02474*
X04841Y02474*
X04841Y02474*
X0484Y02474*
X0484Y02474*
X0484Y02474*
X04839Y02474*
X04839Y02474*
X04839Y02474*
X04838*
X04838Y02474*
X04838Y02474*
X04837Y02474*
X04837Y02474*
X04837Y02474*
X04836Y02474*
X04836Y02474*
X04836Y02474*
X04835Y02473*
X04835Y02473*
X04835Y02473*
X04835Y02473*
X04834Y02472*
X04834Y02472*
X04834Y02472*
X04834Y02472*
X04834Y02471*
X04834Y02471*
X04834Y02471*
X04833Y0247*
X04833Y0247*
X04833Y0247*
X04833Y02469*
X04833Y02469*
X04834Y02468*
X04834Y02468*
X04834Y02468*
X04834Y02467*
X04834Y02467*
X04834Y02467*
X04834Y02467*
X04835Y02466*
X04835Y02466*
X04835Y02466*
X04835Y02466*
X04836Y02465*
X04836Y02465*
X04836Y02465*
X04837Y02465*
X04837Y02465*
X04837Y02465*
X04838Y02465*
X04838Y02465*
X04838Y02465*
X04839*
X04839Y02465*
X04839Y02465*
X0484Y02465*
X0484Y02465*
X0484Y02465*
X04841Y02465*
X04841Y02465*
X04841Y02465*
X04841Y02466*
X04842Y02466*
X04842Y02466*
X04842Y02466*
X04842Y02467*
X04843Y02467*
X04843Y02467*
X04843Y02467*
X04843Y02468*
X04843Y02468*
X04843Y02468*
X04843Y02469*
X04843Y02469*
X04843Y0247*
X04588Y02465D02*
D01*
X04588Y02465*
X04588Y02465*
X04588Y02466*
X04588Y02466*
X04588Y02466*
X04588Y02467*
X04588Y02467*
X04588Y02467*
X04587Y02467*
X04587Y02468*
X04587Y02468*
X04587Y02468*
X04586Y02468*
X04586Y02469*
X04586Y02469*
X04586Y02469*
X04585Y02469*
X04585Y02469*
X04585Y02469*
X04584Y02469*
X04584Y02469*
X04584Y02469*
X04583*
X04583Y02469*
X04583Y02469*
X04582Y02469*
X04582Y02469*
X04582Y02469*
X04581Y02469*
X04581Y02469*
X04581Y02469*
X0458Y02468*
X0458Y02468*
X0458Y02468*
X0458Y02468*
X04579Y02467*
X04579Y02467*
X04579Y02467*
X04579Y02467*
X04579Y02466*
X04579Y02466*
X04579Y02466*
X04578Y02465*
X04578Y02465*
X04578Y02465*
X04578Y02464*
X04578Y02464*
X04579Y02463*
X04579Y02463*
X04579Y02463*
X04579Y02462*
X04579Y02462*
X04579Y02462*
X04579Y02462*
X0458Y02461*
X0458Y02461*
X0458Y02461*
X0458Y02461*
X04581Y0246*
X04581Y0246*
X04581Y0246*
X04582Y0246*
X04582Y0246*
X04582Y0246*
X04583Y0246*
X04583Y0246*
X04583Y0246*
X04584*
X04584Y0246*
X04584Y0246*
X04585Y0246*
X04585Y0246*
X04585Y0246*
X04586Y0246*
X04586Y0246*
X04586Y0246*
X04586Y02461*
X04587Y02461*
X04587Y02461*
X04587Y02461*
X04587Y02462*
X04588Y02462*
X04588Y02462*
X04588Y02462*
X04588Y02463*
X04588Y02463*
X04588Y02463*
X04588Y02464*
X04588Y02464*
X04588Y02465*
X03388Y0172D02*
D01*
X03388Y0172*
X03388Y0172*
X03388Y01721*
X03388Y01721*
X03388Y01721*
X03388Y01722*
X03388Y01722*
X03388Y01722*
X03387Y01722*
X03387Y01723*
X03387Y01723*
X03387Y01723*
X03386Y01723*
X03386Y01724*
X03386Y01724*
X03386Y01724*
X03385Y01724*
X03385Y01724*
X03385Y01724*
X03384Y01724*
X03384Y01724*
X03384Y01724*
X03383*
X03383Y01724*
X03383Y01724*
X03382Y01724*
X03382Y01724*
X03382Y01724*
X03381Y01724*
X03381Y01724*
X03381Y01724*
X0338Y01723*
X0338Y01723*
X0338Y01723*
X0338Y01723*
X03379Y01722*
X03379Y01722*
X03379Y01722*
X03379Y01722*
X03379Y01721*
X03379Y01721*
X03379Y01721*
X03378Y0172*
X03378Y0172*
X03378Y0172*
X03378Y01719*
X03378Y01719*
X03379Y01718*
X03379Y01718*
X03379Y01718*
X03379Y01717*
X03379Y01717*
X03379Y01717*
X03379Y01717*
X0338Y01716*
X0338Y01716*
X0338Y01716*
X0338Y01716*
X03381Y01715*
X03381Y01715*
X03381Y01715*
X03382Y01715*
X03382Y01715*
X03382Y01715*
X03383Y01715*
X03383Y01715*
X03383Y01715*
X03384*
X03384Y01715*
X03384Y01715*
X03385Y01715*
X03385Y01715*
X03385Y01715*
X03386Y01715*
X03386Y01715*
X03386Y01715*
X03386Y01716*
X03387Y01716*
X03387Y01716*
X03387Y01716*
X03387Y01717*
X03388Y01717*
X03388Y01717*
X03388Y01717*
X03388Y01718*
X03388Y01718*
X03388Y01718*
X03388Y01719*
X03388Y01719*
X03388Y0172*
X03823Y0171D02*
D01*
X03823Y0171*
X03823Y0171*
X03823Y01711*
X03823Y01711*
X03823Y01711*
X03823Y01712*
X03823Y01712*
X03823Y01712*
X03822Y01712*
X03822Y01713*
X03822Y01713*
X03822Y01713*
X03821Y01713*
X03821Y01714*
X03821Y01714*
X03821Y01714*
X0382Y01714*
X0382Y01714*
X0382Y01714*
X03819Y01714*
X03819Y01714*
X03819Y01714*
X03818*
X03818Y01714*
X03818Y01714*
X03817Y01714*
X03817Y01714*
X03817Y01714*
X03816Y01714*
X03816Y01714*
X03816Y01714*
X03815Y01713*
X03815Y01713*
X03815Y01713*
X03815Y01713*
X03814Y01712*
X03814Y01712*
X03814Y01712*
X03814Y01712*
X03814Y01711*
X03814Y01711*
X03814Y01711*
X03813Y0171*
X03813Y0171*
X03813Y0171*
X03813Y01709*
X03813Y01709*
X03814Y01708*
X03814Y01708*
X03814Y01708*
X03814Y01707*
X03814Y01707*
X03814Y01707*
X03814Y01707*
X03815Y01706*
X03815Y01706*
X03815Y01706*
X03815Y01706*
X03816Y01705*
X03816Y01705*
X03816Y01705*
X03817Y01705*
X03817Y01705*
X03817Y01705*
X03818Y01705*
X03818Y01705*
X03818Y01705*
X03819*
X03819Y01705*
X03819Y01705*
X0382Y01705*
X0382Y01705*
X0382Y01705*
X03821Y01705*
X03821Y01705*
X03821Y01705*
X03821Y01706*
X03822Y01706*
X03822Y01706*
X03822Y01706*
X03822Y01707*
X03823Y01707*
X03823Y01707*
X03823Y01707*
X03823Y01708*
X03823Y01708*
X03823Y01708*
X03823Y01709*
X03823Y01709*
X03823Y0171*
X03853Y01135D02*
D01*
X03853Y01135*
X03853Y01135*
X03853Y01136*
X03853Y01136*
X03853Y01136*
X03853Y01137*
X03853Y01137*
X03853Y01137*
X03852Y01137*
X03852Y01138*
X03852Y01138*
X03852Y01138*
X03851Y01138*
X03851Y01139*
X03851Y01139*
X03851Y01139*
X0385Y01139*
X0385Y01139*
X0385Y01139*
X03849Y01139*
X03849Y01139*
X03849Y01139*
X03848*
X03848Y01139*
X03848Y01139*
X03847Y01139*
X03847Y01139*
X03847Y01139*
X03846Y01139*
X03846Y01139*
X03846Y01139*
X03845Y01138*
X03845Y01138*
X03845Y01138*
X03845Y01138*
X03844Y01137*
X03844Y01137*
X03844Y01137*
X03844Y01137*
X03844Y01136*
X03844Y01136*
X03844Y01136*
X03843Y01135*
X03843Y01135*
X03843Y01135*
X03843Y01134*
X03843Y01134*
X03844Y01133*
X03844Y01133*
X03844Y01133*
X03844Y01132*
X03844Y01132*
X03844Y01132*
X03844Y01132*
X03845Y01131*
X03845Y01131*
X03845Y01131*
X03845Y01131*
X03846Y0113*
X03846Y0113*
X03846Y0113*
X03847Y0113*
X03847Y0113*
X03847Y0113*
X03848Y0113*
X03848Y0113*
X03848Y0113*
X03849*
X03849Y0113*
X03849Y0113*
X0385Y0113*
X0385Y0113*
X0385Y0113*
X03851Y0113*
X03851Y0113*
X03851Y0113*
X03851Y01131*
X03852Y01131*
X03852Y01131*
X03852Y01131*
X03852Y01132*
X03853Y01132*
X03853Y01132*
X03853Y01132*
X03853Y01133*
X03853Y01133*
X03853Y01133*
X03853Y01134*
X03853Y01134*
X03853Y01135*
X02943Y01245D02*
D01*
X02943Y01245*
X02943Y01245*
X02943Y01246*
X02943Y01246*
X02943Y01246*
X02943Y01247*
X02943Y01247*
X02943Y01247*
X02942Y01247*
X02942Y01248*
X02942Y01248*
X02942Y01248*
X02941Y01248*
X02941Y01249*
X02941Y01249*
X02941Y01249*
X0294Y01249*
X0294Y01249*
X0294Y01249*
X02939Y01249*
X02939Y01249*
X02939Y01249*
X02938*
X02938Y01249*
X02938Y01249*
X02937Y01249*
X02937Y01249*
X02937Y01249*
X02936Y01249*
X02936Y01249*
X02936Y01249*
X02935Y01248*
X02935Y01248*
X02935Y01248*
X02935Y01248*
X02934Y01247*
X02934Y01247*
X02934Y01247*
X02934Y01247*
X02934Y01246*
X02934Y01246*
X02934Y01246*
X02933Y01245*
X02933Y01245*
X02933Y01245*
X02933Y01244*
X02933Y01244*
X02934Y01243*
X02934Y01243*
X02934Y01243*
X02934Y01242*
X02934Y01242*
X02934Y01242*
X02934Y01242*
X02935Y01241*
X02935Y01241*
X02935Y01241*
X02935Y01241*
X02936Y0124*
X02936Y0124*
X02936Y0124*
X02937Y0124*
X02937Y0124*
X02937Y0124*
X02938Y0124*
X02938Y0124*
X02938Y0124*
X02939*
X02939Y0124*
X02939Y0124*
X0294Y0124*
X0294Y0124*
X0294Y0124*
X02941Y0124*
X02941Y0124*
X02941Y0124*
X02941Y01241*
X02942Y01241*
X02942Y01241*
X02942Y01241*
X02942Y01242*
X02943Y01242*
X02943Y01242*
X02943Y01242*
X02943Y01243*
X02943Y01243*
X02943Y01243*
X02943Y01244*
X02943Y01244*
X02943Y01245*
X02653D02*
D01*
X02653Y01245*
X02653Y01245*
X02653Y01246*
X02653Y01246*
X02653Y01246*
X02653Y01247*
X02653Y01247*
X02653Y01247*
X02652Y01247*
X02652Y01248*
X02652Y01248*
X02652Y01248*
X02651Y01248*
X02651Y01249*
X02651Y01249*
X02651Y01249*
X0265Y01249*
X0265Y01249*
X0265Y01249*
X02649Y01249*
X02649Y01249*
X02649Y01249*
X02648*
X02648Y01249*
X02648Y01249*
X02647Y01249*
X02647Y01249*
X02647Y01249*
X02646Y01249*
X02646Y01249*
X02646Y01249*
X02645Y01248*
X02645Y01248*
X02645Y01248*
X02645Y01248*
X02644Y01247*
X02644Y01247*
X02644Y01247*
X02644Y01247*
X02644Y01246*
X02644Y01246*
X02644Y01246*
X02643Y01245*
X02643Y01245*
X02643Y01245*
X02643Y01244*
X02643Y01244*
X02644Y01243*
X02644Y01243*
X02644Y01243*
X02644Y01242*
X02644Y01242*
X02644Y01242*
X02644Y01242*
X02645Y01241*
X02645Y01241*
X02645Y01241*
X02645Y01241*
X02646Y0124*
X02646Y0124*
X02646Y0124*
X02647Y0124*
X02647Y0124*
X02647Y0124*
X02648Y0124*
X02648Y0124*
X02648Y0124*
X02649*
X02649Y0124*
X02649Y0124*
X0265Y0124*
X0265Y0124*
X0265Y0124*
X02651Y0124*
X02651Y0124*
X02651Y0124*
X02651Y01241*
X02652Y01241*
X02652Y01241*
X02652Y01241*
X02652Y01242*
X02653Y01242*
X02653Y01242*
X02653Y01242*
X02653Y01243*
X02653Y01243*
X02653Y01243*
X02653Y01244*
X02653Y01244*
X02653Y01245*
X02358D02*
D01*
X02358Y01245*
X02358Y01245*
X02358Y01246*
X02358Y01246*
X02358Y01246*
X02358Y01247*
X02358Y01247*
X02358Y01247*
X02357Y01247*
X02357Y01248*
X02357Y01248*
X02357Y01248*
X02356Y01248*
X02356Y01249*
X02356Y01249*
X02356Y01249*
X02355Y01249*
X02355Y01249*
X02355Y01249*
X02354Y01249*
X02354Y01249*
X02354Y01249*
X02353*
X02353Y01249*
X02353Y01249*
X02352Y01249*
X02352Y01249*
X02352Y01249*
X02351Y01249*
X02351Y01249*
X02351Y01249*
X0235Y01248*
X0235Y01248*
X0235Y01248*
X0235Y01248*
X02349Y01247*
X02349Y01247*
X02349Y01247*
X02349Y01247*
X02349Y01246*
X02349Y01246*
X02349Y01246*
X02348Y01245*
X02348Y01245*
X02348Y01245*
X02348Y01244*
X02348Y01244*
X02349Y01243*
X02349Y01243*
X02349Y01243*
X02349Y01242*
X02349Y01242*
X02349Y01242*
X02349Y01242*
X0235Y01241*
X0235Y01241*
X0235Y01241*
X0235Y01241*
X02351Y0124*
X02351Y0124*
X02351Y0124*
X02352Y0124*
X02352Y0124*
X02352Y0124*
X02353Y0124*
X02353Y0124*
X02353Y0124*
X02354*
X02354Y0124*
X02354Y0124*
X02355Y0124*
X02355Y0124*
X02355Y0124*
X02356Y0124*
X02356Y0124*
X02356Y0124*
X02356Y01241*
X02357Y01241*
X02357Y01241*
X02357Y01241*
X02357Y01242*
X02358Y01242*
X02358Y01242*
X02358Y01242*
X02358Y01243*
X02358Y01243*
X02358Y01243*
X02358Y01244*
X02358Y01244*
X02358Y01245*
X03378Y0144D02*
D01*
X03378Y0144*
X03378Y0144*
X03378Y01441*
X03378Y01441*
X03378Y01441*
X03378Y01442*
X03378Y01442*
X03378Y01442*
X03377Y01442*
X03377Y01443*
X03377Y01443*
X03377Y01443*
X03376Y01443*
X03376Y01444*
X03376Y01444*
X03376Y01444*
X03375Y01444*
X03375Y01444*
X03375Y01444*
X03374Y01444*
X03374Y01444*
X03374Y01444*
X03373*
X03373Y01444*
X03373Y01444*
X03372Y01444*
X03372Y01444*
X03372Y01444*
X03371Y01444*
X03371Y01444*
X03371Y01444*
X0337Y01443*
X0337Y01443*
X0337Y01443*
X0337Y01443*
X03369Y01442*
X03369Y01442*
X03369Y01442*
X03369Y01442*
X03369Y01441*
X03369Y01441*
X03369Y01441*
X03368Y0144*
X03368Y0144*
X03368Y0144*
X03368Y01439*
X03368Y01439*
X03369Y01438*
X03369Y01438*
X03369Y01438*
X03369Y01437*
X03369Y01437*
X03369Y01437*
X03369Y01437*
X0337Y01436*
X0337Y01436*
X0337Y01436*
X0337Y01436*
X03371Y01435*
X03371Y01435*
X03371Y01435*
X03372Y01435*
X03372Y01435*
X03372Y01435*
X03373Y01435*
X03373Y01435*
X03373Y01435*
X03374*
X03374Y01435*
X03374Y01435*
X03375Y01435*
X03375Y01435*
X03375Y01435*
X03376Y01435*
X03376Y01435*
X03376Y01435*
X03376Y01436*
X03377Y01436*
X03377Y01436*
X03377Y01436*
X03377Y01437*
X03378Y01437*
X03378Y01437*
X03378Y01437*
X03378Y01438*
X03378Y01438*
X03378Y01438*
X03378Y01439*
X03378Y01439*
X03378Y0144*
X01708Y02095D02*
D01*
X01708Y02095*
X01708Y02095*
X01708Y02096*
X01708Y02096*
X01708Y02096*
X01708Y02097*
X01708Y02097*
X01708Y02097*
X01707Y02097*
X01707Y02098*
X01707Y02098*
X01707Y02098*
X01706Y02098*
X01706Y02099*
X01706Y02099*
X01706Y02099*
X01705Y02099*
X01705Y02099*
X01705Y02099*
X01704Y02099*
X01704Y02099*
X01704Y02099*
X01703*
X01703Y02099*
X01703Y02099*
X01702Y02099*
X01702Y02099*
X01702Y02099*
X01701Y02099*
X01701Y02099*
X01701Y02099*
X017Y02098*
X017Y02098*
X017Y02098*
X017Y02098*
X01699Y02097*
X01699Y02097*
X01699Y02097*
X01699Y02097*
X01699Y02096*
X01699Y02096*
X01699Y02096*
X01698Y02095*
X01698Y02095*
X01698Y02095*
X01698Y02094*
X01698Y02094*
X01699Y02093*
X01699Y02093*
X01699Y02093*
X01699Y02092*
X01699Y02092*
X01699Y02092*
X01699Y02092*
X017Y02091*
X017Y02091*
X017Y02091*
X017Y02091*
X01701Y0209*
X01701Y0209*
X01701Y0209*
X01702Y0209*
X01702Y0209*
X01702Y0209*
X01703Y0209*
X01703Y0209*
X01703Y0209*
X01704*
X01704Y0209*
X01704Y0209*
X01705Y0209*
X01705Y0209*
X01705Y0209*
X01706Y0209*
X01706Y0209*
X01706Y0209*
X01706Y02091*
X01707Y02091*
X01707Y02091*
X01707Y02091*
X01707Y02092*
X01708Y02092*
X01708Y02092*
X01708Y02092*
X01708Y02093*
X01708Y02093*
X01708Y02093*
X01708Y02094*
X01708Y02094*
X01708Y02095*
X01712Y02425D02*
D01*
X01712Y02425*
X01712Y02425*
X01712Y02426*
X01712Y02426*
X01712Y02426*
X01712Y02427*
X01711Y02427*
X01711Y02427*
X01711Y02427*
X01711Y02428*
X01711Y02428*
X0171Y02428*
X0171Y02428*
X0171Y02429*
X01709Y02429*
X01709Y02429*
X01709Y02429*
X01709Y02429*
X01708Y02429*
X01708Y02429*
X01708Y02429*
X01707Y02429*
X01707*
X01707Y02429*
X01706Y02429*
X01706Y02429*
X01705Y02429*
X01705Y02429*
X01705Y02429*
X01705Y02429*
X01704Y02429*
X01704Y02428*
X01704Y02428*
X01703Y02428*
X01703Y02428*
X01703Y02427*
X01703Y02427*
X01703Y02427*
X01703Y02427*
X01702Y02426*
X01702Y02426*
X01702Y02426*
X01702Y02425*
X01702Y02425*
X01702Y02425*
X01702Y02424*
X01702Y02424*
X01702Y02423*
X01702Y02423*
X01702Y02423*
X01703Y02422*
X01703Y02422*
X01703Y02422*
X01703Y02422*
X01703Y02421*
X01703Y02421*
X01704Y02421*
X01704Y02421*
X01704Y0242*
X01705Y0242*
X01705Y0242*
X01705Y0242*
X01705Y0242*
X01706Y0242*
X01706Y0242*
X01707Y0242*
X01707Y0242*
X01707*
X01708Y0242*
X01708Y0242*
X01708Y0242*
X01709Y0242*
X01709Y0242*
X01709Y0242*
X01709Y0242*
X0171Y0242*
X0171Y02421*
X0171Y02421*
X01711Y02421*
X01711Y02421*
X01711Y02422*
X01711Y02422*
X01711Y02422*
X01712Y02422*
X01712Y02423*
X01712Y02423*
X01712Y02423*
X01712Y02424*
X01712Y02424*
X01712Y02425*
X01229Y0257D02*
D01*
X01229Y0257*
X01229Y0257*
X01229Y02571*
X01229Y02571*
X01229Y02571*
X01229Y02572*
X01229Y02572*
X01229Y02572*
X01228Y02573*
X01228Y02573*
X01228Y02573*
X01228Y02573*
X01228Y02574*
X01227Y02574*
X01227Y02574*
X01227Y02574*
X01226Y02574*
X01226Y02574*
X01226Y02575*
X01225Y02575*
X01225Y02575*
X01225Y02575*
X01224*
X01224Y02575*
X01224Y02575*
X01223Y02575*
X01223Y02574*
X01223Y02574*
X01222Y02574*
X01222Y02574*
X01222Y02574*
X01221Y02574*
X01221Y02573*
X01221Y02573*
X01221Y02573*
X01221Y02573*
X0122Y02572*
X0122Y02572*
X0122Y02572*
X0122Y02571*
X0122Y02571*
X0122Y02571*
X0122Y0257*
X0122Y0257*
X0122Y0257*
X0122Y02569*
X0122Y02569*
X0122Y02569*
X0122Y02568*
X0122Y02568*
X0122Y02568*
X0122Y02568*
X0122Y02567*
X01221Y02567*
X01221Y02567*
X01221Y02566*
X01221Y02566*
X01221Y02566*
X01222Y02566*
X01222Y02566*
X01222Y02565*
X01223Y02565*
X01223Y02565*
X01223Y02565*
X01224Y02565*
X01224Y02565*
X01224Y02565*
X01225*
X01225Y02565*
X01225Y02565*
X01226Y02565*
X01226Y02565*
X01226Y02565*
X01227Y02565*
X01227Y02566*
X01227Y02566*
X01228Y02566*
X01228Y02566*
X01228Y02566*
X01228Y02567*
X01228Y02567*
X01229Y02567*
X01229Y02568*
X01229Y02568*
X01229Y02568*
X01229Y02568*
X01229Y02569*
X01229Y02569*
X01229Y02569*
X01229Y0257*
X01728Y01845D02*
D01*
X01728Y01845*
X01728Y01845*
X01728Y01846*
X01728Y01846*
X01728Y01846*
X01728Y01847*
X01728Y01847*
X01728Y01847*
X01727Y01847*
X01727Y01848*
X01727Y01848*
X01727Y01848*
X01726Y01848*
X01726Y01849*
X01726Y01849*
X01726Y01849*
X01725Y01849*
X01725Y01849*
X01725Y01849*
X01724Y01849*
X01724Y01849*
X01724Y01849*
X01723*
X01723Y01849*
X01723Y01849*
X01722Y01849*
X01722Y01849*
X01722Y01849*
X01721Y01849*
X01721Y01849*
X01721Y01849*
X0172Y01848*
X0172Y01848*
X0172Y01848*
X0172Y01848*
X01719Y01847*
X01719Y01847*
X01719Y01847*
X01719Y01847*
X01719Y01846*
X01719Y01846*
X01719Y01846*
X01718Y01845*
X01718Y01845*
X01718Y01845*
X01718Y01844*
X01718Y01844*
X01719Y01843*
X01719Y01843*
X01719Y01843*
X01719Y01842*
X01719Y01842*
X01719Y01842*
X01719Y01842*
X0172Y01841*
X0172Y01841*
X0172Y01841*
X0172Y01841*
X01721Y0184*
X01721Y0184*
X01721Y0184*
X01722Y0184*
X01722Y0184*
X01722Y0184*
X01723Y0184*
X01723Y0184*
X01723Y0184*
X01724*
X01724Y0184*
X01724Y0184*
X01725Y0184*
X01725Y0184*
X01725Y0184*
X01726Y0184*
X01726Y0184*
X01726Y0184*
X01726Y01841*
X01727Y01841*
X01727Y01841*
X01727Y01841*
X01727Y01842*
X01728Y01842*
X01728Y01842*
X01728Y01842*
X01728Y01843*
X01728Y01843*
X01728Y01843*
X01728Y01844*
X01728Y01844*
X01728Y01845*
X01168D02*
D01*
X01168Y01845*
X01168Y01845*
X01168Y01846*
X01168Y01846*
X01168Y01846*
X01168Y01847*
X01168Y01847*
X01168Y01847*
X01167Y01847*
X01167Y01848*
X01167Y01848*
X01167Y01848*
X01166Y01848*
X01166Y01849*
X01166Y01849*
X01166Y01849*
X01165Y01849*
X01165Y01849*
X01165Y01849*
X01164Y01849*
X01164Y01849*
X01164Y01849*
X01163*
X01163Y01849*
X01163Y01849*
X01162Y01849*
X01162Y01849*
X01162Y01849*
X01161Y01849*
X01161Y01849*
X01161Y01849*
X0116Y01848*
X0116Y01848*
X0116Y01848*
X0116Y01848*
X01159Y01847*
X01159Y01847*
X01159Y01847*
X01159Y01847*
X01159Y01846*
X01159Y01846*
X01159Y01846*
X01158Y01845*
X01158Y01845*
X01158Y01845*
X01158Y01844*
X01158Y01844*
X01159Y01843*
X01159Y01843*
X01159Y01843*
X01159Y01842*
X01159Y01842*
X01159Y01842*
X01159Y01842*
X0116Y01841*
X0116Y01841*
X0116Y01841*
X0116Y01841*
X01161Y0184*
X01161Y0184*
X01161Y0184*
X01162Y0184*
X01162Y0184*
X01162Y0184*
X01163Y0184*
X01163Y0184*
X01163Y0184*
X01164*
X01164Y0184*
X01164Y0184*
X01165Y0184*
X01165Y0184*
X01165Y0184*
X01166Y0184*
X01166Y0184*
X01166Y0184*
X01166Y01841*
X01167Y01841*
X01167Y01841*
X01167Y01841*
X01167Y01842*
X01168Y01842*
X01168Y01842*
X01168Y01842*
X01168Y01843*
X01168Y01843*
X01168Y01843*
X01168Y01844*
X01168Y01844*
X01168Y01845*
G54D11*
X04021Y01352D02*
D01*
X04024Y01357*
X04027Y01363*
X0403Y01369*
X04032Y01375*
X04034Y01381*
X04035Y01387*
X04036Y01394*
X04037Y014*
X04037Y01407*
X04037Y01413*
X04036Y0142*
X04035Y01426*
X04033Y01432*
X04031Y01438*
X04028Y01444*
X04025Y0145*
X04022Y01455*
X04018Y01461*
X04014Y01466*
X04009Y0147*
X04005Y01475*
X04Y01479*
X03994Y01482*
X03989Y01486*
X03983Y01489*
X03977Y01491*
X03971Y01493*
X03965Y01495*
X03958Y01496*
X03952Y01497*
X03946Y01497*
X03939Y01497*
X03933Y01496*
X03926Y01495*
X0392Y01494*
X03914Y01492*
X03908Y01489*
X03902Y01487*
X03896Y01483*
X03891Y0148*
X03886Y01476*
X03881Y01472*
X03876Y01467*
X03872Y01462*
X03868Y01457*
X03865Y01452*
X03862Y01446*
X03859Y0144*
X03857Y01434*
X03855Y01428*
X03854Y01422*
X03853Y01415*
X03852Y01409*
X03852Y01402*
X03852Y01396*
X03853Y01389*
X03854Y01383*
X03856Y01377*
X03858Y01371*
X03861Y01365*
X03864Y01359*
X03867Y01354*
X03868Y01352*
X03561Y01107D02*
D01*
X03564Y01112*
X03567Y01118*
X0357Y01124*
X03572Y0113*
X03574Y01136*
X03575Y01142*
X03576Y01149*
X03577Y01155*
X03577Y01162*
X03577Y01168*
X03576Y01175*
X03575Y01181*
X03573Y01187*
X03571Y01193*
X03568Y01199*
X03565Y01205*
X03562Y0121*
X03558Y01216*
X03554Y01221*
X03549Y01225*
X03545Y0123*
X0354Y01234*
X03534Y01237*
X03529Y01241*
X03523Y01244*
X03517Y01246*
X03511Y01248*
X03505Y0125*
X03498Y01251*
X03492Y01252*
X03486Y01252*
X03479Y01252*
X03473Y01251*
X03466Y0125*
X0346Y01249*
X03454Y01247*
X03448Y01244*
X03442Y01242*
X03436Y01238*
X03431Y01235*
X03426Y01231*
X03421Y01227*
X03416Y01222*
X03412Y01217*
X03408Y01212*
X03405Y01207*
X03402Y01201*
X03399Y01195*
X03397Y01189*
X03395Y01183*
X03394Y01177*
X03393Y0117*
X03392Y01164*
X03392Y01157*
X03392Y01151*
X03393Y01144*
X03394Y01138*
X03396Y01132*
X03398Y01126*
X03401Y0112*
X03404Y01114*
X03407Y01109*
X03408Y01107*
X05031Y02417D02*
D01*
X05034Y02422*
X05037Y02428*
X0504Y02434*
X05042Y0244*
X05044Y02446*
X05045Y02452*
X05046Y02459*
X05047Y02465*
X05047Y02472*
X05047Y02478*
X05046Y02485*
X05045Y02491*
X05043Y02497*
X05041Y02503*
X05038Y02509*
X05035Y02515*
X05032Y0252*
X05028Y02526*
X05024Y02531*
X05019Y02535*
X05015Y0254*
X0501Y02544*
X05004Y02547*
X04999Y02551*
X04993Y02554*
X04987Y02556*
X04981Y02558*
X04975Y0256*
X04968Y02561*
X04962Y02562*
X04956Y02562*
X04949Y02562*
X04943Y02561*
X04936Y0256*
X0493Y02559*
X04924Y02557*
X04918Y02554*
X04912Y02552*
X04906Y02548*
X04901Y02545*
X04896Y02541*
X04891Y02537*
X04886Y02532*
X04882Y02527*
X04878Y02522*
X04875Y02517*
X04872Y02511*
X04869Y02505*
X04867Y02499*
X04865Y02493*
X04864Y02487*
X04863Y0248*
X04862Y02474*
X04862Y02467*
X04862Y02461*
X04863Y02454*
X04864Y02448*
X04866Y02442*
X04868Y02436*
X04871Y0243*
X04874Y02424*
X04877Y02419*
X04878Y02417*
X04776Y02412D02*
D01*
X04779Y02417*
X04782Y02423*
X04785Y02429*
X04787Y02435*
X04789Y02441*
X0479Y02447*
X04791Y02454*
X04792Y0246*
X04792Y02467*
X04792Y02473*
X04791Y0248*
X0479Y02486*
X04788Y02492*
X04786Y02498*
X04783Y02504*
X0478Y0251*
X04777Y02515*
X04773Y02521*
X04769Y02526*
X04764Y0253*
X0476Y02535*
X04755Y02539*
X04749Y02542*
X04744Y02546*
X04738Y02549*
X04732Y02551*
X04726Y02553*
X0472Y02555*
X04713Y02556*
X04707Y02557*
X04701Y02557*
X04694Y02557*
X04688Y02556*
X04681Y02555*
X04675Y02554*
X04669Y02552*
X04663Y02549*
X04657Y02547*
X04651Y02544*
X04646Y0254*
X04641Y02536*
X04636Y02532*
X04631Y02527*
X04627Y02522*
X04623Y02517*
X0462Y02512*
X04617Y02506*
X04614Y025*
X04612Y02494*
X0461Y02488*
X04609Y02482*
X04608Y02475*
X04607Y02469*
X04607Y02462*
X04607Y02456*
X04608Y02449*
X04609Y02443*
X04611Y02437*
X04613Y02431*
X04616Y02425*
X04619Y02419*
X04622Y02414*
X04623Y02412*
X03576Y01667D02*
D01*
X03579Y01672*
X03582Y01678*
X03585Y01684*
X03587Y0169*
X03589Y01696*
X0359Y01702*
X03591Y01709*
X03592Y01715*
X03592Y01722*
X03592Y01728*
X03591Y01735*
X0359Y01741*
X03588Y01747*
X03586Y01753*
X03583Y01759*
X0358Y01765*
X03577Y0177*
X03573Y01776*
X03569Y01781*
X03564Y01785*
X0356Y0179*
X03555Y01794*
X03549Y01797*
X03544Y01801*
X03538Y01804*
X03532Y01806*
X03526Y01808*
X0352Y0181*
X03513Y01811*
X03507Y01812*
X03501Y01812*
X03494Y01812*
X03488Y01811*
X03481Y0181*
X03475Y01809*
X03469Y01807*
X03463Y01804*
X03457Y01802*
X03451Y01799*
X03446Y01795*
X03441Y01791*
X03436Y01787*
X03431Y01782*
X03427Y01777*
X03423Y01772*
X0342Y01767*
X03417Y01761*
X03414Y01755*
X03412Y01749*
X0341Y01743*
X03409Y01737*
X03408Y0173*
X03407Y01724*
X03407Y01717*
X03407Y01711*
X03408Y01704*
X03409Y01698*
X03411Y01692*
X03413Y01686*
X03416Y0168*
X03419Y01674*
X03422Y01669*
X03423Y01667*
X04011Y01657D02*
D01*
X04014Y01662*
X04017Y01668*
X0402Y01674*
X04022Y0168*
X04024Y01686*
X04025Y01692*
X04026Y01699*
X04027Y01705*
X04027Y01712*
X04027Y01718*
X04026Y01725*
X04025Y01731*
X04023Y01737*
X04021Y01743*
X04018Y01749*
X04015Y01755*
X04012Y0176*
X04008Y01766*
X04004Y01771*
X03999Y01775*
X03995Y0178*
X0399Y01784*
X03984Y01787*
X03979Y01791*
X03973Y01794*
X03967Y01796*
X03961Y01798*
X03955Y018*
X03948Y01801*
X03942Y01802*
X03936Y01802*
X03929Y01802*
X03923Y01801*
X03916Y018*
X0391Y01799*
X03904Y01797*
X03898Y01794*
X03892Y01792*
X03886Y01789*
X03881Y01785*
X03876Y01781*
X03871Y01777*
X03866Y01772*
X03862Y01767*
X03858Y01762*
X03855Y01757*
X03852Y01751*
X03849Y01745*
X03847Y01739*
X03845Y01733*
X03844Y01727*
X03843Y0172*
X03842Y01714*
X03842Y01707*
X03842Y01701*
X03843Y01694*
X03844Y01688*
X03846Y01682*
X03848Y01676*
X03851Y0167*
X03854Y01664*
X03857Y01659*
X03858Y01657*
X04041Y01082D02*
D01*
X04044Y01087*
X04047Y01093*
X0405Y01099*
X04052Y01105*
X04054Y01111*
X04055Y01117*
X04056Y01124*
X04057Y0113*
X04057Y01137*
X04057Y01143*
X04056Y0115*
X04055Y01156*
X04053Y01162*
X04051Y01168*
X04048Y01174*
X04045Y0118*
X04042Y01185*
X04038Y01191*
X04034Y01196*
X04029Y012*
X04025Y01205*
X0402Y01209*
X04014Y01212*
X04009Y01216*
X04003Y01219*
X03997Y01221*
X03991Y01223*
X03985Y01225*
X03978Y01226*
X03972Y01227*
X03966Y01227*
X03959Y01227*
X03953Y01226*
X03946Y01225*
X0394Y01224*
X03934Y01222*
X03928Y01219*
X03922Y01217*
X03916Y01214*
X03911Y0121*
X03906Y01206*
X03901Y01202*
X03896Y01197*
X03892Y01192*
X03888Y01187*
X03885Y01182*
X03882Y01176*
X03879Y0117*
X03877Y01164*
X03875Y01158*
X03874Y01152*
X03873Y01145*
X03872Y01139*
X03872Y01132*
X03872Y01126*
X03873Y01119*
X03874Y01113*
X03876Y01107*
X03878Y01101*
X03881Y01095*
X03884Y01089*
X03887Y01084*
X03888Y01082*
X03131Y01192D02*
D01*
X03134Y01197*
X03137Y01203*
X0314Y01209*
X03142Y01215*
X03144Y01221*
X03145Y01227*
X03146Y01234*
X03147Y0124*
X03147Y01247*
X03147Y01253*
X03146Y0126*
X03145Y01266*
X03143Y01272*
X03141Y01278*
X03138Y01284*
X03135Y0129*
X03132Y01295*
X03128Y01301*
X03124Y01306*
X03119Y0131*
X03115Y01315*
X0311Y01319*
X03104Y01322*
X03099Y01326*
X03093Y01329*
X03087Y01331*
X03081Y01333*
X03075Y01335*
X03068Y01336*
X03062Y01337*
X03056Y01337*
X03049Y01337*
X03043Y01336*
X03036Y01335*
X0303Y01334*
X03024Y01332*
X03018Y01329*
X03012Y01327*
X03006Y01324*
X03001Y0132*
X02996Y01316*
X02991Y01312*
X02986Y01307*
X02982Y01302*
X02978Y01297*
X02975Y01292*
X02972Y01286*
X02969Y0128*
X02967Y01274*
X02965Y01268*
X02964Y01262*
X02963Y01255*
X02962Y01249*
X02962Y01242*
X02962Y01236*
X02963Y01229*
X02964Y01223*
X02966Y01217*
X02968Y01211*
X02971Y01205*
X02974Y01199*
X02977Y01194*
X02978Y01192*
X02841Y01192D02*
D01*
X02844Y01197*
X02847Y01203*
X0285Y01209*
X02852Y01215*
X02854Y01221*
X02855Y01227*
X02856Y01234*
X02857Y0124*
X02857Y01247*
X02857Y01253*
X02856Y0126*
X02855Y01266*
X02853Y01272*
X02851Y01278*
X02848Y01284*
X02845Y0129*
X02842Y01295*
X02838Y01301*
X02834Y01306*
X02829Y0131*
X02825Y01315*
X0282Y01319*
X02814Y01322*
X02809Y01326*
X02803Y01329*
X02797Y01331*
X02791Y01333*
X02785Y01335*
X02778Y01336*
X02772Y01337*
X02766Y01337*
X02759Y01337*
X02753Y01336*
X02746Y01335*
X0274Y01334*
X02734Y01332*
X02728Y01329*
X02722Y01327*
X02716Y01324*
X02711Y0132*
X02706Y01316*
X02701Y01312*
X02696Y01307*
X02692Y01302*
X02688Y01297*
X02685Y01292*
X02682Y01286*
X02679Y0128*
X02677Y01274*
X02675Y01268*
X02674Y01262*
X02673Y01255*
X02672Y01249*
X02672Y01242*
X02672Y01236*
X02673Y01229*
X02674Y01223*
X02676Y01217*
X02678Y01211*
X02681Y01205*
X02684Y01199*
X02687Y01194*
X02688Y01192*
X02546Y01192D02*
D01*
X02549Y01197*
X02552Y01203*
X02555Y01209*
X02557Y01215*
X02559Y01221*
X0256Y01227*
X02561Y01234*
X02562Y0124*
X02562Y01247*
X02562Y01253*
X02561Y0126*
X0256Y01266*
X02558Y01272*
X02556Y01278*
X02553Y01284*
X0255Y0129*
X02547Y01295*
X02543Y01301*
X02539Y01306*
X02534Y0131*
X0253Y01315*
X02525Y01319*
X02519Y01322*
X02514Y01326*
X02508Y01329*
X02502Y01331*
X02496Y01333*
X0249Y01335*
X02483Y01336*
X02477Y01337*
X02471Y01337*
X02464Y01337*
X02458Y01336*
X02451Y01335*
X02445Y01334*
X02439Y01332*
X02433Y01329*
X02427Y01327*
X02421Y01324*
X02416Y0132*
X02411Y01316*
X02406Y01312*
X02401Y01307*
X02397Y01302*
X02393Y01297*
X0239Y01292*
X02387Y01286*
X02384Y0128*
X02382Y01274*
X0238Y01268*
X02379Y01262*
X02378Y01255*
X02377Y01249*
X02377Y01242*
X02377Y01236*
X02378Y01229*
X02379Y01223*
X02381Y01217*
X02383Y01211*
X02386Y01205*
X02389Y01199*
X02392Y01194*
X02393Y01192*
X03566Y01387D02*
D01*
X03569Y01392*
X03572Y01398*
X03575Y01404*
X03577Y0141*
X03579Y01416*
X0358Y01422*
X03581Y01429*
X03582Y01435*
X03582Y01442*
X03582Y01448*
X03581Y01455*
X0358Y01461*
X03578Y01467*
X03576Y01473*
X03573Y01479*
X0357Y01485*
X03567Y0149*
X03563Y01496*
X03559Y01501*
X03554Y01505*
X0355Y0151*
X03545Y01514*
X03539Y01517*
X03534Y01521*
X03528Y01524*
X03522Y01526*
X03516Y01528*
X0351Y0153*
X03503Y01531*
X03497Y01532*
X03491Y01532*
X03484Y01532*
X03478Y01531*
X03471Y0153*
X03465Y01529*
X03459Y01527*
X03453Y01524*
X03447Y01522*
X03441Y01518*
X03436Y01515*
X03431Y01511*
X03426Y01507*
X03421Y01502*
X03417Y01497*
X03413Y01492*
X0341Y01487*
X03407Y01481*
X03404Y01475*
X03402Y01469*
X034Y01463*
X03399Y01457*
X03398Y0145*
X03397Y01444*
X03397Y01437*
X03397Y01431*
X03398Y01424*
X03399Y01418*
X03401Y01412*
X03403Y01406*
X03406Y014*
X03409Y01394*
X03412Y01389*
X03413Y01387*
X01896Y02042D02*
D01*
X01899Y02047*
X01902Y02053*
X01905Y02059*
X01907Y02065*
X01909Y02071*
X0191Y02077*
X01911Y02084*
X01912Y0209*
X01912Y02097*
X01912Y02103*
X01911Y0211*
X0191Y02116*
X01908Y02122*
X01906Y02128*
X01903Y02134*
X019Y0214*
X01897Y02145*
X01893Y02151*
X01889Y02156*
X01884Y0216*
X0188Y02165*
X01875Y02169*
X01869Y02172*
X01864Y02176*
X01858Y02179*
X01852Y02181*
X01846Y02183*
X0184Y02185*
X01833Y02186*
X01827Y02187*
X01821Y02187*
X01814Y02187*
X01808Y02186*
X01801Y02185*
X01795Y02184*
X01789Y02182*
X01783Y02179*
X01777Y02177*
X01771Y02173*
X01766Y0217*
X01761Y02166*
X01756Y02162*
X01751Y02157*
X01747Y02152*
X01743Y02147*
X0174Y02142*
X01737Y02136*
X01734Y0213*
X01732Y02124*
X0173Y02118*
X01729Y02112*
X01728Y02105*
X01727Y02099*
X01727Y02092*
X01727Y02086*
X01728Y02079*
X01729Y02073*
X01731Y02067*
X01733Y02061*
X01736Y02055*
X01739Y02049*
X01742Y02044*
X01743Y02042*
X01916Y01792D02*
D01*
X01919Y01797*
X01922Y01803*
X01925Y01809*
X01927Y01815*
X01929Y01821*
X0193Y01827*
X01931Y01834*
X01932Y0184*
X01932Y01847*
X01932Y01853*
X01931Y0186*
X0193Y01866*
X01928Y01872*
X01926Y01878*
X01923Y01884*
X0192Y0189*
X01917Y01895*
X01913Y01901*
X01909Y01906*
X01904Y0191*
X019Y01915*
X01895Y01919*
X01889Y01922*
X01884Y01926*
X01878Y01929*
X01872Y01931*
X01866Y01933*
X0186Y01935*
X01853Y01936*
X01847Y01937*
X01841Y01937*
X01834Y01937*
X01828Y01936*
X01821Y01935*
X01815Y01934*
X01809Y01932*
X01803Y01929*
X01797Y01927*
X01791Y01924*
X01786Y0192*
X01781Y01916*
X01776Y01912*
X01771Y01907*
X01767Y01902*
X01763Y01897*
X0176Y01892*
X01757Y01886*
X01754Y0188*
X01752Y01874*
X0175Y01868*
X01749Y01862*
X01748Y01855*
X01747Y01849*
X01747Y01842*
X01747Y01836*
X01748Y01829*
X01749Y01823*
X01751Y01817*
X01753Y01811*
X01756Y01805*
X01759Y01799*
X01762Y01794*
X01763Y01792*
X01356Y01792D02*
D01*
X01359Y01797*
X01362Y01803*
X01365Y01809*
X01367Y01815*
X01369Y01821*
X0137Y01827*
X01371Y01834*
X01372Y0184*
X01372Y01847*
X01372Y01853*
X01371Y0186*
X0137Y01866*
X01368Y01872*
X01366Y01878*
X01363Y01884*
X0136Y0189*
X01357Y01895*
X01353Y01901*
X01349Y01906*
X01344Y0191*
X0134Y01915*
X01335Y01919*
X01329Y01922*
X01324Y01926*
X01318Y01929*
X01312Y01931*
X01306Y01933*
X013Y01935*
X01293Y01936*
X01287Y01937*
X01281Y01937*
X01274Y01937*
X01268Y01936*
X01261Y01935*
X01255Y01934*
X01249Y01932*
X01243Y01929*
X01237Y01927*
X01231Y01924*
X01226Y0192*
X01221Y01916*
X01216Y01912*
X01211Y01907*
X01207Y01902*
X01203Y01897*
X012Y01892*
X01197Y01886*
X01194Y0188*
X01192Y01874*
X0119Y01868*
X01189Y01862*
X01188Y01855*
X01187Y01849*
X01187Y01842*
X01187Y01836*
X01188Y01829*
X01189Y01823*
X01191Y01817*
X01193Y01811*
X01196Y01805*
X01199Y01799*
X01202Y01794*
X01203Y01792*
X03868Y01352D02*
X04021D01*
X03408Y01107D02*
X03561D01*
X04415Y02585D02*
X04515D01*
Y02385D02*
Y02585D01*
X04415Y02385D02*
X04515D01*
X04415D02*
Y02585D01*
X04861Y02109D02*
X04908D01*
X04591Y02099D02*
X04638D01*
X04878Y02417D02*
X05031D01*
X04623Y02412D02*
X04776D01*
X0508Y0205D02*
X0518D01*
Y0115D02*
Y0205D01*
X0508Y0115D02*
X0518D01*
X0508D02*
Y0205D01*
X04791Y01559D02*
X04838D01*
X04681Y01729D02*
X04728D01*
X04522Y011D02*
X04553D01*
X04522Y01159D02*
X04553D01*
X04666Y01269D02*
X04713D01*
X04466Y01265D02*
X04513D01*
X04527Y0154D02*
X04558D01*
X04527Y01599D02*
X04558D01*
X04522Y0175D02*
X04553D01*
X04522Y01809D02*
X04553D01*
X04312Y01125D02*
X04343D01*
X04312Y01184D02*
X04343D01*
X04307Y0133D02*
X04338D01*
X04307Y01389D02*
X04338D01*
X04307Y01545D02*
X04338D01*
X04307Y01604D02*
X04338D01*
X04294Y0175D02*
X04325D01*
X04294Y01809D02*
X04325D01*
X03423Y01667D02*
X03576D01*
X03858Y01657D02*
X04011D01*
X03888Y01082D02*
X04041D01*
X02978Y01192D02*
X03131D01*
X02688D02*
X02841D01*
X02393D02*
X02546D01*
X03413Y01387D02*
X03566D01*
X04171Y02139D02*
X04218D01*
X04171Y02389D02*
X04218D01*
X0392Y02146D02*
Y02193D01*
X03966Y02384D02*
X04013D01*
X03716Y01864D02*
X03763D01*
X03466Y01994D02*
X03513D01*
X03251Y02009D02*
X03298D01*
X03711Y02119D02*
X03758D01*
X03706Y02384D02*
X03753D01*
X03512Y0227D02*
X03543D01*
X03512Y02329D02*
X03543D01*
X03512Y02465D02*
X03543D01*
X03512Y02524D02*
X03543D01*
X03287Y02275D02*
X03318D01*
X03287Y02334D02*
X03318D01*
X03297Y02465D02*
X03328D01*
X03297Y02524D02*
X03328D01*
X03089Y02401D02*
Y02432D01*
X0303Y02401D02*
Y02432D01*
X02892Y0247D02*
X02923D01*
X02892Y02529D02*
X02923D01*
X02686Y0229D02*
X02717D01*
X02686Y02349D02*
X02717D01*
X02684Y02475D02*
X02715D01*
X02684Y02534D02*
X02715D01*
X01517Y02745D02*
X01548D01*
X01517Y02804D02*
X01548D01*
X02528Y0248D02*
Y0298D01*
X02328Y0248D02*
Y0298D01*
Y0248D02*
X02528D01*
X02328Y0298D02*
X02528D01*
X03175Y0169D02*
X03275D01*
Y0149D02*
Y0169D01*
X03175Y0149D02*
X03275D01*
X03175D02*
Y0169D01*
X02385Y01483D02*
Y02216D01*
X02984Y01483D02*
Y02216D01*
X02385Y01483D02*
X02614D01*
X02385Y02216D02*
X02614D01*
X02755Y01483D02*
X02984D01*
X02755Y02216D02*
X02984D01*
X02184Y02301D02*
Y02332D01*
X02125Y02301D02*
Y02332D01*
X02147Y0203D02*
X02178D01*
X02147Y02089D02*
X02178D01*
X02142Y0182D02*
X02173D01*
X02142Y01879D02*
X02173D01*
X02147Y01635D02*
X02178D01*
X02147Y01694D02*
X02178D01*
X01522Y02535D02*
X01553D01*
X01522Y02594D02*
X01553D01*
X01928Y01228D02*
Y01411D01*
Y01228D02*
X02021D01*
Y01411*
X01928D02*
X02021D01*
X01975D02*
Y01461D01*
Y01178D02*
Y01228D01*
X01928Y01278D02*
X02021D01*
X01743Y02042D02*
X01896D01*
X01517Y02305D02*
X01548D01*
X01517Y02364D02*
X01548D01*
X01832Y02253D02*
Y02446D01*
Y02253D02*
X01893D01*
Y02446*
X01832D02*
X01893D01*
X01522Y02095D02*
X01553D01*
X01522Y02154D02*
X01553D01*
X01527Y01905D02*
X01558D01*
X01527Y01964D02*
X01558D01*
X0131Y02135D02*
Y02544D01*
X0133Y02135D02*
Y02544D01*
X01149Y02135D02*
Y02544D01*
Y02135D02*
X0133D01*
X01149Y02544D02*
X0133D01*
X01817Y0164D02*
X01848D01*
X01817Y01699D02*
X01848D01*
X01205Y03025D02*
X01305D01*
Y02825D02*
Y03025D01*
X01205Y02825D02*
X01305D01*
X01205D02*
Y03025D01*
X01763Y01792D02*
X01916D01*
X01203D02*
X01356D01*
X01499Y01354D02*
Y01385D01*
X0144Y01354D02*
Y01385D01*
X01677Y01275D02*
X01708D01*
X01677Y01334D02*
X01708D01*
X01512Y016D02*
X01543D01*
X01512Y01659D02*
X01543D01*
X011Y01135D02*
X013D01*
Y01585*
X012D02*
X013D01*
X012Y01535D02*
Y01585D01*
X011Y01535D02*
X012D01*
X011Y01135D02*
Y01535D01*
X01527Y01755D02*
X01558D01*
X01527Y01814D02*
X01558D01*
G54D12*
X02398Y0299D02*
Y03006D01*
Y02998*
X02348*
X02356Y0299*
Y03031D02*
X02348Y03039D01*
Y03056*
X02356Y03064*
X02389*
X02398Y03056*
Y03039*
X02389Y03031*
X02356*
X02489Y0299D02*
X02498Y02998D01*
Y03014*
X02489Y03023*
X02456*
X02448Y03014*
Y02998*
X02456Y0299*
X02464*
X02473Y02998*
Y03023*
X02498Y0245D02*
Y02466D01*
Y02458*
X02448*
X02456Y0245*
X02398Y02463D02*
Y0243D01*
X02364Y02463*
X02356*
X02348Y02454*
Y02438*
X02356Y0243*
G54D13*
X01708Y02549D02*
Y025D01*
X01718Y0249*
X01737*
X01747Y025*
Y02549*
X01767Y02539D02*
X01777Y02549D01*
X01797*
X01807Y02539*
Y02529*
X01787Y02509*
Y025D02*
Y0249D01*
X04584Y02651D02*
X04623D01*
X04603*
Y02592*
X04643D02*
X04663D01*
X04653*
Y02651*
X04643Y02641*
X04733Y02651D02*
X04693D01*
Y02621*
X04713Y02631*
X04723*
X04733Y02621*
Y02602*
X04723Y02592*
X04703*
X04693Y02602*
X04839Y02656D02*
X04878D01*
X04858*
Y02597*
X04898D02*
X04918D01*
X04908*
Y02656*
X04898Y02646*
X04978Y02597D02*
Y02656D01*
X04948Y02626*
X04988*
X03384Y01906D02*
X03423D01*
X03403*
Y01847*
X03443D02*
X03463D01*
X03453*
Y01906*
X03443Y01896*
X03493D02*
X03503Y01906D01*
X03523*
X03533Y01896*
Y01886*
X03523Y01876*
X03513*
X03523*
X03533Y01866*
Y01857*
X03523Y01847*
X03503*
X03493Y01857*
X03819Y01896D02*
X03858D01*
X03838*
Y01837*
X03878D02*
X03898D01*
X03888*
Y01896*
X03878Y01886*
X03968Y01837D02*
X03928D01*
X03968Y01876*
Y01886*
X03958Y01896*
X03938*
X03928Y01886*
X03849Y01321D02*
X03888D01*
X03868*
Y01262*
X03908D02*
X03928D01*
X03918*
Y01321*
X03908Y01311*
X03958Y01262D02*
X03978D01*
X03968*
Y01321*
X03958Y01311*
X03829Y01591D02*
X03868D01*
X03848*
Y01532*
X03888D02*
X03908D01*
X03898*
Y01591*
X03888Y01581*
X03938D02*
X03948Y01591D01*
X03968*
X03978Y01581*
Y01542*
X03968Y01532*
X03948*
X03938Y01542*
Y01581*
X03426Y01344D02*
X03466D01*
X03446*
Y01285*
X03486Y01295D02*
X03496Y01285D01*
X03516*
X03526Y01295*
Y01334*
X03516Y01344*
X03496*
X03486Y01334*
Y01325*
X03496Y01315*
X03526*
X02939Y01431D02*
X02978D01*
X02958*
Y01372*
X02998Y01421D02*
X03008Y01431D01*
X03028*
X03038Y01421*
Y01411*
X03028Y01401*
X03038Y01391*
Y01382*
X03028Y01372*
X03008*
X02998Y01382*
Y01391*
X03008Y01401*
X02998Y01411*
Y01421*
X03008Y01401D02*
X03028D01*
X02649Y01431D02*
X02688D01*
X02668*
Y01372*
X02708Y01431D02*
X02748D01*
Y01421*
X02708Y01382*
Y01372*
X02354Y01431D02*
X02393D01*
X02373*
Y01372*
X02453Y01431D02*
X02433Y01421D01*
X02413Y01401*
Y01382*
X02423Y01372*
X02443*
X02453Y01382*
Y01391*
X02443Y01401*
X02413*
X03374Y01626D02*
X03413D01*
X03393*
Y01567*
X03473Y01626D02*
X03433D01*
Y01596*
X03453Y01606*
X03463*
X03473Y01596*
Y01577*
X03463Y01567*
X03443*
X03433Y01577*
X01148Y02669D02*
X01187D01*
X01167*
Y0261*
X01237D02*
Y02669D01*
X01207Y02639*
X01247*
X01724Y02031D02*
X01763D01*
X01743*
Y01972*
X01783Y02021D02*
X01793Y02031D01*
X01813*
X01823Y02021*
Y02011*
X01813Y02001*
X01803*
X01813*
X01823Y01991*
Y01982*
X01813Y01972*
X01793*
X01783Y01982*
X01704Y02281D02*
X01743D01*
X01723*
Y02222*
X01803D02*
X01763D01*
X01803Y02261*
Y02271*
X01793Y02281*
X01773*
X01763Y02271*
X01164Y02031D02*
X01203D01*
X01183*
Y01972*
X01223D02*
X01243D01*
X01233*
Y02031*
X01223Y02021*
X01441Y01481D02*
Y0154D01*
X0147*
X0148Y0153*
Y0151*
X0147Y015*
X01441*
X0146D02*
X0148Y01481D01*
X015Y0153D02*
X0151Y0154D01*
X0153*
X0154Y0153*
Y0152*
X0153Y0151*
X0152*
X0153*
X0154Y015*
Y01491*
X0153Y01481*
X0151*
X015Y01491*
X0156Y0153D02*
X0157Y0154D01*
X0159*
X016Y0153*
Y0152*
X0159Y0151*
X016Y015*
Y01491*
X0159Y01481*
X0157*
X0156Y01491*
Y015*
X0157Y0151*
X0156Y0152*
Y0153*
X0157Y0151D02*
X0159D01*
X04791Y01733D02*
Y01792D01*
X0482*
X0483Y01782*
Y01762*
X0482Y01752*
X04791*
X0481D02*
X0483Y01733D01*
X0485Y01782D02*
X0486Y01792D01*
X0488*
X0489Y01782*
Y01772*
X0488Y01762*
X0487*
X0488*
X0489Y01752*
Y01743*
X0488Y01733*
X0486*
X0485Y01743*
X0491Y01792D02*
X0495D01*
Y01782*
X0491Y01743*
Y01733*
X04681Y01903D02*
Y01962D01*
X0471*
X0472Y01952*
Y01932*
X0471Y01922*
X04681*
X047D02*
X0472Y01903D01*
X0474Y01952D02*
X0475Y01962D01*
X0477*
X0478Y01952*
Y01942*
X0477Y01932*
X0476*
X0477*
X0478Y01922*
Y01913*
X0477Y01903*
X0475*
X0474Y01913*
X0484Y01962D02*
X0482Y01952D01*
X048Y01932*
Y01913*
X0481Y01903*
X0483*
X0484Y01913*
Y01922*
X0483Y01932*
X048*
X04861Y02283D02*
Y02342D01*
X0489*
X049Y02332*
Y02312*
X0489Y02302*
X04861*
X0488D02*
X049Y02283D01*
X0492Y02332D02*
X0493Y02342D01*
X0495*
X0496Y02332*
Y02322*
X0495Y02312*
X0494*
X0495*
X0496Y02302*
Y02293*
X0495Y02283*
X0493*
X0492Y02293*
X0502Y02342D02*
X0498D01*
Y02312*
X05Y02322*
X0501*
X0502Y02312*
Y02293*
X0501Y02283*
X0499*
X0498Y02293*
X04591Y02273D02*
Y02332D01*
X0462*
X0463Y02322*
Y02302*
X0462Y02292*
X04591*
X0461D02*
X0463Y02273D01*
X0465Y02322D02*
X0466Y02332D01*
X0468*
X0469Y02322*
Y02312*
X0468Y02302*
X0467*
X0468*
X0469Y02292*
Y02283*
X0468Y02273*
X0466*
X0465Y02283*
X0474Y02273D02*
Y02332D01*
X0471Y02302*
X0475*
X04171Y02563D02*
Y02622D01*
X042*
X0421Y02612*
Y02592*
X042Y02582*
X04171*
X0419D02*
X0421Y02563D01*
X0423Y02612D02*
X0424Y02622D01*
X0426*
X0427Y02612*
Y02602*
X0426Y02592*
X0425*
X0426*
X0427Y02582*
Y02573*
X0426Y02563*
X0424*
X0423Y02573*
X0429Y02612D02*
X043Y02622D01*
X0432*
X0433Y02612*
Y02602*
X0432Y02592*
X0431*
X0432*
X0433Y02582*
Y02573*
X0432Y02563*
X043*
X0429Y02573*
X04171Y02313D02*
Y02372D01*
X042*
X0421Y02362*
Y02342*
X042Y02332*
X04171*
X0419D02*
X0421Y02313D01*
X0423Y02362D02*
X0424Y02372D01*
X0426*
X0427Y02362*
Y02352*
X0426Y02342*
X0425*
X0426*
X0427Y02332*
Y02323*
X0426Y02313*
X0424*
X0423Y02323*
X0433Y02313D02*
X0429D01*
X0433Y02352*
Y02362*
X0432Y02372*
X043*
X0429Y02362*
X03927Y02234D02*
Y02293D01*
X03956*
X03966Y02283*
Y02263*
X03956Y02253*
X03927*
X03946D02*
X03966Y02234D01*
X03986Y02283D02*
X03996Y02293D01*
X04016*
X04026Y02283*
Y02273*
X04016Y02263*
X04006*
X04016*
X04026Y02253*
Y02244*
X04016Y02234*
X03996*
X03986Y02244*
X04046Y02234D02*
X04066D01*
X04056*
Y02293*
X04046Y02283*
X03966Y02558D02*
Y02617D01*
X03995*
X04005Y02607*
Y02587*
X03995Y02577*
X03966*
X03985D02*
X04005Y02558D01*
X04025Y02607D02*
X04035Y02617D01*
X04055*
X04065Y02607*
Y02597*
X04055Y02587*
X04045*
X04055*
X04065Y02577*
Y02568*
X04055Y02558*
X04035*
X04025Y02568*
X04085Y02607D02*
X04095Y02617D01*
X04115*
X04125Y02607*
Y02568*
X04115Y02558*
X04095*
X04085Y02568*
Y02607*
X03716Y02038D02*
Y02097D01*
X03745*
X03755Y02087*
Y02067*
X03745Y02057*
X03716*
X03735D02*
X03755Y02038D01*
X03815D02*
X03775D01*
X03815Y02077*
Y02087*
X03805Y02097*
X03785*
X03775Y02087*
X03835Y02048D02*
X03845Y02038D01*
X03865*
X03875Y02048*
Y02087*
X03865Y02097*
X03845*
X03835Y02087*
Y02077*
X03845Y02067*
X03875*
X03466Y02168D02*
Y02227D01*
X03495*
X03505Y02217*
Y02197*
X03495Y02187*
X03466*
X03485D02*
X03505Y02168D01*
X03565D02*
X03525D01*
X03565Y02207*
Y02217*
X03555Y02227*
X03535*
X03525Y02217*
X03585D02*
X03595Y02227D01*
X03615*
X03625Y02217*
Y02207*
X03615Y02197*
X03625Y02187*
Y02178*
X03615Y02168*
X03595*
X03585Y02178*
Y02187*
X03595Y02197*
X03585Y02207*
Y02217*
X03595Y02197D02*
X03615D01*
X03251Y02183D02*
Y02242D01*
X0328*
X0329Y02232*
Y02212*
X0328Y02202*
X03251*
X0327D02*
X0329Y02183D01*
X0335D02*
X0331D01*
X0335Y02222*
Y02232*
X0334Y02242*
X0332*
X0331Y02232*
X0337Y02242D02*
X0341D01*
Y02232*
X0337Y02193*
Y02183*
X03711Y02293D02*
Y02352D01*
X0374*
X0375Y02342*
Y02322*
X0374Y02312*
X03711*
X0373D02*
X0375Y02293D01*
X0381D02*
X0377D01*
X0381Y02332*
Y02342*
X038Y02352*
X0378*
X0377Y02342*
X0387Y02352D02*
X0385Y02342D01*
X0383Y02322*
Y02303*
X0384Y02293*
X0386*
X0387Y02303*
Y02312*
X0386Y02322*
X0383*
X03706Y02558D02*
Y02617D01*
X03735*
X03745Y02607*
Y02587*
X03735Y02577*
X03706*
X03725D02*
X03745Y02558D01*
X03805D02*
X03765D01*
X03805Y02597*
Y02607*
X03795Y02617*
X03775*
X03765Y02607*
X03865Y02617D02*
X03825D01*
Y02587*
X03845Y02597*
X03855*
X03865Y02587*
Y02568*
X03855Y02558*
X03835*
X03825Y02568*
X04666Y01443D02*
Y01502D01*
X04695*
X04705Y01492*
Y01472*
X04695Y01462*
X04666*
X04685D02*
X04705Y01443D01*
X04765D02*
X04725D01*
X04765Y01482*
Y01492*
X04755Y01502*
X04735*
X04725Y01492*
X04815Y01443D02*
Y01502D01*
X04785Y01472*
X04825*
X04466Y01439D02*
Y01498D01*
X04495*
X04505Y01488*
Y01468*
X04495Y01458*
X04466*
X04485D02*
X04505Y01439D01*
X04565D02*
X04525D01*
X04565Y01478*
Y01488*
X04555Y01498*
X04535*
X04525Y01488*
X04585D02*
X04595Y01498D01*
X04615*
X04625Y01488*
Y01478*
X04615Y01468*
X04605*
X04615*
X04625Y01458*
Y01449*
X04615Y01439*
X04595*
X04585Y01449*
X02126Y02428D02*
Y02487D01*
X02155*
X02165Y02477*
Y02457*
X02155Y02447*
X02126*
X02145D02*
X02165Y02428D01*
X02225D02*
X02185D01*
X02225Y02467*
Y02477*
X02215Y02487*
X02195*
X02185Y02477*
X02285Y02428D02*
X02245D01*
X02285Y02467*
Y02477*
X02275Y02487*
X02255*
X02245Y02477*
X01762Y01739D02*
Y01798D01*
X01791*
X01801Y01788*
Y01768*
X01791Y01758*
X01762*
X01781D02*
X01801Y01739D01*
X01861D02*
X01821D01*
X01861Y01778*
Y01788*
X01851Y01798*
X01831*
X01821Y01788*
X01881Y01739D02*
X01901D01*
X01891*
Y01798*
X01881Y01788*
X03031Y02528D02*
Y02587D01*
X0306*
X0307Y02577*
Y02557*
X0306Y02547*
X03031*
X0305D02*
X0307Y02528D01*
X0313D02*
X0309D01*
X0313Y02567*
Y02577*
X0312Y02587*
X031*
X0309Y02577*
X0315D02*
X0316Y02587D01*
X0318*
X0319Y02577*
Y02538*
X0318Y02528*
X0316*
X0315Y02538*
Y02577*
X02837Y02569D02*
Y02628D01*
X02866*
X02876Y02618*
Y02598*
X02866Y02588*
X02837*
X02856D02*
X02876Y02569D01*
X02896D02*
X02916D01*
X02906*
Y02628*
X02896Y02618*
X02946Y02579D02*
X02956Y02569D01*
X02976*
X02986Y02579*
Y02618*
X02976Y02628*
X02956*
X02946Y02618*
Y02608*
X02956Y02598*
X02986*
X03457Y02369D02*
Y02428D01*
X03486*
X03496Y02418*
Y02398*
X03486Y02388*
X03457*
X03476D02*
X03496Y02369D01*
X03516D02*
X03536D01*
X03526*
Y02428*
X03516Y02418*
X03566D02*
X03576Y02428D01*
X03596*
X03606Y02418*
Y02408*
X03596Y02398*
X03606Y02388*
Y02379*
X03596Y02369*
X03576*
X03566Y02379*
Y02388*
X03576Y02398*
X03566Y02408*
Y02418*
X03576Y02398D02*
X03596D01*
X02631Y02389D02*
Y02448D01*
X0266*
X0267Y02438*
Y02418*
X0266Y02408*
X02631*
X0265D02*
X0267Y02389D01*
X0269D02*
X0271D01*
X027*
Y02448*
X0269Y02438*
X0274Y02448D02*
X0278D01*
Y02438*
X0274Y02399*
Y02389*
X02629Y02574D02*
Y02633D01*
X02658*
X02668Y02623*
Y02603*
X02658Y02593*
X02629*
X02648D02*
X02668Y02574D01*
X02688D02*
X02708D01*
X02698*
Y02633*
X02688Y02623*
X02778Y02633D02*
X02758Y02623D01*
X02738Y02603*
Y02584*
X02748Y02574*
X02768*
X02778Y02584*
Y02593*
X02768Y02603*
X02738*
X01462Y02844D02*
Y02903D01*
X01491*
X01501Y02893*
Y02873*
X01491Y02863*
X01462*
X01481D02*
X01501Y02844D01*
X01521D02*
X01541D01*
X01531*
Y02903*
X01521Y02893*
X01611Y02903D02*
X01571D01*
Y02873*
X01591Y02883*
X01601*
X01611Y02873*
Y02854*
X01601Y02844*
X01581*
X01571Y02854*
X03457Y02564D02*
Y02623D01*
X03486*
X03496Y02613*
Y02593*
X03486Y02583*
X03457*
X03476D02*
X03496Y02564D01*
X03516D02*
X03536D01*
X03526*
Y02623*
X03516Y02613*
X03596Y02564D02*
Y02623D01*
X03566Y02593*
X03606*
X03232Y02374D02*
Y02433D01*
X03261*
X03271Y02423*
Y02403*
X03261Y02393*
X03232*
X03251D02*
X03271Y02374D01*
X03291D02*
X03311D01*
X03301*
Y02433*
X03291Y02423*
X03341D02*
X03351Y02433D01*
X03371*
X03381Y02423*
Y02413*
X03371Y02403*
X03361*
X03371*
X03381Y02393*
Y02384*
X03371Y02374*
X03351*
X03341Y02384*
X03242Y02564D02*
Y02623D01*
X03271*
X03281Y02613*
Y02593*
X03271Y02583*
X03242*
X03261D02*
X03281Y02564D01*
X03301D02*
X03321D01*
X03311*
Y02623*
X03301Y02613*
X03391Y02564D02*
X03351D01*
X03391Y02603*
Y02613*
X03381Y02623*
X03361*
X03351Y02613*
X01467Y02634D02*
Y02693D01*
X01496*
X01506Y02683*
Y02663*
X01496Y02653*
X01467*
X01486D02*
X01506Y02634D01*
X01526D02*
X01546D01*
X01536*
Y02693*
X01526Y02683*
X01576Y02634D02*
X01596D01*
X01586*
Y02693*
X01576Y02683*
X01622Y01374D02*
Y01433D01*
X01651*
X01661Y01423*
Y01403*
X01651Y01393*
X01622*
X01641D02*
X01661Y01374D01*
X01681D02*
X01701D01*
X01691*
Y01433*
X01681Y01423*
X01731D02*
X01741Y01433D01*
X01761*
X01771Y01423*
Y01384*
X01761Y01374*
X01741*
X01731Y01384*
Y01423*
X01472Y02004D02*
Y02063D01*
X01501*
X01511Y02053*
Y02033*
X01501Y02023*
X01472*
X01491D02*
X01511Y02004D01*
X01531Y02014D02*
X01541Y02004D01*
X01561*
X01571Y02014*
Y02053*
X01561Y02063*
X01541*
X01531Y02053*
Y02043*
X01541Y02033*
X01571*
X04472Y01639D02*
Y01698D01*
X04501*
X04511Y01688*
Y01668*
X04501Y01658*
X04472*
X04491D02*
X04511Y01639D01*
X04531Y01688D02*
X04541Y01698D01*
X04561*
X04571Y01688*
Y01678*
X04561Y01668*
X04571Y01658*
Y01649*
X04561Y01639*
X04541*
X04531Y01649*
Y01658*
X04541Y01668*
X04531Y01678*
Y01688*
X04541Y01668D02*
X04561D01*
X04467Y01849D02*
Y01908D01*
X04496*
X04506Y01898*
Y01878*
X04496Y01868*
X04467*
X04486D02*
X04506Y01849D01*
X04526Y01908D02*
X04566D01*
Y01898*
X04526Y01859*
Y01849*
X04257Y01224D02*
Y01283D01*
X04286*
X04296Y01273*
Y01253*
X04286Y01243*
X04257*
X04276D02*
X04296Y01224D01*
X04356Y01283D02*
X04336Y01273D01*
X04316Y01253*
Y01234*
X04326Y01224*
X04346*
X04356Y01234*
Y01243*
X04346Y01253*
X04316*
X04252Y01429D02*
Y01488D01*
X04281*
X04291Y01478*
Y01458*
X04281Y01448*
X04252*
X04271D02*
X04291Y01429D01*
X04351Y01488D02*
X04311D01*
Y01458*
X04331Y01468*
X04341*
X04351Y01458*
Y01439*
X04341Y01429*
X04321*
X04311Y01439*
X04252Y01644D02*
Y01703D01*
X04281*
X04291Y01693*
Y01673*
X04281Y01663*
X04252*
X04271D02*
X04291Y01644D01*
X04341D02*
Y01703D01*
X04311Y01673*
X04351*
X04239Y01849D02*
Y01908D01*
X04268*
X04278Y01898*
Y01878*
X04268Y01868*
X04239*
X04258D02*
X04278Y01849D01*
X04298Y01898D02*
X04308Y01908D01*
X04328*
X04338Y01898*
Y01888*
X04328Y01878*
X04318*
X04328*
X04338Y01868*
Y01859*
X04328Y01849*
X04308*
X04298Y01859*
X04467Y01199D02*
Y01258D01*
X04496*
X04506Y01248*
Y01228*
X04496Y01218*
X04467*
X04486D02*
X04506Y01199D01*
X04566D02*
X04526D01*
X04566Y01238*
Y01248*
X04556Y01258*
X04536*
X04526Y01248*
X01467Y02194D02*
Y02253D01*
X01496*
X01506Y02243*
Y02223*
X01496Y02213*
X01467*
X01486D02*
X01506Y02194D01*
X01526D02*
X01546D01*
X01536*
Y02253*
X01526Y02243*
X01211Y03059D02*
Y03118D01*
X0124*
X0125Y03108*
Y03088*
X0124Y03078*
X01211*
X0127Y03108D02*
X0128Y03118D01*
X013*
X0131Y03108*
Y03098*
X0129Y03078*
Y03069D02*
Y03059D01*
X05086Y02084D02*
Y02143D01*
X05115*
X05125Y02133*
Y02113*
X05115Y02103*
X05086*
X05145Y02133D02*
X05155Y02143D01*
X05175*
X05185Y02133*
Y02123*
X05165Y02103*
Y02094D02*
Y02084D01*
X01106Y01619D02*
Y01678D01*
X01135*
X01145Y01668*
Y01648*
X01135Y01638*
X01106*
X01165Y01619D02*
X01185D01*
X01175*
Y01678*
X01165Y01668*
X03191Y01724D02*
X0321D01*
X0322Y01734*
Y01753*
X0321Y01763*
X03191*
X03181Y01753*
Y01734*
X03191Y01724*
X0324Y01763D02*
Y01734D01*
X0325Y01724*
X0328*
Y01763*
X0331Y01773D02*
Y01763D01*
X033*
X0332*
X0331*
Y01734*
X0332Y01724*
X02382Y02339D02*
Y0228D01*
X02421*
X02441D02*
X02461D01*
X02451*
Y02339*
X02441Y02329*
X02334Y03162D02*
Y03103D01*
Y03122*
X02373Y03162*
X02344Y03132*
X02373Y03103*
X02433D02*
X02393D01*
X02433Y03142*
Y03152*
X02423Y03162*
X02403*
X02393Y03152*
X04421Y02678D02*
X0444D01*
X04431*
Y02619*
X04421*
X0444*
X0447D02*
Y02678D01*
X0451Y02619*
Y02678*
X01501Y02463D02*
X01462D01*
Y02433*
X01481*
X01462*
Y02404*
X01521D02*
X01541D01*
X01531*
Y02463*
X01521Y02453*
X01935Y01631D02*
Y01572D01*
X01964*
X01974Y01582*
Y01621*
X01964Y01631*
X01935*
X01994Y01572D02*
X02014D01*
X02004*
Y01631*
X01994Y01621*
X02126Y01968D02*
X02116Y01978D01*
X02097*
X02087Y01968*
Y01929*
X02097Y01919*
X02116*
X02126Y01929*
X02186Y01978D02*
X02146D01*
Y01948*
X02166Y01958*
X02176*
X02186Y01948*
Y01929*
X02176Y01919*
X02156*
X02146Y01929*
X02131Y01783D02*
X02121Y01793D01*
X02102*
X02092Y01783*
Y01744*
X02102Y01734*
X02121*
X02131Y01744*
X02181Y01734D02*
Y01793D01*
X02151Y01763*
X02191*
X01496Y01748D02*
X01486Y01758D01*
X01467*
X01457Y01748*
Y01709*
X01467Y01699*
X01486*
X01496Y01709*
X01516Y01748D02*
X01526Y01758D01*
X01546*
X01556Y01748*
Y01738*
X01546Y01728*
X01536*
X01546*
X01556Y01718*
Y01709*
X01546Y01699*
X01526*
X01516Y01709*
X02131Y02178D02*
X02121Y02188D01*
X02102*
X02092Y02178*
Y02139*
X02102Y02129*
X02121*
X02131Y02139*
X02191Y02129D02*
X02151D01*
X02191Y02168*
Y02178*
X02181Y02188*
X02161*
X02151Y02178*
X01511Y01903D02*
X01501Y01913D01*
X01482*
X01472Y01903*
Y01864*
X01482Y01854*
X01501*
X01511Y01864*
X01531Y01854D02*
X01551D01*
X01541*
Y01913*
X01531Y01903*
M02*