%FSTAX23Y23*%
%MOIN*%
%SFA1B1*%

%IPPOS*%
%AMD19*
4,1,8,0.031300,0.011500,-0.031300,0.011500,-0.042800,0.000000,-0.042800,0.000000,-0.031300,-0.011500,0.031300,-0.011500,0.042800,0.000000,0.042800,0.000000,0.031300,0.011500,0.0*
1,1,0.022960,0.031300,0.000000*
1,1,0.022960,-0.031300,0.000000*
1,1,0.022960,-0.031300,0.000000*
1,1,0.022960,0.031300,0.000000*
%
%ADD14R,0.055120X0.055120*%
%ADD15R,0.043310X0.066930*%
%ADD16R,0.055120X0.055120*%
%ADD17R,0.066930X0.043310*%
%ADD18R,0.109840X0.114960*%
G04~CAMADD=19~8~0.0~0.0~855.9~229.7~114.8~0.0~15~0.0~0.0~0.0~0.0~0~0.0~0.0~0.0~0.0~0~0.0~0.0~0.0~0.0~855.9~229.7*
%ADD19D19*%
%ADD20R,0.085590X0.022970*%
%LNpcb1-1*%
%LPD*%
G54D14*
X04885Y02149D03*
Y0222D03*
X04615Y02139D03*
Y0221D03*
X04815Y01599D03*
Y0167D03*
X04705Y01769D03*
Y0184D03*
X0469Y01309D03*
Y0138D03*
X0449Y01304D03*
Y01375D03*
X04195Y02179D03*
Y0225D03*
Y02429D03*
Y025D03*
X0399Y02424D03*
Y02495D03*
X0374Y01904D03*
Y01975D03*
X0349Y02034D03*
Y02105D03*
X03275Y02049D03*
Y0212D03*
X03735Y02159D03*
Y0223D03*
X0373Y02424D03*
Y02495D03*
G54D15*
X04591Y0113D03*
X04485D03*
X04596Y0157D03*
X0449D03*
X04591Y0178D03*
X04485D03*
X04381Y01155D03*
X04275D03*
X04376Y0136D03*
X0427D03*
X04376Y01575D03*
X0427D03*
X04363Y0178D03*
X04256D03*
X03581Y023D03*
X03475D03*
X03581Y02495D03*
X03475D03*
X03356Y02305D03*
X0325D03*
X03366Y02495D03*
X0326D03*
X02961Y025D03*
X02855D03*
X02755Y0232D03*
X02648D03*
X02753Y02504D03*
X02646D03*
X01586Y02775D03*
X0148D03*
X02216Y0206D03*
X0211D03*
X02211Y0185D03*
X02105D03*
X02216Y01665D03*
X0211D03*
X01591Y02565D03*
X01485D03*
X01586Y02335D03*
X0148D03*
X01591Y02125D03*
X01485D03*
X01596Y01935D03*
X0149D03*
X01886Y0167D03*
X0178D03*
X01746Y01305D03*
X0164D03*
X01581Y0163D03*
X01475D03*
X01596Y01785D03*
X0149D03*
G54D16*
X0396Y0217D03*
X0403D03*
G54D17*
X0306Y0247D03*
Y02363D03*
X02155Y0237D03*
Y02263D03*
X0147Y01423D03*
Y01316D03*
G54D18*
X02685Y01547D03*
Y02152D03*
G54D19*
X01956Y02425D03*
Y02375D03*
Y02325D03*
Y02275D03*
X0177D03*
Y02325D03*
Y02375D03*
G54D20*
X0177Y02425D03*
M02*