%FSTAX23Y23*%
%MOIN*%
%SFA1B1*%

%IPPOS*%
%ADD48C,0.002000*%
%ADD49C,0.002670*%
%LNpcb1-1*%
%LPD*%
G54D48*
X03987Y01397D02*
Y01413D01*
X04003*
Y01397*
X03987*
X03937D02*
Y01413D01*
X03953*
Y01397*
X03937*
X03887D02*
Y01413D01*
X03903*
Y01397*
X03887*
X03427Y01152D02*
Y01168D01*
X03443*
Y01152*
X03427*
X03477D02*
Y01168D01*
X03493*
Y01152*
X03477*
X03527D02*
Y01168D01*
X03543*
Y01152*
X03527*
X04897Y02462D02*
Y02478D01*
X04913*
Y02462*
X04897*
X04947D02*
Y02478D01*
X04963*
Y02462*
X04947*
X04997D02*
Y02478D01*
X05013*
Y02462*
X04997*
X04642Y02457D02*
Y02473D01*
X04658*
Y02457*
X04642*
X04692D02*
Y02473D01*
X04708*
Y02457*
X04692*
X04742D02*
Y02473D01*
X04758*
Y02457*
X04742*
X03442Y01712D02*
Y01728D01*
X03458*
Y01712*
X03442*
X03492D02*
Y01728D01*
X03508*
Y01712*
X03492*
X03542D02*
Y01728D01*
X03558*
Y01712*
X03542*
X03877Y01702D02*
Y01718D01*
X03893*
Y01702*
X03877*
X03927D02*
Y01718D01*
X03943*
Y01702*
X03927*
X03977D02*
Y01718D01*
X03993*
Y01702*
X03977*
X03907Y01127D02*
Y01143D01*
X03923*
Y01127*
X03907*
X03957D02*
Y01143D01*
X03973*
Y01127*
X03957*
X04007D02*
Y01143D01*
X04023*
Y01127*
X04007*
X02997Y01237D02*
Y01253D01*
X03013*
Y01237*
X02997*
X03047D02*
Y01253D01*
X03063*
Y01237*
X03047*
X03097D02*
Y01253D01*
X03113*
Y01237*
X03097*
X02707D02*
Y01253D01*
X02723*
Y01237*
X02707*
X02757D02*
Y01253D01*
X02773*
Y01237*
X02757*
X02807D02*
Y01253D01*
X02823*
Y01237*
X02807*
X02412D02*
Y01253D01*
X02428*
Y01237*
X02412*
X02462D02*
Y01253D01*
X02478*
Y01237*
X02462*
X02512D02*
Y01253D01*
X02528*
Y01237*
X02512*
X03432Y01432D02*
Y01448D01*
X03448*
Y01432*
X03432*
X03482D02*
Y01448D01*
X03498*
Y01432*
X03482*
X03532D02*
Y01448D01*
X03548*
Y01432*
X03532*
X01975Y01124D02*
X01967Y0114D01*
X01983*
X01975Y01124*
Y01499D02*
X01967Y01515D01*
X01983*
X01975Y01499*
X01762Y02087D02*
Y02103D01*
X01778*
Y02087*
X01762*
X01812D02*
Y02103D01*
X01828*
Y02087*
X01812*
X01862D02*
Y02103D01*
X01878*
Y02087*
X01862*
X01225Y02232D02*
X01229Y02236D01*
X01233*
X01229Y0224*
X01233Y02244*
X01229*
X01225Y02248*
X01221Y02244*
X01217*
X01221Y0224*
X01217Y02236*
X01221*
X01225Y02232*
Y02332D02*
X01229Y02336D01*
X01233*
X01229Y0234*
X01233Y02344*
X01229*
X01225Y02348*
X01221Y02344*
X01217*
X01221Y0234*
X01217Y02336*
X01221*
X01225Y02332*
Y02432D02*
X01229Y02436D01*
X01233*
X01229Y0244*
X01233Y02444*
X01229*
X01225Y02448*
X01221Y02444*
X01217*
X01221Y0244*
X01217Y02436*
X01221*
X01225Y02432*
X01782Y01837D02*
Y01853D01*
X01798*
Y01837*
X01782*
X01832D02*
Y01853D01*
X01848*
Y01837*
X01832*
X01882D02*
Y01853D01*
X01898*
Y01837*
X01882*
X01222D02*
Y01853D01*
X01238*
Y01837*
X01222*
X01272D02*
Y01853D01*
X01288*
Y01837*
X01272*
X01322D02*
Y01853D01*
X01338*
Y01837*
X01322*
X01192Y01227D02*
X01196Y01235D01*
X01192Y01243*
X012Y01239*
X01208Y01243*
X01204Y01235*
X01208Y01227*
X012Y01231*
X01192Y01227*
Y01327D02*
X01196Y01335D01*
X01192Y01343*
X012Y01339*
X01208Y01343*
X01204Y01335*
X01208Y01327*
X012Y01331*
X01192Y01327*
Y01427D02*
X01196Y01435D01*
X01192Y01443*
X012Y01439*
X01208Y01443*
X01204Y01435*
X01208Y01427*
X012Y01431*
X01192Y01427*
X04754Y01589D02*
Y01585D01*
X04762*
Y01589*
X04766*
Y01597*
X04762*
Y01601*
X04754*
Y01597*
X0475*
Y01589*
X04754*
X01881Y02186D02*
Y02182D01*
X01889*
Y02186*
X01893*
Y02194*
X01889*
Y02198*
X01881*
Y02194*
X01877*
Y02186*
X01881*
X01675Y01786D02*
Y01782D01*
X01683*
Y01786*
X01687*
Y01794*
X01683*
Y01798*
X01675*
Y01794*
X01671*
Y01786*
X01675*
X04359Y01671D02*
Y01667D01*
X04367*
Y01671*
X04371*
Y01679*
X04367*
Y01683*
X04359*
Y01679*
X04355*
Y01671*
X04359*
X04392Y01293D02*
Y01289D01*
X044*
Y01293*
X04404*
Y01301*
X044*
Y01305*
X04392*
Y01301*
X04388*
Y01293*
X04392*
X04246Y01497D02*
Y01493D01*
X04254*
Y01497*
X04258*
Y01505*
X04254*
Y01509*
X04246*
Y01505*
X04242*
Y01497*
X04246*
X03151Y01581D02*
Y01577D01*
X03159*
Y01581*
X03163*
Y01589*
X03159*
Y01593*
X03151*
Y01589*
X03147*
Y01581*
X03151*
X01676Y02321D02*
Y02317D01*
X01684*
Y02321*
X01688*
Y02329*
X01684*
Y02333*
X01676*
Y02329*
X01672*
Y02321*
X01676*
X01582Y02227D02*
Y02223D01*
X0159*
Y02227*
X01594*
Y02235*
X0159*
Y02239*
X01582*
Y02235*
X01578*
Y02227*
X01582*
X01882Y01736D02*
Y01732D01*
X0189*
Y01736*
X01894*
Y01744*
X0189*
Y01748*
X01882*
Y01744*
X01878*
Y01736*
X01882*
X01999Y0249D02*
Y02486D01*
X02007*
Y0249*
X02011*
Y02498*
X02007*
Y02502*
X01999*
Y02498*
X01995*
Y0249*
X01999*
X0374Y02324D02*
Y0232D01*
X03748*
Y02324*
X03752*
Y02332*
X03748*
Y02336*
X0374*
Y02332*
X03736*
Y02324*
X0374*
X03736Y02065D02*
Y02061D01*
X03744*
Y02065*
X03748*
Y02073*
X03744*
Y02077*
X03736*
Y02073*
X03732*
Y02065*
X03736*
X02767Y0243D02*
Y02426D01*
X02775*
Y0243*
X02779*
Y02438*
X02775*
Y02442*
X02767*
Y02438*
X02763*
Y0243*
X02767*
X0361Y01418D02*
Y01414D01*
X03618*
Y01418*
X03622*
Y01426*
X03618*
Y0143*
X0361*
Y01426*
X03606*
Y01418*
X0361*
X03401Y01968D02*
Y01964D01*
X03409*
Y01968*
X03413*
Y01976*
X03409*
Y0198*
X03401*
Y01976*
X03397*
Y01968*
X03401*
X01959Y02545D02*
Y02541D01*
X01967*
Y02545*
X01971*
Y02553*
X01967*
Y02557*
X01959*
Y02553*
X01955*
Y02545*
X01959*
X04686Y01184D02*
Y0118D01*
X04694*
Y01184*
X04698*
Y01192*
X04694*
Y01196*
X04686*
Y01192*
X04682*
Y01184*
X04686*
X04372Y01508D02*
Y01504D01*
X0438*
Y01508*
X04384*
Y01516*
X0438*
Y0152*
X04372*
Y01516*
X04368*
Y01508*
X04372*
X032Y02547D02*
Y02543D01*
X03208*
Y02547*
X03212*
Y02555*
X03208*
Y02559*
X032*
Y02555*
X03196*
Y02547*
X032*
X03119Y0236D02*
Y02356D01*
X03127*
Y0236*
X03131*
Y02368*
X03127*
Y02372*
X03119*
Y02368*
X03115*
Y0236*
X03119*
X03432Y02373D02*
Y02369D01*
X0344*
Y02373*
X03444*
Y02381*
X0344*
Y02385*
X03432*
Y02381*
X03428*
Y02373*
X03432*
X0452Y01468D02*
Y01464D01*
X04528*
Y01468*
X04532*
Y01476*
X04528*
Y0148*
X0452*
Y01476*
X04516*
Y01468*
X0452*
X04552Y02129D02*
Y02125D01*
X0456*
Y02129*
X04564*
Y02137*
X0456*
Y02141*
X04552*
Y02137*
X04548*
Y02129*
X04552*
X04607Y01696D02*
Y01692D01*
X04615*
Y01696*
X04619*
Y01704*
X04615*
Y01708*
X04607*
Y01704*
X04603*
Y01696*
X04607*
X0408Y01706D02*
Y01702D01*
X04088*
Y01706*
X04092*
Y01714*
X04088*
Y01718*
X0408*
Y01714*
X04076*
Y01706*
X0408*
X03481Y02207D02*
Y02203D01*
X03489*
Y02207*
X03493*
Y02215*
X03489*
Y02219*
X03481*
Y02215*
X03477*
Y02207*
X03481*
X03863Y02399D02*
Y02395D01*
X03871*
Y02399*
X03875*
Y02407*
X03871*
Y02411*
X03863*
Y02407*
X03859*
Y02399*
X03863*
X03133Y02129D02*
Y02125D01*
X03141*
Y02129*
X03145*
Y02137*
X03141*
Y02141*
X03133*
Y02137*
X03129*
Y02129*
X03133*
X03311Y01931D02*
Y01927D01*
X03319*
Y01931*
X03323*
Y01939*
X03319*
Y01943*
X03311*
Y01939*
X03307*
Y01931*
X03311*
X03077Y02516D02*
Y02512D01*
X03085*
Y02516*
X03089*
Y02524*
X03085*
Y02528*
X03077*
Y02524*
X03073*
Y02516*
X03077*
X0333Y02376D02*
Y02372D01*
X03338*
Y02376*
X03342*
Y02384*
X03338*
Y02388*
X0333*
Y02384*
X03326*
Y02376*
X0333*
X03173Y02061D02*
Y02057D01*
X03181*
Y02061*
X03185*
Y02069*
X03181*
Y02073*
X03173*
Y02069*
X03169*
Y02061*
X03173*
X04481Y01063D02*
Y01059D01*
X04489*
Y01063*
X04493*
Y01071*
X04489*
Y01075*
X04481*
Y01071*
X04477*
Y01063*
X04481*
X04193Y01347D02*
Y01343D01*
X04201*
Y01347*
X04205*
Y01355*
X04201*
Y01359*
X04193*
Y01355*
X04189*
Y01347*
X04193*
X0314Y02266D02*
Y02262D01*
X03148*
Y02266*
X03152*
Y02274*
X03148*
Y02278*
X0314*
Y02274*
X03136*
Y02266*
X0314*
X02645Y02253D02*
Y02249D01*
X02653*
Y02253*
X02657*
Y02261*
X02653*
Y02265*
X02645*
Y02261*
X02641*
Y02253*
X02645*
X02851Y02627D02*
Y02623D01*
X02859*
Y02627*
X02863*
Y02635*
X02859*
Y02639*
X02851*
Y02635*
X02847*
Y02627*
X02851*
X02681Y01979D02*
Y01975D01*
X02689*
Y01979*
X02693*
Y01987*
X02689*
Y01991*
X02681*
Y01987*
X02677*
Y01979*
X02681*
X02987Y02361D02*
Y02357D01*
X02995*
Y02361*
X02999*
Y02369*
X02995*
Y02373*
X02987*
Y02369*
X02983*
Y02361*
X02987*
X01481Y02059D02*
Y02055D01*
X01489*
Y02059*
X01493*
Y02067*
X01489*
Y02071*
X01481*
Y02067*
X01477*
Y02059*
X01481*
X02171Y0176D02*
Y01756D01*
X02179*
Y0176*
X02183*
Y01768*
X02179*
Y01772*
X02171*
Y01768*
X02167*
Y0176*
X02171*
X04646Y02275D02*
Y02271D01*
X04654*
Y02275*
X04658*
Y02283*
X04654*
Y02287*
X04646*
Y02283*
X04642*
Y02275*
X04646*
X04253Y01713D02*
Y01709D01*
X04261*
Y01713*
X04265*
Y01721*
X04261*
Y01725*
X04253*
Y01721*
X04249*
Y01713*
X04253*
X04266Y01293D02*
Y01289D01*
X04274*
Y01293*
X04278*
Y01301*
X04274*
Y01305*
X04266*
Y01301*
X04262*
Y01293*
X04266*
X04271Y01088D02*
Y01084D01*
X04279*
Y01088*
X04283*
Y01096*
X04279*
Y011*
X04271*
Y01096*
X04267*
Y01088*
X04271*
G54D49*
X04473Y02435D02*
D01*
X04472Y02435*
X04472Y02436*
X04472Y02436*
X04472Y02437*
X04472Y02437*
X04472Y02438*
X04472Y02438*
X04471Y02439*
X04471Y02439*
X04471Y0244*
X0447Y0244*
X0447Y0244*
X04469Y02441*
X04469Y02441*
X04469Y02441*
X04468Y02442*
X04467Y02442*
X04467Y02442*
X04466Y02442*
X04466Y02442*
X04465Y02442*
X04465Y02442*
X04464*
X04464Y02442*
X04463Y02442*
X04463Y02442*
X04462Y02442*
X04462Y02442*
X04461Y02442*
X04461Y02441*
X0446Y02441*
X0446Y02441*
X04459Y0244*
X04459Y0244*
X04458Y0244*
X04458Y02439*
X04458Y02439*
X04457Y02438*
X04457Y02438*
X04457Y02437*
X04457Y02437*
X04457Y02436*
X04457Y02436*
X04457Y02435*
X04457Y02435*
X04457Y02434*
X04457Y02433*
X04457Y02433*
X04457Y02432*
X04457Y02432*
X04457Y02431*
X04457Y02431*
X04458Y0243*
X04458Y0243*
X04458Y02429*
X04459Y02429*
X04459Y02429*
X0446Y02428*
X0446Y02428*
X04461Y02428*
X04461Y02427*
X04462Y02427*
X04462Y02427*
X04463Y02427*
X04463Y02427*
X04464Y02427*
X04464Y02427*
X04465*
X04465Y02427*
X04466Y02427*
X04466Y02427*
X04467Y02427*
X04467Y02427*
X04468Y02427*
X04469Y02428*
X04469Y02428*
X04469Y02428*
X0447Y02429*
X0447Y02429*
X04471Y02429*
X04471Y0243*
X04471Y0243*
X04472Y02431*
X04472Y02431*
X04472Y02432*
X04472Y02432*
X04472Y02433*
X04472Y02433*
X04472Y02434*
X04473Y02435*
Y02535D02*
D01*
X04472Y02535*
X04472Y02536*
X04472Y02536*
X04472Y02537*
X04472Y02537*
X04472Y02538*
X04472Y02538*
X04471Y02539*
X04471Y02539*
X04471Y0254*
X0447Y0254*
X0447Y0254*
X04469Y02541*
X04469Y02541*
X04469Y02541*
X04468Y02542*
X04467Y02542*
X04467Y02542*
X04466Y02542*
X04466Y02542*
X04465Y02542*
X04465Y02542*
X04464*
X04464Y02542*
X04463Y02542*
X04463Y02542*
X04462Y02542*
X04462Y02542*
X04461Y02542*
X04461Y02541*
X0446Y02541*
X0446Y02541*
X04459Y0254*
X04459Y0254*
X04458Y0254*
X04458Y02539*
X04458Y02539*
X04457Y02538*
X04457Y02538*
X04457Y02537*
X04457Y02537*
X04457Y02536*
X04457Y02536*
X04457Y02535*
X04457Y02535*
X04457Y02534*
X04457Y02533*
X04457Y02533*
X04457Y02532*
X04457Y02532*
X04457Y02531*
X04457Y02531*
X04458Y0253*
X04458Y0253*
X04458Y02529*
X04459Y02529*
X04459Y02529*
X0446Y02528*
X0446Y02528*
X04461Y02528*
X04461Y02527*
X04462Y02527*
X04462Y02527*
X04463Y02527*
X04463Y02527*
X04464Y02527*
X04464Y02527*
X04465*
X04465Y02527*
X04466Y02527*
X04466Y02527*
X04467Y02527*
X04467Y02527*
X04468Y02527*
X04469Y02528*
X04469Y02528*
X04469Y02528*
X0447Y02529*
X0447Y02529*
X04471Y02529*
X04471Y0253*
X04471Y0253*
X04472Y02531*
X04472Y02531*
X04472Y02532*
X04472Y02532*
X04472Y02533*
X04472Y02533*
X04472Y02534*
X04473Y02535*
X05138Y012D02*
D01*
X05137Y012*
X05137Y01201*
X05137Y01201*
X05137Y01202*
X05137Y01202*
X05137Y01203*
X05137Y01203*
X05136Y01204*
X05136Y01204*
X05136Y01205*
X05135Y01205*
X05135Y01205*
X05134Y01206*
X05134Y01206*
X05134Y01206*
X05133Y01207*
X05132Y01207*
X05132Y01207*
X05131Y01207*
X05131Y01207*
X0513Y01207*
X0513Y01207*
X05129*
X05129Y01207*
X05128Y01207*
X05128Y01207*
X05127Y01207*
X05127Y01207*
X05126Y01207*
X05126Y01206*
X05125Y01206*
X05125Y01206*
X05124Y01205*
X05124Y01205*
X05123Y01205*
X05123Y01204*
X05123Y01204*
X05122Y01203*
X05122Y01203*
X05122Y01202*
X05122Y01202*
X05122Y01201*
X05122Y01201*
X05122Y012*
X05122Y012*
X05122Y01199*
X05122Y01198*
X05122Y01198*
X05122Y01197*
X05122Y01197*
X05122Y01196*
X05122Y01196*
X05123Y01195*
X05123Y01195*
X05123Y01194*
X05124Y01194*
X05124Y01194*
X05125Y01193*
X05125Y01193*
X05126Y01193*
X05126Y01192*
X05127Y01192*
X05127Y01192*
X05128Y01192*
X05128Y01192*
X05129Y01192*
X05129Y01192*
X0513*
X0513Y01192*
X05131Y01192*
X05131Y01192*
X05132Y01192*
X05132Y01192*
X05133Y01192*
X05134Y01193*
X05134Y01193*
X05134Y01193*
X05135Y01194*
X05135Y01194*
X05136Y01194*
X05136Y01195*
X05136Y01195*
X05137Y01196*
X05137Y01196*
X05137Y01197*
X05137Y01197*
X05137Y01198*
X05137Y01198*
X05137Y01199*
X05138Y012*
Y014D02*
D01*
X05137Y014*
X05137Y01401*
X05137Y01401*
X05137Y01402*
X05137Y01402*
X05137Y01403*
X05137Y01403*
X05136Y01404*
X05136Y01404*
X05136Y01405*
X05135Y01405*
X05135Y01405*
X05134Y01406*
X05134Y01406*
X05134Y01406*
X05133Y01407*
X05132Y01407*
X05132Y01407*
X05131Y01407*
X05131Y01407*
X0513Y01407*
X0513Y01407*
X05129*
X05129Y01407*
X05128Y01407*
X05128Y01407*
X05127Y01407*
X05127Y01407*
X05126Y01407*
X05126Y01406*
X05125Y01406*
X05125Y01406*
X05124Y01405*
X05124Y01405*
X05123Y01405*
X05123Y01404*
X05123Y01404*
X05122Y01403*
X05122Y01403*
X05122Y01402*
X05122Y01402*
X05122Y01401*
X05122Y01401*
X05122Y014*
X05122Y014*
X05122Y01399*
X05122Y01398*
X05122Y01398*
X05122Y01397*
X05122Y01397*
X05122Y01396*
X05122Y01396*
X05123Y01395*
X05123Y01395*
X05123Y01394*
X05124Y01394*
X05124Y01394*
X05125Y01393*
X05125Y01393*
X05126Y01393*
X05126Y01392*
X05127Y01392*
X05127Y01392*
X05128Y01392*
X05128Y01392*
X05129Y01392*
X05129Y01392*
X0513*
X0513Y01392*
X05131Y01392*
X05131Y01392*
X05132Y01392*
X05132Y01392*
X05133Y01392*
X05134Y01393*
X05134Y01393*
X05134Y01393*
X05135Y01394*
X05135Y01394*
X05136Y01394*
X05136Y01395*
X05136Y01395*
X05137Y01396*
X05137Y01396*
X05137Y01397*
X05137Y01397*
X05137Y01398*
X05137Y01398*
X05137Y01399*
X05138Y014*
Y015D02*
D01*
X05137Y015*
X05137Y01501*
X05137Y01501*
X05137Y01502*
X05137Y01502*
X05137Y01503*
X05137Y01503*
X05136Y01504*
X05136Y01504*
X05136Y01505*
X05135Y01505*
X05135Y01505*
X05134Y01506*
X05134Y01506*
X05134Y01506*
X05133Y01507*
X05132Y01507*
X05132Y01507*
X05131Y01507*
X05131Y01507*
X0513Y01507*
X0513Y01507*
X05129*
X05129Y01507*
X05128Y01507*
X05128Y01507*
X05127Y01507*
X05127Y01507*
X05126Y01507*
X05126Y01506*
X05125Y01506*
X05125Y01506*
X05124Y01505*
X05124Y01505*
X05123Y01505*
X05123Y01504*
X05123Y01504*
X05122Y01503*
X05122Y01503*
X05122Y01502*
X05122Y01502*
X05122Y01501*
X05122Y01501*
X05122Y015*
X05122Y015*
X05122Y01499*
X05122Y01498*
X05122Y01498*
X05122Y01497*
X05122Y01497*
X05122Y01496*
X05122Y01496*
X05123Y01495*
X05123Y01495*
X05123Y01494*
X05124Y01494*
X05124Y01494*
X05125Y01493*
X05125Y01493*
X05126Y01493*
X05126Y01492*
X05127Y01492*
X05127Y01492*
X05128Y01492*
X05128Y01492*
X05129Y01492*
X05129Y01492*
X0513*
X0513Y01492*
X05131Y01492*
X05131Y01492*
X05132Y01492*
X05132Y01492*
X05133Y01492*
X05134Y01493*
X05134Y01493*
X05134Y01493*
X05135Y01494*
X05135Y01494*
X05136Y01494*
X05136Y01495*
X05136Y01495*
X05137Y01496*
X05137Y01496*
X05137Y01497*
X05137Y01497*
X05137Y01498*
X05137Y01498*
X05137Y01499*
X05138Y015*
Y016D02*
D01*
X05137Y016*
X05137Y01601*
X05137Y01601*
X05137Y01602*
X05137Y01602*
X05137Y01603*
X05137Y01603*
X05136Y01604*
X05136Y01604*
X05136Y01605*
X05135Y01605*
X05135Y01605*
X05134Y01606*
X05134Y01606*
X05134Y01606*
X05133Y01607*
X05132Y01607*
X05132Y01607*
X05131Y01607*
X05131Y01607*
X0513Y01607*
X0513Y01607*
X05129*
X05129Y01607*
X05128Y01607*
X05128Y01607*
X05127Y01607*
X05127Y01607*
X05126Y01607*
X05126Y01606*
X05125Y01606*
X05125Y01606*
X05124Y01605*
X05124Y01605*
X05123Y01605*
X05123Y01604*
X05123Y01604*
X05122Y01603*
X05122Y01603*
X05122Y01602*
X05122Y01602*
X05122Y01601*
X05122Y01601*
X05122Y016*
X05122Y016*
X05122Y01599*
X05122Y01598*
X05122Y01598*
X05122Y01597*
X05122Y01597*
X05122Y01596*
X05122Y01596*
X05123Y01595*
X05123Y01595*
X05123Y01594*
X05124Y01594*
X05124Y01594*
X05125Y01593*
X05125Y01593*
X05126Y01593*
X05126Y01592*
X05127Y01592*
X05127Y01592*
X05128Y01592*
X05128Y01592*
X05129Y01592*
X05129Y01592*
X0513*
X0513Y01592*
X05131Y01592*
X05131Y01592*
X05132Y01592*
X05132Y01592*
X05133Y01592*
X05134Y01593*
X05134Y01593*
X05134Y01593*
X05135Y01594*
X05135Y01594*
X05136Y01594*
X05136Y01595*
X05136Y01595*
X05137Y01596*
X05137Y01596*
X05137Y01597*
X05137Y01597*
X05137Y01598*
X05137Y01598*
X05137Y01599*
X05138Y016*
Y017D02*
D01*
X05137Y017*
X05137Y01701*
X05137Y01701*
X05137Y01702*
X05137Y01702*
X05137Y01703*
X05137Y01703*
X05136Y01704*
X05136Y01704*
X05136Y01705*
X05135Y01705*
X05135Y01705*
X05134Y01706*
X05134Y01706*
X05134Y01706*
X05133Y01707*
X05132Y01707*
X05132Y01707*
X05131Y01707*
X05131Y01707*
X0513Y01707*
X0513Y01707*
X05129*
X05129Y01707*
X05128Y01707*
X05128Y01707*
X05127Y01707*
X05127Y01707*
X05126Y01707*
X05126Y01706*
X05125Y01706*
X05125Y01706*
X05124Y01705*
X05124Y01705*
X05123Y01705*
X05123Y01704*
X05123Y01704*
X05122Y01703*
X05122Y01703*
X05122Y01702*
X05122Y01702*
X05122Y01701*
X05122Y01701*
X05122Y017*
X05122Y017*
X05122Y01699*
X05122Y01698*
X05122Y01698*
X05122Y01697*
X05122Y01697*
X05122Y01696*
X05122Y01696*
X05123Y01695*
X05123Y01695*
X05123Y01694*
X05124Y01694*
X05124Y01694*
X05125Y01693*
X05125Y01693*
X05126Y01693*
X05126Y01692*
X05127Y01692*
X05127Y01692*
X05128Y01692*
X05128Y01692*
X05129Y01692*
X05129Y01692*
X0513*
X0513Y01692*
X05131Y01692*
X05131Y01692*
X05132Y01692*
X05132Y01692*
X05133Y01692*
X05134Y01693*
X05134Y01693*
X05134Y01693*
X05135Y01694*
X05135Y01694*
X05136Y01694*
X05136Y01695*
X05136Y01695*
X05137Y01696*
X05137Y01696*
X05137Y01697*
X05137Y01697*
X05137Y01698*
X05137Y01698*
X05137Y01699*
X05138Y017*
Y018D02*
D01*
X05137Y018*
X05137Y01801*
X05137Y01801*
X05137Y01802*
X05137Y01802*
X05137Y01803*
X05137Y01803*
X05136Y01804*
X05136Y01804*
X05136Y01805*
X05135Y01805*
X05135Y01805*
X05134Y01806*
X05134Y01806*
X05134Y01806*
X05133Y01807*
X05132Y01807*
X05132Y01807*
X05131Y01807*
X05131Y01807*
X0513Y01807*
X0513Y01807*
X05129*
X05129Y01807*
X05128Y01807*
X05128Y01807*
X05127Y01807*
X05127Y01807*
X05126Y01807*
X05126Y01806*
X05125Y01806*
X05125Y01806*
X05124Y01805*
X05124Y01805*
X05123Y01805*
X05123Y01804*
X05123Y01804*
X05122Y01803*
X05122Y01803*
X05122Y01802*
X05122Y01802*
X05122Y01801*
X05122Y01801*
X05122Y018*
X05122Y018*
X05122Y01799*
X05122Y01798*
X05122Y01798*
X05122Y01797*
X05122Y01797*
X05122Y01796*
X05122Y01796*
X05123Y01795*
X05123Y01795*
X05123Y01794*
X05124Y01794*
X05124Y01794*
X05125Y01793*
X05125Y01793*
X05126Y01793*
X05126Y01792*
X05127Y01792*
X05127Y01792*
X05128Y01792*
X05128Y01792*
X05129Y01792*
X05129Y01792*
X0513*
X0513Y01792*
X05131Y01792*
X05131Y01792*
X05132Y01792*
X05132Y01792*
X05133Y01792*
X05134Y01793*
X05134Y01793*
X05134Y01793*
X05135Y01794*
X05135Y01794*
X05136Y01794*
X05136Y01795*
X05136Y01795*
X05137Y01796*
X05137Y01796*
X05137Y01797*
X05137Y01797*
X05137Y01798*
X05137Y01798*
X05137Y01799*
X05138Y018*
Y019D02*
D01*
X05137Y019*
X05137Y01901*
X05137Y01901*
X05137Y01902*
X05137Y01902*
X05137Y01903*
X05137Y01903*
X05136Y01904*
X05136Y01904*
X05136Y01905*
X05135Y01905*
X05135Y01905*
X05134Y01906*
X05134Y01906*
X05134Y01906*
X05133Y01907*
X05132Y01907*
X05132Y01907*
X05131Y01907*
X05131Y01907*
X0513Y01907*
X0513Y01907*
X05129*
X05129Y01907*
X05128Y01907*
X05128Y01907*
X05127Y01907*
X05127Y01907*
X05126Y01907*
X05126Y01906*
X05125Y01906*
X05125Y01906*
X05124Y01905*
X05124Y01905*
X05123Y01905*
X05123Y01904*
X05123Y01904*
X05122Y01903*
X05122Y01903*
X05122Y01902*
X05122Y01902*
X05122Y01901*
X05122Y01901*
X05122Y019*
X05122Y019*
X05122Y01899*
X05122Y01898*
X05122Y01898*
X05122Y01897*
X05122Y01897*
X05122Y01896*
X05122Y01896*
X05123Y01895*
X05123Y01895*
X05123Y01894*
X05124Y01894*
X05124Y01894*
X05125Y01893*
X05125Y01893*
X05126Y01893*
X05126Y01892*
X05127Y01892*
X05127Y01892*
X05128Y01892*
X05128Y01892*
X05129Y01892*
X05129Y01892*
X0513*
X0513Y01892*
X05131Y01892*
X05131Y01892*
X05132Y01892*
X05132Y01892*
X05133Y01892*
X05134Y01893*
X05134Y01893*
X05134Y01893*
X05135Y01894*
X05135Y01894*
X05136Y01894*
X05136Y01895*
X05136Y01895*
X05137Y01896*
X05137Y01896*
X05137Y01897*
X05137Y01897*
X05137Y01898*
X05137Y01898*
X05137Y01899*
X05138Y019*
Y02D02*
D01*
X05137Y02*
X05137Y02001*
X05137Y02001*
X05137Y02002*
X05137Y02002*
X05137Y02003*
X05137Y02003*
X05136Y02004*
X05136Y02004*
X05136Y02005*
X05135Y02005*
X05135Y02005*
X05134Y02006*
X05134Y02006*
X05134Y02006*
X05133Y02007*
X05132Y02007*
X05132Y02007*
X05131Y02007*
X05131Y02007*
X0513Y02007*
X0513Y02007*
X05129*
X05129Y02007*
X05128Y02007*
X05128Y02007*
X05127Y02007*
X05127Y02007*
X05126Y02007*
X05126Y02006*
X05125Y02006*
X05125Y02006*
X05124Y02005*
X05124Y02005*
X05123Y02005*
X05123Y02004*
X05123Y02004*
X05122Y02003*
X05122Y02003*
X05122Y02002*
X05122Y02002*
X05122Y02001*
X05122Y02001*
X05122Y02*
X05122Y02*
X05122Y01999*
X05122Y01998*
X05122Y01998*
X05122Y01997*
X05122Y01997*
X05122Y01996*
X05122Y01996*
X05123Y01995*
X05123Y01995*
X05123Y01994*
X05124Y01994*
X05124Y01994*
X05125Y01993*
X05125Y01993*
X05126Y01993*
X05126Y01992*
X05127Y01992*
X05127Y01992*
X05128Y01992*
X05128Y01992*
X05129Y01992*
X05129Y01992*
X0513*
X0513Y01992*
X05131Y01992*
X05131Y01992*
X05132Y01992*
X05132Y01992*
X05133Y01992*
X05134Y01993*
X05134Y01993*
X05134Y01993*
X05135Y01994*
X05135Y01994*
X05136Y01994*
X05136Y01995*
X05136Y01995*
X05137Y01996*
X05137Y01996*
X05137Y01997*
X05137Y01997*
X05137Y01998*
X05137Y01998*
X05137Y01999*
X05138Y02*
Y013D02*
D01*
X05137Y013*
X05137Y01301*
X05137Y01301*
X05137Y01302*
X05137Y01302*
X05137Y01303*
X05137Y01303*
X05136Y01304*
X05136Y01304*
X05136Y01305*
X05135Y01305*
X05135Y01305*
X05134Y01306*
X05134Y01306*
X05134Y01306*
X05133Y01307*
X05132Y01307*
X05132Y01307*
X05131Y01307*
X05131Y01307*
X0513Y01307*
X0513Y01307*
X05129*
X05129Y01307*
X05128Y01307*
X05128Y01307*
X05127Y01307*
X05127Y01307*
X05126Y01307*
X05126Y01306*
X05125Y01306*
X05125Y01306*
X05124Y01305*
X05124Y01305*
X05123Y01305*
X05123Y01304*
X05123Y01304*
X05122Y01303*
X05122Y01303*
X05122Y01302*
X05122Y01302*
X05122Y01301*
X05122Y01301*
X05122Y013*
X05122Y013*
X05122Y01299*
X05122Y01298*
X05122Y01298*
X05122Y01297*
X05122Y01297*
X05122Y01296*
X05122Y01296*
X05123Y01295*
X05123Y01295*
X05123Y01294*
X05124Y01294*
X05124Y01294*
X05125Y01293*
X05125Y01293*
X05126Y01293*
X05126Y01292*
X05127Y01292*
X05127Y01292*
X05128Y01292*
X05128Y01292*
X05129Y01292*
X05129Y01292*
X0513*
X0513Y01292*
X05131Y01292*
X05131Y01292*
X05132Y01292*
X05132Y01292*
X05133Y01292*
X05134Y01293*
X05134Y01293*
X05134Y01293*
X05135Y01294*
X05135Y01294*
X05136Y01294*
X05136Y01295*
X05136Y01295*
X05137Y01296*
X05137Y01296*
X05137Y01297*
X05137Y01297*
X05137Y01298*
X05137Y01298*
X05137Y01299*
X05138Y013*
X02386Y0293D02*
D01*
X02386Y0293*
X02386Y02931*
X02385Y02931*
X02385Y02932*
X02385Y02932*
X02385Y02933*
X02385Y02933*
X02384Y02934*
X02384Y02934*
X02384Y02935*
X02383Y02935*
X02383Y02935*
X02383Y02936*
X02382Y02936*
X02382Y02936*
X02381Y02937*
X02381Y02937*
X0238Y02937*
X0238Y02937*
X02379Y02937*
X02378Y02937*
X02378Y02937*
X02377*
X02377Y02937*
X02376Y02937*
X02376Y02937*
X02375Y02937*
X02375Y02937*
X02374Y02937*
X02374Y02936*
X02373Y02936*
X02373Y02936*
X02372Y02935*
X02372Y02935*
X02372Y02935*
X02371Y02934*
X02371Y02934*
X02371Y02933*
X0237Y02933*
X0237Y02932*
X0237Y02932*
X0237Y02931*
X0237Y02931*
X0237Y0293*
X0237Y0293*
X0237Y02929*
X0237Y02928*
X0237Y02928*
X0237Y02927*
X0237Y02927*
X0237Y02926*
X02371Y02926*
X02371Y02925*
X02371Y02925*
X02372Y02924*
X02372Y02924*
X02372Y02924*
X02373Y02923*
X02373Y02923*
X02374Y02923*
X02374Y02922*
X02375Y02922*
X02375Y02922*
X02376Y02922*
X02376Y02922*
X02377Y02922*
X02377Y02922*
X02378*
X02378Y02922*
X02379Y02922*
X0238Y02922*
X0238Y02922*
X02381Y02922*
X02381Y02922*
X02382Y02923*
X02382Y02923*
X02383Y02923*
X02383Y02924*
X02383Y02924*
X02384Y02924*
X02384Y02925*
X02384Y02925*
X02385Y02926*
X02385Y02926*
X02385Y02927*
X02385Y02927*
X02385Y02928*
X02386Y02928*
X02386Y02929*
X02386Y0293*
X02486D02*
D01*
X02486Y0293*
X02486Y02931*
X02485Y02931*
X02485Y02932*
X02485Y02932*
X02485Y02933*
X02485Y02933*
X02484Y02934*
X02484Y02934*
X02484Y02935*
X02483Y02935*
X02483Y02935*
X02483Y02936*
X02482Y02936*
X02482Y02936*
X02481Y02937*
X02481Y02937*
X0248Y02937*
X0248Y02937*
X02479Y02937*
X02478Y02937*
X02478Y02937*
X02477*
X02477Y02937*
X02476Y02937*
X02476Y02937*
X02475Y02937*
X02475Y02937*
X02474Y02937*
X02474Y02936*
X02473Y02936*
X02473Y02936*
X02472Y02935*
X02472Y02935*
X02472Y02935*
X02471Y02934*
X02471Y02934*
X02471Y02933*
X0247Y02933*
X0247Y02932*
X0247Y02932*
X0247Y02931*
X0247Y02931*
X0247Y0293*
X0247Y0293*
X0247Y02929*
X0247Y02928*
X0247Y02928*
X0247Y02927*
X0247Y02927*
X0247Y02926*
X02471Y02926*
X02471Y02925*
X02471Y02925*
X02472Y02924*
X02472Y02924*
X02472Y02924*
X02473Y02923*
X02473Y02923*
X02474Y02923*
X02474Y02922*
X02475Y02922*
X02475Y02922*
X02476Y02922*
X02476Y02922*
X02477Y02922*
X02477Y02922*
X02478*
X02478Y02922*
X02479Y02922*
X0248Y02922*
X0248Y02922*
X02481Y02922*
X02481Y02922*
X02482Y02923*
X02482Y02923*
X02483Y02923*
X02483Y02924*
X02483Y02924*
X02484Y02924*
X02484Y02925*
X02484Y02925*
X02485Y02926*
X02485Y02926*
X02485Y02927*
X02485Y02927*
X02485Y02928*
X02486Y02928*
X02486Y02929*
X02486Y0293*
X02386Y0283D02*
D01*
X02386Y0283*
X02386Y02831*
X02385Y02831*
X02385Y02832*
X02385Y02832*
X02385Y02833*
X02385Y02833*
X02384Y02834*
X02384Y02834*
X02384Y02835*
X02383Y02835*
X02383Y02835*
X02383Y02836*
X02382Y02836*
X02382Y02836*
X02381Y02837*
X02381Y02837*
X0238Y02837*
X0238Y02837*
X02379Y02837*
X02378Y02837*
X02378Y02837*
X02377*
X02377Y02837*
X02376Y02837*
X02376Y02837*
X02375Y02837*
X02375Y02837*
X02374Y02837*
X02374Y02836*
X02373Y02836*
X02373Y02836*
X02372Y02835*
X02372Y02835*
X02372Y02835*
X02371Y02834*
X02371Y02834*
X02371Y02833*
X0237Y02833*
X0237Y02832*
X0237Y02832*
X0237Y02831*
X0237Y02831*
X0237Y0283*
X0237Y0283*
X0237Y02829*
X0237Y02828*
X0237Y02828*
X0237Y02827*
X0237Y02827*
X0237Y02826*
X02371Y02826*
X02371Y02825*
X02371Y02825*
X02372Y02824*
X02372Y02824*
X02372Y02824*
X02373Y02823*
X02373Y02823*
X02374Y02823*
X02374Y02822*
X02375Y02822*
X02375Y02822*
X02376Y02822*
X02376Y02822*
X02377Y02822*
X02377Y02822*
X02378*
X02378Y02822*
X02379Y02822*
X0238Y02822*
X0238Y02822*
X02381Y02822*
X02381Y02822*
X02382Y02823*
X02382Y02823*
X02383Y02823*
X02383Y02824*
X02383Y02824*
X02384Y02824*
X02384Y02825*
X02384Y02825*
X02385Y02826*
X02385Y02826*
X02385Y02827*
X02385Y02827*
X02385Y02828*
X02386Y02828*
X02386Y02829*
X02386Y0283*
X02486D02*
D01*
X02486Y0283*
X02486Y02831*
X02485Y02831*
X02485Y02832*
X02485Y02832*
X02485Y02833*
X02485Y02833*
X02484Y02834*
X02484Y02834*
X02484Y02835*
X02483Y02835*
X02483Y02835*
X02483Y02836*
X02482Y02836*
X02482Y02836*
X02481Y02837*
X02481Y02837*
X0248Y02837*
X0248Y02837*
X02479Y02837*
X02478Y02837*
X02478Y02837*
X02477*
X02477Y02837*
X02476Y02837*
X02476Y02837*
X02475Y02837*
X02475Y02837*
X02474Y02837*
X02474Y02836*
X02473Y02836*
X02473Y02836*
X02472Y02835*
X02472Y02835*
X02472Y02835*
X02471Y02834*
X02471Y02834*
X02471Y02833*
X0247Y02833*
X0247Y02832*
X0247Y02832*
X0247Y02831*
X0247Y02831*
X0247Y0283*
X0247Y0283*
X0247Y02829*
X0247Y02828*
X0247Y02828*
X0247Y02827*
X0247Y02827*
X0247Y02826*
X02471Y02826*
X02471Y02825*
X02471Y02825*
X02472Y02824*
X02472Y02824*
X02472Y02824*
X02473Y02823*
X02473Y02823*
X02474Y02823*
X02474Y02822*
X02475Y02822*
X02475Y02822*
X02476Y02822*
X02476Y02822*
X02477Y02822*
X02477Y02822*
X02478*
X02478Y02822*
X02479Y02822*
X0248Y02822*
X0248Y02822*
X02481Y02822*
X02481Y02822*
X02482Y02823*
X02482Y02823*
X02483Y02823*
X02483Y02824*
X02483Y02824*
X02484Y02824*
X02484Y02825*
X02484Y02825*
X02485Y02826*
X02485Y02826*
X02485Y02827*
X02485Y02827*
X02485Y02828*
X02486Y02828*
X02486Y02829*
X02486Y0283*
X02386Y0273D02*
D01*
X02386Y0273*
X02386Y02731*
X02385Y02731*
X02385Y02732*
X02385Y02732*
X02385Y02733*
X02385Y02733*
X02384Y02734*
X02384Y02734*
X02384Y02735*
X02383Y02735*
X02383Y02735*
X02383Y02736*
X02382Y02736*
X02382Y02736*
X02381Y02737*
X02381Y02737*
X0238Y02737*
X0238Y02737*
X02379Y02737*
X02378Y02737*
X02378Y02737*
X02377*
X02377Y02737*
X02376Y02737*
X02376Y02737*
X02375Y02737*
X02375Y02737*
X02374Y02737*
X02374Y02736*
X02373Y02736*
X02373Y02736*
X02372Y02735*
X02372Y02735*
X02372Y02735*
X02371Y02734*
X02371Y02734*
X02371Y02733*
X0237Y02733*
X0237Y02732*
X0237Y02732*
X0237Y02731*
X0237Y02731*
X0237Y0273*
X0237Y0273*
X0237Y02729*
X0237Y02728*
X0237Y02728*
X0237Y02727*
X0237Y02727*
X0237Y02726*
X02371Y02726*
X02371Y02725*
X02371Y02725*
X02372Y02724*
X02372Y02724*
X02372Y02724*
X02373Y02723*
X02373Y02723*
X02374Y02723*
X02374Y02722*
X02375Y02722*
X02375Y02722*
X02376Y02722*
X02376Y02722*
X02377Y02722*
X02377Y02722*
X02378*
X02378Y02722*
X02379Y02722*
X0238Y02722*
X0238Y02722*
X02381Y02722*
X02381Y02722*
X02382Y02723*
X02382Y02723*
X02383Y02723*
X02383Y02724*
X02383Y02724*
X02384Y02724*
X02384Y02725*
X02384Y02725*
X02385Y02726*
X02385Y02726*
X02385Y02727*
X02385Y02727*
X02385Y02728*
X02386Y02728*
X02386Y02729*
X02386Y0273*
X02486D02*
D01*
X02486Y0273*
X02486Y02731*
X02485Y02731*
X02485Y02732*
X02485Y02732*
X02485Y02733*
X02485Y02733*
X02484Y02734*
X02484Y02734*
X02484Y02735*
X02483Y02735*
X02483Y02735*
X02483Y02736*
X02482Y02736*
X02482Y02736*
X02481Y02737*
X02481Y02737*
X0248Y02737*
X0248Y02737*
X02479Y02737*
X02478Y02737*
X02478Y02737*
X02477*
X02477Y02737*
X02476Y02737*
X02476Y02737*
X02475Y02737*
X02475Y02737*
X02474Y02737*
X02474Y02736*
X02473Y02736*
X02473Y02736*
X02472Y02735*
X02472Y02735*
X02472Y02735*
X02471Y02734*
X02471Y02734*
X02471Y02733*
X0247Y02733*
X0247Y02732*
X0247Y02732*
X0247Y02731*
X0247Y02731*
X0247Y0273*
X0247Y0273*
X0247Y02729*
X0247Y02728*
X0247Y02728*
X0247Y02727*
X0247Y02727*
X0247Y02726*
X02471Y02726*
X02471Y02725*
X02471Y02725*
X02472Y02724*
X02472Y02724*
X02472Y02724*
X02473Y02723*
X02473Y02723*
X02474Y02723*
X02474Y02722*
X02475Y02722*
X02475Y02722*
X02476Y02722*
X02476Y02722*
X02477Y02722*
X02477Y02722*
X02478*
X02478Y02722*
X02479Y02722*
X0248Y02722*
X0248Y02722*
X02481Y02722*
X02481Y02722*
X02482Y02723*
X02482Y02723*
X02483Y02723*
X02483Y02724*
X02483Y02724*
X02484Y02724*
X02484Y02725*
X02484Y02725*
X02485Y02726*
X02485Y02726*
X02485Y02727*
X02485Y02727*
X02485Y02728*
X02486Y02728*
X02486Y02729*
X02486Y0273*
X02386Y0263D02*
D01*
X02386Y0263*
X02386Y02631*
X02385Y02631*
X02385Y02632*
X02385Y02632*
X02385Y02633*
X02385Y02633*
X02384Y02634*
X02384Y02634*
X02384Y02635*
X02383Y02635*
X02383Y02635*
X02383Y02636*
X02382Y02636*
X02382Y02636*
X02381Y02637*
X02381Y02637*
X0238Y02637*
X0238Y02637*
X02379Y02637*
X02378Y02637*
X02378Y02637*
X02377*
X02377Y02637*
X02376Y02637*
X02376Y02637*
X02375Y02637*
X02375Y02637*
X02374Y02637*
X02374Y02636*
X02373Y02636*
X02373Y02636*
X02372Y02635*
X02372Y02635*
X02372Y02635*
X02371Y02634*
X02371Y02634*
X02371Y02633*
X0237Y02633*
X0237Y02632*
X0237Y02632*
X0237Y02631*
X0237Y02631*
X0237Y0263*
X0237Y0263*
X0237Y02629*
X0237Y02628*
X0237Y02628*
X0237Y02627*
X0237Y02627*
X0237Y02626*
X02371Y02626*
X02371Y02625*
X02371Y02625*
X02372Y02624*
X02372Y02624*
X02372Y02624*
X02373Y02623*
X02373Y02623*
X02374Y02623*
X02374Y02622*
X02375Y02622*
X02375Y02622*
X02376Y02622*
X02376Y02622*
X02377Y02622*
X02377Y02622*
X02378*
X02378Y02622*
X02379Y02622*
X0238Y02622*
X0238Y02622*
X02381Y02622*
X02381Y02622*
X02382Y02623*
X02382Y02623*
X02383Y02623*
X02383Y02624*
X02383Y02624*
X02384Y02624*
X02384Y02625*
X02384Y02625*
X02385Y02626*
X02385Y02626*
X02385Y02627*
X02385Y02627*
X02385Y02628*
X02386Y02628*
X02386Y02629*
X02386Y0263*
X02486D02*
D01*
X02486Y0263*
X02486Y02631*
X02485Y02631*
X02485Y02632*
X02485Y02632*
X02485Y02633*
X02485Y02633*
X02484Y02634*
X02484Y02634*
X02484Y02635*
X02483Y02635*
X02483Y02635*
X02483Y02636*
X02482Y02636*
X02482Y02636*
X02481Y02637*
X02481Y02637*
X0248Y02637*
X0248Y02637*
X02479Y02637*
X02478Y02637*
X02478Y02637*
X02477*
X02477Y02637*
X02476Y02637*
X02476Y02637*
X02475Y02637*
X02475Y02637*
X02474Y02637*
X02474Y02636*
X02473Y02636*
X02473Y02636*
X02472Y02635*
X02472Y02635*
X02472Y02635*
X02471Y02634*
X02471Y02634*
X02471Y02633*
X0247Y02633*
X0247Y02632*
X0247Y02632*
X0247Y02631*
X0247Y02631*
X0247Y0263*
X0247Y0263*
X0247Y02629*
X0247Y02628*
X0247Y02628*
X0247Y02627*
X0247Y02627*
X0247Y02626*
X02471Y02626*
X02471Y02625*
X02471Y02625*
X02472Y02624*
X02472Y02624*
X02472Y02624*
X02473Y02623*
X02473Y02623*
X02474Y02623*
X02474Y02622*
X02475Y02622*
X02475Y02622*
X02476Y02622*
X02476Y02622*
X02477Y02622*
X02477Y02622*
X02478*
X02478Y02622*
X02479Y02622*
X0248Y02622*
X0248Y02622*
X02481Y02622*
X02481Y02622*
X02482Y02623*
X02482Y02623*
X02483Y02623*
X02483Y02624*
X02483Y02624*
X02484Y02624*
X02484Y02625*
X02484Y02625*
X02485Y02626*
X02485Y02626*
X02485Y02627*
X02485Y02627*
X02485Y02628*
X02486Y02628*
X02486Y02629*
X02486Y0263*
X02386Y0253D02*
D01*
X02386Y0253*
X02386Y02531*
X02385Y02531*
X02385Y02532*
X02385Y02532*
X02385Y02533*
X02385Y02533*
X02384Y02534*
X02384Y02534*
X02384Y02535*
X02383Y02535*
X02383Y02535*
X02383Y02536*
X02382Y02536*
X02382Y02536*
X02381Y02537*
X02381Y02537*
X0238Y02537*
X0238Y02537*
X02379Y02537*
X02378Y02537*
X02378Y02537*
X02377*
X02377Y02537*
X02376Y02537*
X02376Y02537*
X02375Y02537*
X02375Y02537*
X02374Y02537*
X02374Y02536*
X02373Y02536*
X02373Y02536*
X02372Y02535*
X02372Y02535*
X02372Y02535*
X02371Y02534*
X02371Y02534*
X02371Y02533*
X0237Y02533*
X0237Y02532*
X0237Y02532*
X0237Y02531*
X0237Y02531*
X0237Y0253*
X0237Y0253*
X0237Y02529*
X0237Y02528*
X0237Y02528*
X0237Y02527*
X0237Y02527*
X0237Y02526*
X02371Y02526*
X02371Y02525*
X02371Y02525*
X02372Y02524*
X02372Y02524*
X02372Y02524*
X02373Y02523*
X02373Y02523*
X02374Y02523*
X02374Y02522*
X02375Y02522*
X02375Y02522*
X02376Y02522*
X02376Y02522*
X02377Y02522*
X02377Y02522*
X02378*
X02378Y02522*
X02379Y02522*
X0238Y02522*
X0238Y02522*
X02381Y02522*
X02381Y02522*
X02382Y02523*
X02382Y02523*
X02383Y02523*
X02383Y02524*
X02383Y02524*
X02384Y02524*
X02384Y02525*
X02384Y02525*
X02385Y02526*
X02385Y02526*
X02385Y02527*
X02385Y02527*
X02385Y02528*
X02386Y02528*
X02386Y02529*
X02386Y0253*
X02486D02*
D01*
X02486Y0253*
X02486Y02531*
X02485Y02531*
X02485Y02532*
X02485Y02532*
X02485Y02533*
X02485Y02533*
X02484Y02534*
X02484Y02534*
X02484Y02535*
X02483Y02535*
X02483Y02535*
X02483Y02536*
X02482Y02536*
X02482Y02536*
X02481Y02537*
X02481Y02537*
X0248Y02537*
X0248Y02537*
X02479Y02537*
X02478Y02537*
X02478Y02537*
X02477*
X02477Y02537*
X02476Y02537*
X02476Y02537*
X02475Y02537*
X02475Y02537*
X02474Y02537*
X02474Y02536*
X02473Y02536*
X02473Y02536*
X02472Y02535*
X02472Y02535*
X02472Y02535*
X02471Y02534*
X02471Y02534*
X02471Y02533*
X0247Y02533*
X0247Y02532*
X0247Y02532*
X0247Y02531*
X0247Y02531*
X0247Y0253*
X0247Y0253*
X0247Y02529*
X0247Y02528*
X0247Y02528*
X0247Y02527*
X0247Y02527*
X0247Y02526*
X02471Y02526*
X02471Y02525*
X02471Y02525*
X02472Y02524*
X02472Y02524*
X02472Y02524*
X02473Y02523*
X02473Y02523*
X02474Y02523*
X02474Y02522*
X02475Y02522*
X02475Y02522*
X02476Y02522*
X02476Y02522*
X02477Y02522*
X02477Y02522*
X02478*
X02478Y02522*
X02479Y02522*
X0248Y02522*
X0248Y02522*
X02481Y02522*
X02481Y02522*
X02482Y02523*
X02482Y02523*
X02483Y02523*
X02483Y02524*
X02483Y02524*
X02484Y02524*
X02484Y02525*
X02484Y02525*
X02485Y02526*
X02485Y02526*
X02485Y02527*
X02485Y02527*
X02485Y02528*
X02486Y02528*
X02486Y02529*
X02486Y0253*
X03233Y0154D02*
D01*
X03232Y0154*
X03232Y01541*
X03232Y01541*
X03232Y01542*
X03232Y01542*
X03232Y01543*
X03232Y01543*
X03231Y01544*
X03231Y01544*
X03231Y01545*
X0323Y01545*
X0323Y01545*
X03229Y01546*
X03229Y01546*
X03229Y01546*
X03228Y01547*
X03227Y01547*
X03227Y01547*
X03226Y01547*
X03226Y01547*
X03225Y01547*
X03225Y01547*
X03224*
X03224Y01547*
X03223Y01547*
X03223Y01547*
X03222Y01547*
X03222Y01547*
X03221Y01547*
X03221Y01546*
X0322Y01546*
X0322Y01546*
X03219Y01545*
X03219Y01545*
X03218Y01545*
X03218Y01544*
X03218Y01544*
X03217Y01543*
X03217Y01543*
X03217Y01542*
X03217Y01542*
X03217Y01541*
X03217Y01541*
X03217Y0154*
X03217Y0154*
X03217Y01539*
X03217Y01538*
X03217Y01538*
X03217Y01537*
X03217Y01537*
X03217Y01536*
X03217Y01536*
X03218Y01535*
X03218Y01535*
X03218Y01534*
X03219Y01534*
X03219Y01534*
X0322Y01533*
X0322Y01533*
X03221Y01533*
X03221Y01532*
X03222Y01532*
X03222Y01532*
X03223Y01532*
X03223Y01532*
X03224Y01532*
X03224Y01532*
X03225*
X03225Y01532*
X03226Y01532*
X03226Y01532*
X03227Y01532*
X03227Y01532*
X03228Y01532*
X03229Y01533*
X03229Y01533*
X03229Y01533*
X0323Y01534*
X0323Y01534*
X03231Y01534*
X03231Y01535*
X03231Y01535*
X03232Y01536*
X03232Y01536*
X03232Y01537*
X03232Y01537*
X03232Y01538*
X03232Y01538*
X03232Y01539*
X03233Y0154*
Y0164D02*
D01*
X03232Y0164*
X03232Y01641*
X03232Y01641*
X03232Y01642*
X03232Y01642*
X03232Y01643*
X03232Y01643*
X03231Y01644*
X03231Y01644*
X03231Y01645*
X0323Y01645*
X0323Y01645*
X03229Y01646*
X03229Y01646*
X03229Y01646*
X03228Y01647*
X03227Y01647*
X03227Y01647*
X03226Y01647*
X03226Y01647*
X03225Y01647*
X03225Y01647*
X03224*
X03224Y01647*
X03223Y01647*
X03223Y01647*
X03222Y01647*
X03222Y01647*
X03221Y01647*
X03221Y01646*
X0322Y01646*
X0322Y01646*
X03219Y01645*
X03219Y01645*
X03218Y01645*
X03218Y01644*
X03218Y01644*
X03217Y01643*
X03217Y01643*
X03217Y01642*
X03217Y01642*
X03217Y01641*
X03217Y01641*
X03217Y0164*
X03217Y0164*
X03217Y01639*
X03217Y01638*
X03217Y01638*
X03217Y01637*
X03217Y01637*
X03217Y01636*
X03217Y01636*
X03218Y01635*
X03218Y01635*
X03218Y01634*
X03219Y01634*
X03219Y01634*
X0322Y01633*
X0322Y01633*
X03221Y01633*
X03221Y01632*
X03222Y01632*
X03222Y01632*
X03223Y01632*
X03223Y01632*
X03224Y01632*
X03224Y01632*
X03225*
X03225Y01632*
X03226Y01632*
X03226Y01632*
X03227Y01632*
X03227Y01632*
X03228Y01632*
X03229Y01633*
X03229Y01633*
X03229Y01633*
X0323Y01634*
X0323Y01634*
X03231Y01634*
X03231Y01635*
X03231Y01635*
X03232Y01636*
X03232Y01636*
X03232Y01637*
X03232Y01637*
X03232Y01638*
X03232Y01638*
X03232Y01639*
X03233Y0164*
X01263Y02875D02*
D01*
X01262Y02875*
X01262Y02876*
X01262Y02876*
X01262Y02877*
X01262Y02877*
X01262Y02878*
X01262Y02878*
X01261Y02879*
X01261Y02879*
X01261Y0288*
X0126Y0288*
X0126Y0288*
X01259Y02881*
X01259Y02881*
X01259Y02881*
X01258Y02882*
X01257Y02882*
X01257Y02882*
X01256Y02882*
X01256Y02882*
X01255Y02882*
X01255Y02882*
X01254*
X01254Y02882*
X01253Y02882*
X01253Y02882*
X01252Y02882*
X01252Y02882*
X01251Y02882*
X01251Y02881*
X0125Y02881*
X0125Y02881*
X01249Y0288*
X01249Y0288*
X01248Y0288*
X01248Y02879*
X01248Y02879*
X01247Y02878*
X01247Y02878*
X01247Y02877*
X01247Y02877*
X01247Y02876*
X01247Y02876*
X01247Y02875*
X01247Y02875*
X01247Y02874*
X01247Y02873*
X01247Y02873*
X01247Y02872*
X01247Y02872*
X01247Y02871*
X01247Y02871*
X01248Y0287*
X01248Y0287*
X01248Y02869*
X01249Y02869*
X01249Y02869*
X0125Y02868*
X0125Y02868*
X01251Y02868*
X01251Y02867*
X01252Y02867*
X01252Y02867*
X01253Y02867*
X01253Y02867*
X01254Y02867*
X01254Y02867*
X01255*
X01255Y02867*
X01256Y02867*
X01256Y02867*
X01257Y02867*
X01257Y02867*
X01258Y02867*
X01259Y02868*
X01259Y02868*
X01259Y02868*
X0126Y02869*
X0126Y02869*
X01261Y02869*
X01261Y0287*
X01261Y0287*
X01262Y02871*
X01262Y02871*
X01262Y02872*
X01262Y02872*
X01262Y02873*
X01262Y02873*
X01262Y02874*
X01263Y02875*
Y02975D02*
D01*
X01262Y02975*
X01262Y02976*
X01262Y02976*
X01262Y02977*
X01262Y02977*
X01262Y02978*
X01262Y02978*
X01261Y02979*
X01261Y02979*
X01261Y0298*
X0126Y0298*
X0126Y0298*
X01259Y02981*
X01259Y02981*
X01259Y02981*
X01258Y02982*
X01257Y02982*
X01257Y02982*
X01256Y02982*
X01256Y02982*
X01255Y02982*
X01255Y02982*
X01254*
X01254Y02982*
X01253Y02982*
X01253Y02982*
X01252Y02982*
X01252Y02982*
X01251Y02982*
X01251Y02981*
X0125Y02981*
X0125Y02981*
X01249Y0298*
X01249Y0298*
X01248Y0298*
X01248Y02979*
X01248Y02979*
X01247Y02978*
X01247Y02978*
X01247Y02977*
X01247Y02977*
X01247Y02976*
X01247Y02976*
X01247Y02975*
X01247Y02975*
X01247Y02974*
X01247Y02973*
X01247Y02973*
X01247Y02972*
X01247Y02972*
X01247Y02971*
X01247Y02971*
X01248Y0297*
X01248Y0297*
X01248Y02969*
X01249Y02969*
X01249Y02969*
X0125Y02968*
X0125Y02968*
X01251Y02968*
X01251Y02967*
X01252Y02967*
X01252Y02967*
X01253Y02967*
X01253Y02967*
X01254Y02967*
X01254Y02967*
X01255*
X01255Y02967*
X01256Y02967*
X01256Y02967*
X01257Y02967*
X01257Y02967*
X01258Y02967*
X01259Y02968*
X01259Y02968*
X01259Y02968*
X0126Y02969*
X0126Y02969*
X01261Y02969*
X01261Y0297*
X01261Y0297*
X01262Y02971*
X01262Y02971*
X01262Y02972*
X01262Y02972*
X01262Y02973*
X01262Y02973*
X01262Y02974*
X01263Y02975*
M02*