%FSTAX23Y23*%
%MOIN*%
%SFA1B1*%

%IPPOS*%
%ADD46C,0.003940*%
%LNpcb1-1*%
%LPD*%
G54D46*
X04021Y01352D02*
D01*
X04024Y01357*
X04027Y01363*
X0403Y01369*
X04032Y01375*
X04034Y01381*
X04035Y01387*
X04036Y01394*
X04037Y014*
X04037Y01407*
X04037Y01413*
X04036Y0142*
X04035Y01426*
X04033Y01432*
X04031Y01438*
X04028Y01444*
X04025Y0145*
X04022Y01455*
X04018Y01461*
X04014Y01466*
X04009Y0147*
X04005Y01475*
X04Y01479*
X03994Y01482*
X03989Y01486*
X03983Y01489*
X03977Y01491*
X03971Y01493*
X03965Y01495*
X03958Y01496*
X03952Y01497*
X03946Y01497*
X03939Y01497*
X03933Y01496*
X03926Y01495*
X0392Y01494*
X03914Y01492*
X03908Y01489*
X03902Y01487*
X03896Y01483*
X03891Y0148*
X03886Y01476*
X03881Y01472*
X03876Y01467*
X03872Y01462*
X03868Y01457*
X03865Y01452*
X03862Y01446*
X03859Y0144*
X03857Y01434*
X03855Y01428*
X03854Y01422*
X03853Y01415*
X03852Y01409*
X03852Y01402*
X03852Y01396*
X03853Y01389*
X03854Y01383*
X03856Y01377*
X03858Y01371*
X03861Y01365*
X03864Y01359*
X03867Y01354*
X03868Y01352*
X03561Y01107D02*
D01*
X03564Y01112*
X03567Y01118*
X0357Y01124*
X03572Y0113*
X03574Y01136*
X03575Y01142*
X03576Y01149*
X03577Y01155*
X03577Y01162*
X03577Y01168*
X03576Y01175*
X03575Y01181*
X03573Y01187*
X03571Y01193*
X03568Y01199*
X03565Y01205*
X03562Y0121*
X03558Y01216*
X03554Y01221*
X03549Y01225*
X03545Y0123*
X0354Y01234*
X03534Y01237*
X03529Y01241*
X03523Y01244*
X03517Y01246*
X03511Y01248*
X03505Y0125*
X03498Y01251*
X03492Y01252*
X03486Y01252*
X03479Y01252*
X03473Y01251*
X03466Y0125*
X0346Y01249*
X03454Y01247*
X03448Y01244*
X03442Y01242*
X03436Y01238*
X03431Y01235*
X03426Y01231*
X03421Y01227*
X03416Y01222*
X03412Y01217*
X03408Y01212*
X03405Y01207*
X03402Y01201*
X03399Y01195*
X03397Y01189*
X03395Y01183*
X03394Y01177*
X03393Y0117*
X03392Y01164*
X03392Y01157*
X03392Y01151*
X03393Y01144*
X03394Y01138*
X03396Y01132*
X03398Y01126*
X03401Y0112*
X03404Y01114*
X03407Y01109*
X03408Y01107*
X05031Y02417D02*
D01*
X05034Y02422*
X05037Y02428*
X0504Y02434*
X05042Y0244*
X05044Y02446*
X05045Y02452*
X05046Y02459*
X05047Y02465*
X05047Y02472*
X05047Y02478*
X05046Y02485*
X05045Y02491*
X05043Y02497*
X05041Y02503*
X05038Y02509*
X05035Y02515*
X05032Y0252*
X05028Y02526*
X05024Y02531*
X05019Y02535*
X05015Y0254*
X0501Y02544*
X05004Y02547*
X04999Y02551*
X04993Y02554*
X04987Y02556*
X04981Y02558*
X04975Y0256*
X04968Y02561*
X04962Y02562*
X04956Y02562*
X04949Y02562*
X04943Y02561*
X04936Y0256*
X0493Y02559*
X04924Y02557*
X04918Y02554*
X04912Y02552*
X04906Y02548*
X04901Y02545*
X04896Y02541*
X04891Y02537*
X04886Y02532*
X04882Y02527*
X04878Y02522*
X04875Y02517*
X04872Y02511*
X04869Y02505*
X04867Y02499*
X04865Y02493*
X04864Y02487*
X04863Y0248*
X04862Y02474*
X04862Y02467*
X04862Y02461*
X04863Y02454*
X04864Y02448*
X04866Y02442*
X04868Y02436*
X04871Y0243*
X04874Y02424*
X04877Y02419*
X04878Y02417*
X04776Y02412D02*
D01*
X04779Y02417*
X04782Y02423*
X04785Y02429*
X04787Y02435*
X04789Y02441*
X0479Y02447*
X04791Y02454*
X04792Y0246*
X04792Y02467*
X04792Y02473*
X04791Y0248*
X0479Y02486*
X04788Y02492*
X04786Y02498*
X04783Y02504*
X0478Y0251*
X04777Y02515*
X04773Y02521*
X04769Y02526*
X04764Y0253*
X0476Y02535*
X04755Y02539*
X04749Y02542*
X04744Y02546*
X04738Y02549*
X04732Y02551*
X04726Y02553*
X0472Y02555*
X04713Y02556*
X04707Y02557*
X04701Y02557*
X04694Y02557*
X04688Y02556*
X04681Y02555*
X04675Y02554*
X04669Y02552*
X04663Y02549*
X04657Y02547*
X04651Y02544*
X04646Y0254*
X04641Y02536*
X04636Y02532*
X04631Y02527*
X04627Y02522*
X04623Y02517*
X0462Y02512*
X04617Y02506*
X04614Y025*
X04612Y02494*
X0461Y02488*
X04609Y02482*
X04608Y02475*
X04607Y02469*
X04607Y02462*
X04607Y02456*
X04608Y02449*
X04609Y02443*
X04611Y02437*
X04613Y02431*
X04616Y02425*
X04619Y02419*
X04622Y02414*
X04623Y02412*
X03576Y01667D02*
D01*
X03579Y01672*
X03582Y01678*
X03585Y01684*
X03587Y0169*
X03589Y01696*
X0359Y01702*
X03591Y01709*
X03592Y01715*
X03592Y01722*
X03592Y01728*
X03591Y01735*
X0359Y01741*
X03588Y01747*
X03586Y01753*
X03583Y01759*
X0358Y01765*
X03577Y0177*
X03573Y01776*
X03569Y01781*
X03564Y01785*
X0356Y0179*
X03555Y01794*
X03549Y01797*
X03544Y01801*
X03538Y01804*
X03532Y01806*
X03526Y01808*
X0352Y0181*
X03513Y01811*
X03507Y01812*
X03501Y01812*
X03494Y01812*
X03488Y01811*
X03481Y0181*
X03475Y01809*
X03469Y01807*
X03463Y01804*
X03457Y01802*
X03451Y01799*
X03446Y01795*
X03441Y01791*
X03436Y01787*
X03431Y01782*
X03427Y01777*
X03423Y01772*
X0342Y01767*
X03417Y01761*
X03414Y01755*
X03412Y01749*
X0341Y01743*
X03409Y01737*
X03408Y0173*
X03407Y01724*
X03407Y01717*
X03407Y01711*
X03408Y01704*
X03409Y01698*
X03411Y01692*
X03413Y01686*
X03416Y0168*
X03419Y01674*
X03422Y01669*
X03423Y01667*
X04011Y01657D02*
D01*
X04014Y01662*
X04017Y01668*
X0402Y01674*
X04022Y0168*
X04024Y01686*
X04025Y01692*
X04026Y01699*
X04027Y01705*
X04027Y01712*
X04027Y01718*
X04026Y01725*
X04025Y01731*
X04023Y01737*
X04021Y01743*
X04018Y01749*
X04015Y01755*
X04012Y0176*
X04008Y01766*
X04004Y01771*
X03999Y01775*
X03995Y0178*
X0399Y01784*
X03984Y01787*
X03979Y01791*
X03973Y01794*
X03967Y01796*
X03961Y01798*
X03955Y018*
X03948Y01801*
X03942Y01802*
X03936Y01802*
X03929Y01802*
X03923Y01801*
X03916Y018*
X0391Y01799*
X03904Y01797*
X03898Y01794*
X03892Y01792*
X03886Y01789*
X03881Y01785*
X03876Y01781*
X03871Y01777*
X03866Y01772*
X03862Y01767*
X03858Y01762*
X03855Y01757*
X03852Y01751*
X03849Y01745*
X03847Y01739*
X03845Y01733*
X03844Y01727*
X03843Y0172*
X03842Y01714*
X03842Y01707*
X03842Y01701*
X03843Y01694*
X03844Y01688*
X03846Y01682*
X03848Y01676*
X03851Y0167*
X03854Y01664*
X03857Y01659*
X03858Y01657*
X04041Y01082D02*
D01*
X04044Y01087*
X04047Y01093*
X0405Y01099*
X04052Y01105*
X04054Y01111*
X04055Y01117*
X04056Y01124*
X04057Y0113*
X04057Y01137*
X04057Y01143*
X04056Y0115*
X04055Y01156*
X04053Y01162*
X04051Y01168*
X04048Y01174*
X04045Y0118*
X04042Y01185*
X04038Y01191*
X04034Y01196*
X04029Y012*
X04025Y01205*
X0402Y01209*
X04014Y01212*
X04009Y01216*
X04003Y01219*
X03997Y01221*
X03991Y01223*
X03985Y01225*
X03978Y01226*
X03972Y01227*
X03966Y01227*
X03959Y01227*
X03953Y01226*
X03946Y01225*
X0394Y01224*
X03934Y01222*
X03928Y01219*
X03922Y01217*
X03916Y01214*
X03911Y0121*
X03906Y01206*
X03901Y01202*
X03896Y01197*
X03892Y01192*
X03888Y01187*
X03885Y01182*
X03882Y01176*
X03879Y0117*
X03877Y01164*
X03875Y01158*
X03874Y01152*
X03873Y01145*
X03872Y01139*
X03872Y01132*
X03872Y01126*
X03873Y01119*
X03874Y01113*
X03876Y01107*
X03878Y01101*
X03881Y01095*
X03884Y01089*
X03887Y01084*
X03888Y01082*
X03131Y01192D02*
D01*
X03134Y01197*
X03137Y01203*
X0314Y01209*
X03142Y01215*
X03144Y01221*
X03145Y01227*
X03146Y01234*
X03147Y0124*
X03147Y01247*
X03147Y01253*
X03146Y0126*
X03145Y01266*
X03143Y01272*
X03141Y01278*
X03138Y01284*
X03135Y0129*
X03132Y01295*
X03128Y01301*
X03124Y01306*
X03119Y0131*
X03115Y01315*
X0311Y01319*
X03104Y01322*
X03099Y01326*
X03093Y01329*
X03087Y01331*
X03081Y01333*
X03075Y01335*
X03068Y01336*
X03062Y01337*
X03056Y01337*
X03049Y01337*
X03043Y01336*
X03036Y01335*
X0303Y01334*
X03024Y01332*
X03018Y01329*
X03012Y01327*
X03006Y01324*
X03001Y0132*
X02996Y01316*
X02991Y01312*
X02986Y01307*
X02982Y01302*
X02978Y01297*
X02975Y01292*
X02972Y01286*
X02969Y0128*
X02967Y01274*
X02965Y01268*
X02964Y01262*
X02963Y01255*
X02962Y01249*
X02962Y01242*
X02962Y01236*
X02963Y01229*
X02964Y01223*
X02966Y01217*
X02968Y01211*
X02971Y01205*
X02974Y01199*
X02977Y01194*
X02978Y01192*
X02841Y01192D02*
D01*
X02844Y01197*
X02847Y01203*
X0285Y01209*
X02852Y01215*
X02854Y01221*
X02855Y01227*
X02856Y01234*
X02857Y0124*
X02857Y01247*
X02857Y01253*
X02856Y0126*
X02855Y01266*
X02853Y01272*
X02851Y01278*
X02848Y01284*
X02845Y0129*
X02842Y01295*
X02838Y01301*
X02834Y01306*
X02829Y0131*
X02825Y01315*
X0282Y01319*
X02814Y01322*
X02809Y01326*
X02803Y01329*
X02797Y01331*
X02791Y01333*
X02785Y01335*
X02778Y01336*
X02772Y01337*
X02766Y01337*
X02759Y01337*
X02753Y01336*
X02746Y01335*
X0274Y01334*
X02734Y01332*
X02728Y01329*
X02722Y01327*
X02716Y01324*
X02711Y0132*
X02706Y01316*
X02701Y01312*
X02696Y01307*
X02692Y01302*
X02688Y01297*
X02685Y01292*
X02682Y01286*
X02679Y0128*
X02677Y01274*
X02675Y01268*
X02674Y01262*
X02673Y01255*
X02672Y01249*
X02672Y01242*
X02672Y01236*
X02673Y01229*
X02674Y01223*
X02676Y01217*
X02678Y01211*
X02681Y01205*
X02684Y01199*
X02687Y01194*
X02688Y01192*
X02546Y01192D02*
D01*
X02549Y01197*
X02552Y01203*
X02555Y01209*
X02557Y01215*
X02559Y01221*
X0256Y01227*
X02561Y01234*
X02562Y0124*
X02562Y01247*
X02562Y01253*
X02561Y0126*
X0256Y01266*
X02558Y01272*
X02556Y01278*
X02553Y01284*
X0255Y0129*
X02547Y01295*
X02543Y01301*
X02539Y01306*
X02534Y0131*
X0253Y01315*
X02525Y01319*
X02519Y01322*
X02514Y01326*
X02508Y01329*
X02502Y01331*
X02496Y01333*
X0249Y01335*
X02483Y01336*
X02477Y01337*
X02471Y01337*
X02464Y01337*
X02458Y01336*
X02451Y01335*
X02445Y01334*
X02439Y01332*
X02433Y01329*
X02427Y01327*
X02421Y01324*
X02416Y0132*
X02411Y01316*
X02406Y01312*
X02401Y01307*
X02397Y01302*
X02393Y01297*
X0239Y01292*
X02387Y01286*
X02384Y0128*
X02382Y01274*
X0238Y01268*
X02379Y01262*
X02378Y01255*
X02377Y01249*
X02377Y01242*
X02377Y01236*
X02378Y01229*
X02379Y01223*
X02381Y01217*
X02383Y01211*
X02386Y01205*
X02389Y01199*
X02392Y01194*
X02393Y01192*
X03566Y01387D02*
D01*
X03569Y01392*
X03572Y01398*
X03575Y01404*
X03577Y0141*
X03579Y01416*
X0358Y01422*
X03581Y01429*
X03582Y01435*
X03582Y01442*
X03582Y01448*
X03581Y01455*
X0358Y01461*
X03578Y01467*
X03576Y01473*
X03573Y01479*
X0357Y01485*
X03567Y0149*
X03563Y01496*
X03559Y01501*
X03554Y01505*
X0355Y0151*
X03545Y01514*
X03539Y01517*
X03534Y01521*
X03528Y01524*
X03522Y01526*
X03516Y01528*
X0351Y0153*
X03503Y01531*
X03497Y01532*
X03491Y01532*
X03484Y01532*
X03478Y01531*
X03471Y0153*
X03465Y01529*
X03459Y01527*
X03453Y01524*
X03447Y01522*
X03441Y01518*
X03436Y01515*
X03431Y01511*
X03426Y01507*
X03421Y01502*
X03417Y01497*
X03413Y01492*
X0341Y01487*
X03407Y01481*
X03404Y01475*
X03402Y01469*
X034Y01463*
X03399Y01457*
X03398Y0145*
X03397Y01444*
X03397Y01437*
X03397Y01431*
X03398Y01424*
X03399Y01418*
X03401Y01412*
X03403Y01406*
X03406Y014*
X03409Y01394*
X03412Y01389*
X03413Y01387*
X01896Y02042D02*
D01*
X01899Y02047*
X01902Y02053*
X01905Y02059*
X01907Y02065*
X01909Y02071*
X0191Y02077*
X01911Y02084*
X01912Y0209*
X01912Y02097*
X01912Y02103*
X01911Y0211*
X0191Y02116*
X01908Y02122*
X01906Y02128*
X01903Y02134*
X019Y0214*
X01897Y02145*
X01893Y02151*
X01889Y02156*
X01884Y0216*
X0188Y02165*
X01875Y02169*
X01869Y02172*
X01864Y02176*
X01858Y02179*
X01852Y02181*
X01846Y02183*
X0184Y02185*
X01833Y02186*
X01827Y02187*
X01821Y02187*
X01814Y02187*
X01808Y02186*
X01801Y02185*
X01795Y02184*
X01789Y02182*
X01783Y02179*
X01777Y02177*
X01771Y02173*
X01766Y0217*
X01761Y02166*
X01756Y02162*
X01751Y02157*
X01747Y02152*
X01743Y02147*
X0174Y02142*
X01737Y02136*
X01734Y0213*
X01732Y02124*
X0173Y02118*
X01729Y02112*
X01728Y02105*
X01727Y02099*
X01727Y02092*
X01727Y02086*
X01728Y02079*
X01729Y02073*
X01731Y02067*
X01733Y02061*
X01736Y02055*
X01739Y02049*
X01742Y02044*
X01743Y02042*
X01916Y01792D02*
D01*
X01919Y01797*
X01922Y01803*
X01925Y01809*
X01927Y01815*
X01929Y01821*
X0193Y01827*
X01931Y01834*
X01932Y0184*
X01932Y01847*
X01932Y01853*
X01931Y0186*
X0193Y01866*
X01928Y01872*
X01926Y01878*
X01923Y01884*
X0192Y0189*
X01917Y01895*
X01913Y01901*
X01909Y01906*
X01904Y0191*
X019Y01915*
X01895Y01919*
X01889Y01922*
X01884Y01926*
X01878Y01929*
X01872Y01931*
X01866Y01933*
X0186Y01935*
X01853Y01936*
X01847Y01937*
X01841Y01937*
X01834Y01937*
X01828Y01936*
X01821Y01935*
X01815Y01934*
X01809Y01932*
X01803Y01929*
X01797Y01927*
X01791Y01924*
X01786Y0192*
X01781Y01916*
X01776Y01912*
X01771Y01907*
X01767Y01902*
X01763Y01897*
X0176Y01892*
X01757Y01886*
X01754Y0188*
X01752Y01874*
X0175Y01868*
X01749Y01862*
X01748Y01855*
X01747Y01849*
X01747Y01842*
X01747Y01836*
X01748Y01829*
X01749Y01823*
X01751Y01817*
X01753Y01811*
X01756Y01805*
X01759Y01799*
X01762Y01794*
X01763Y01792*
X01356Y01792D02*
D01*
X01359Y01797*
X01362Y01803*
X01365Y01809*
X01367Y01815*
X01369Y01821*
X0137Y01827*
X01371Y01834*
X01372Y0184*
X01372Y01847*
X01372Y01853*
X01371Y0186*
X0137Y01866*
X01368Y01872*
X01366Y01878*
X01363Y01884*
X0136Y0189*
X01357Y01895*
X01353Y01901*
X01349Y01906*
X01344Y0191*
X0134Y01915*
X01335Y01919*
X01329Y01922*
X01324Y01926*
X01318Y01929*
X01312Y01931*
X01306Y01933*
X013Y01935*
X01293Y01936*
X01287Y01937*
X01281Y01937*
X01274Y01937*
X01268Y01936*
X01261Y01935*
X01255Y01934*
X01249Y01932*
X01243Y01929*
X01237Y01927*
X01231Y01924*
X01226Y0192*
X01221Y01916*
X01216Y01912*
X01211Y01907*
X01207Y01902*
X01203Y01897*
X012Y01892*
X01197Y01886*
X01194Y0188*
X01192Y01874*
X0119Y01868*
X01189Y01862*
X01188Y01855*
X01187Y01849*
X01187Y01842*
X01187Y01836*
X01188Y01829*
X01189Y01823*
X01191Y01817*
X01193Y01811*
X01196Y01805*
X01199Y01799*
X01202Y01794*
X01203Y01792*
X03868Y01352D02*
X04021D01*
X03408Y01107D02*
X03561D01*
X04852Y02127D02*
X04917D01*
X04852Y02241D02*
X04917D01*
X04852Y02127D02*
Y02241D01*
X04917Y02127D02*
Y02241D01*
X04582Y02117D02*
X04647D01*
X04582Y02231D02*
X04647D01*
X04582Y02117D02*
Y02231D01*
X04647Y02117D02*
Y02231D01*
X04878Y02417D02*
X05031D01*
X04623Y02412D02*
X04776D01*
X04782Y01577D02*
X04847D01*
X04782Y01691D02*
X04847D01*
X04782Y01577D02*
Y01691D01*
X04847Y01577D02*
Y01691D01*
X04672Y01747D02*
X04737D01*
X04672Y01861D02*
X04737D01*
X04672Y01747D02*
Y01861D01*
X04737Y01747D02*
Y01861D01*
X04471Y01094D02*
X04605D01*
X04471Y01165D02*
X04605D01*
Y01094D02*
Y01165D01*
X04471Y01094D02*
Y01165D01*
X04657Y01287D02*
X04722D01*
X04657Y01401D02*
X04722D01*
X04657Y01287D02*
Y01401D01*
X04722Y01287D02*
Y01401D01*
X04457Y01282D02*
X04522D01*
X04457Y01397D02*
X04522D01*
X04457Y01282D02*
Y01397D01*
X04522Y01282D02*
Y01397D01*
X04476Y01534D02*
X0461D01*
X04476Y01605D02*
X0461D01*
Y01534D02*
Y01605D01*
X04476Y01534D02*
Y01605D01*
X04471Y01744D02*
X04605D01*
X04471Y01815D02*
X04605D01*
Y01744D02*
Y01815D01*
X04471Y01744D02*
Y01815D01*
X04261Y01119D02*
X04395D01*
X04261Y0119D02*
X04395D01*
Y01119D02*
Y0119D01*
X04261Y01119D02*
Y0119D01*
X04256Y01324D02*
X0439D01*
X04256Y01395D02*
X0439D01*
Y01324D02*
Y01395D01*
X04256Y01324D02*
Y01395D01*
Y01539D02*
X0439D01*
X04256Y0161D02*
X0439D01*
Y01539D02*
Y0161D01*
X04256Y01539D02*
Y0161D01*
X04243Y01744D02*
X04376D01*
X04243Y01815D02*
X04376D01*
Y01744D02*
Y01815D01*
X04243Y01744D02*
Y01815D01*
X03423Y01667D02*
X03576D01*
X03858Y01657D02*
X04011D01*
X03888Y01082D02*
X04041D01*
X02978Y01192D02*
X03131D01*
X02688D02*
X02841D01*
X02393D02*
X02546D01*
X03413Y01387D02*
X03566D01*
X04162Y02157D02*
X04227D01*
X04162Y02271D02*
X04227D01*
X04162Y02157D02*
Y02271D01*
X04227Y02157D02*
Y02271D01*
X04162Y02407D02*
X04227D01*
X04162Y02521D02*
X04227D01*
X04162Y02407D02*
Y02521D01*
X04227Y02407D02*
Y02521D01*
X03938Y02137D02*
Y02202D01*
X04052Y02137D02*
Y02202D01*
X03938D02*
X04052D01*
X03938Y02137D02*
X04052D01*
X03957Y02402D02*
X04022D01*
X03957Y02516D02*
X04022D01*
X03957Y02402D02*
Y02516D01*
X04022Y02402D02*
Y02516D01*
X03707Y01882D02*
X03772D01*
X03707Y01996D02*
X03772D01*
X03707Y01882D02*
Y01996D01*
X03772Y01882D02*
Y01996D01*
X03457Y02012D02*
X03522D01*
X03457Y02126D02*
X03522D01*
X03457Y02012D02*
Y02126D01*
X03522Y02012D02*
Y02126D01*
X03242Y02027D02*
X03307D01*
X03242Y02141D02*
X03307D01*
X03242Y02027D02*
Y02141D01*
X03307Y02027D02*
Y02141D01*
X03702Y02137D02*
X03767D01*
X03702Y02251D02*
X03767D01*
X03702Y02137D02*
Y02251D01*
X03767Y02137D02*
Y02251D01*
X03697Y02402D02*
X03762D01*
X03697Y02516D02*
X03762D01*
X03697Y02402D02*
Y02516D01*
X03762Y02402D02*
Y02516D01*
X03461Y02264D02*
X03595D01*
X03461Y02335D02*
X03595D01*
Y02264D02*
Y02335D01*
X03461Y02264D02*
Y02335D01*
Y02459D02*
X03595D01*
X03461Y0253D02*
X03595D01*
Y02459D02*
Y0253D01*
X03461Y02459D02*
Y0253D01*
X03236Y02269D02*
X0337D01*
X03236Y0234D02*
X0337D01*
Y02269D02*
Y0234D01*
X03236Y02269D02*
Y0234D01*
X03246Y02459D02*
X0338D01*
X03246Y0253D02*
X0338D01*
Y02459D02*
Y0253D01*
X03246Y02459D02*
Y0253D01*
X03095Y02349D02*
Y02483D01*
X03024Y02349D02*
Y02483D01*
X03095*
X03024Y02349D02*
X03095D01*
X02841Y02464D02*
X02975D01*
X02841Y02535D02*
X02975D01*
Y02464D02*
Y02535D01*
X02841Y02464D02*
Y02535D01*
X02634Y02284D02*
X02768D01*
X02634Y02355D02*
X02768D01*
Y02284D02*
Y02355D01*
X02634Y02284D02*
Y02355D01*
X02633Y02469D02*
X02766D01*
X02633Y0254D02*
X02766D01*
Y02469D02*
Y0254D01*
X02633Y02469D02*
Y0254D01*
X01466Y02739D02*
X016D01*
X01466Y0281D02*
X016D01*
Y02739D02*
Y0281D01*
X01466Y02739D02*
Y0281D01*
X02385Y01485D02*
X02985D01*
X02385Y02214D02*
X02985D01*
X02385Y01485D02*
Y02214D01*
X02985Y01485D02*
Y02214D01*
X0219Y02249D02*
Y02383D01*
X02119Y02249D02*
Y02383D01*
X0219*
X02119Y02249D02*
X0219D01*
X02096Y02024D02*
X0223D01*
X02096Y02095D02*
X0223D01*
Y02024D02*
Y02095D01*
X02096Y02024D02*
Y02095D01*
X02091Y01814D02*
X02225D01*
X02091Y01885D02*
X02225D01*
Y01814D02*
Y01885D01*
X02091Y01814D02*
Y01885D01*
X02096Y01629D02*
X0223D01*
X02096Y017D02*
X0223D01*
Y01629D02*
Y017D01*
X02096Y01629D02*
Y017D01*
X01471Y02529D02*
X01605D01*
X01471Y026D02*
X01605D01*
Y02529D02*
Y026D01*
X01471Y02529D02*
Y026D01*
X01743Y02042D02*
X01896D01*
X01466Y02299D02*
X016D01*
X01466Y0237D02*
X016D01*
Y02299D02*
Y0237D01*
X01466Y02299D02*
Y0237D01*
X01471Y02089D02*
X01605D01*
X01471Y0216D02*
X01605D01*
Y02089D02*
Y0216D01*
X01471Y02089D02*
Y0216D01*
X01476Y01899D02*
X0161D01*
X01476Y0197D02*
X0161D01*
Y01899D02*
Y0197D01*
X01476Y01899D02*
Y0197D01*
X01278Y02135D02*
Y02544D01*
X01149Y02135D02*
X0133D01*
X01149Y02544D02*
X0133D01*
Y02135D02*
Y02544D01*
X01149Y02135D02*
Y02544D01*
X01766Y01634D02*
X019D01*
X01766Y01705D02*
X019D01*
Y01634D02*
Y01705D01*
X01766Y01634D02*
Y01705D01*
X01763Y01792D02*
X01916D01*
X01203D02*
X01356D01*
X01505Y01303D02*
Y01436D01*
X01434Y01303D02*
Y01436D01*
X01505*
X01434Y01303D02*
X01505D01*
X01626Y01269D02*
X0176D01*
X01626Y0134D02*
X0176D01*
Y01269D02*
Y0134D01*
X01626Y01269D02*
Y0134D01*
X01461Y01594D02*
X01595D01*
X01461Y01665D02*
X01595D01*
Y01594D02*
Y01665D01*
X01461Y01594D02*
Y01665D01*
X01476Y01749D02*
X0161D01*
X01476Y0182D02*
X0161D01*
Y01749D02*
Y0182D01*
X01476Y01749D02*
Y0182D01*
M02*