%FSTAX23Y23*%
%MOIN*%
%SFA1B1*%

%IPPOS*%
%ADD48C,0.002000*%
%LNpcb1-1*%
%LPD*%
G54D48*
X03979Y01405D02*
X0401D01*
X03995Y01389D02*
Y0142D01*
X03929Y01405D02*
X0396D01*
X03945Y01389D02*
Y0142D01*
X03879Y01405D02*
X0391D01*
X03895Y01389D02*
Y0142D01*
X03419Y0116D02*
X0345D01*
X03435Y01144D02*
Y01175D01*
X03469Y0116D02*
X035D01*
X03485Y01144D02*
Y01175D01*
X03519Y0116D02*
X0355D01*
X03535Y01144D02*
Y01175D01*
X04447Y02435D02*
X04482D01*
X04465Y02417D02*
Y02452D01*
X04447Y02535D02*
X04482D01*
X04465Y02517D02*
Y02552D01*
X04889Y0247D02*
X0492D01*
X04905Y02454D02*
Y02485D01*
X04939Y0247D02*
X0497D01*
X04955Y02454D02*
Y02485D01*
X04989Y0247D02*
X0502D01*
X05005Y02454D02*
Y02485D01*
X04634Y02465D02*
X04665D01*
X0465Y02449D02*
Y0248D01*
X04684Y02465D02*
X04715D01*
X047Y02449D02*
Y0248D01*
X04734Y02465D02*
X04765D01*
X0475Y02449D02*
Y0248D01*
X05112Y012D02*
X05147D01*
X0513Y01182D02*
Y01217D01*
X05112Y014D02*
X05147D01*
X0513Y01382D02*
Y01417D01*
X05112Y015D02*
X05147D01*
X0513Y01482D02*
Y01517D01*
X05112Y016D02*
X05147D01*
X0513Y01582D02*
Y01617D01*
X05112Y017D02*
X05147D01*
X0513Y01682D02*
Y01717D01*
X05112Y018D02*
X05147D01*
X0513Y01782D02*
Y01817D01*
X05112Y019D02*
X05147D01*
X0513Y01882D02*
Y01917D01*
X05112Y02D02*
X05147D01*
X0513Y01982D02*
Y02017D01*
X05112Y013D02*
X05147D01*
X0513Y01282D02*
Y01317D01*
X03434Y0172D02*
X03465D01*
X0345Y01704D02*
Y01735D01*
X03484Y0172D02*
X03515D01*
X035Y01704D02*
Y01735D01*
X03534Y0172D02*
X03565D01*
X0355Y01704D02*
Y01735D01*
X03869Y0171D02*
X039D01*
X03885Y01694D02*
Y01725D01*
X03919Y0171D02*
X0395D01*
X03935Y01694D02*
Y01725D01*
X03969Y0171D02*
X04D01*
X03985Y01694D02*
Y01725D01*
X03899Y01135D02*
X0393D01*
X03915Y01119D02*
Y0115D01*
X03949Y01135D02*
X0398D01*
X03965Y01119D02*
Y0115D01*
X03999Y01135D02*
X0403D01*
X04015Y01119D02*
Y0115D01*
X02989Y01245D02*
X0302D01*
X03005Y01229D02*
Y0126D01*
X03039Y01245D02*
X0307D01*
X03055Y01229D02*
Y0126D01*
X03089Y01245D02*
X0312D01*
X03105Y01229D02*
Y0126D01*
X02699Y01245D02*
X0273D01*
X02715Y01229D02*
Y0126D01*
X02749Y01245D02*
X0278D01*
X02765Y01229D02*
Y0126D01*
X02799Y01245D02*
X0283D01*
X02815Y01229D02*
Y0126D01*
X02404Y01245D02*
X02435D01*
X0242Y01229D02*
Y0126D01*
X02454Y01245D02*
X02485D01*
X0247Y01229D02*
Y0126D01*
X02504Y01245D02*
X02535D01*
X0252Y01229D02*
Y0126D01*
X03424Y0144D02*
X03455D01*
X0344Y01424D02*
Y01455D01*
X03474Y0144D02*
X03505D01*
X0349Y01424D02*
Y01455D01*
X03524Y0144D02*
X03555D01*
X0354Y01424D02*
Y01455D01*
X0236Y0293D02*
X02395D01*
X02378Y02912D02*
Y02947D01*
X0246Y0293D02*
X02495D01*
X02478Y02912D02*
Y02947D01*
X0236Y0283D02*
X02395D01*
X02378Y02812D02*
Y02847D01*
X0246Y0283D02*
X02495D01*
X02478Y02812D02*
Y02847D01*
X0236Y0273D02*
X02395D01*
X02378Y02712D02*
Y02747D01*
X0246Y0273D02*
X02495D01*
X02478Y02712D02*
Y02747D01*
X0236Y0263D02*
X02395D01*
X02378Y02612D02*
Y02647D01*
X0246Y0263D02*
X02495D01*
X02478Y02612D02*
Y02647D01*
X0236Y0253D02*
X02395D01*
X02378Y02512D02*
Y02547D01*
X0246Y0253D02*
X02495D01*
X02478Y02512D02*
Y02547D01*
X03207Y0154D02*
X03242D01*
X03225Y01522D02*
Y01557D01*
X03207Y0164D02*
X03242D01*
X03225Y01622D02*
Y01657D01*
X01954Y01132D02*
X01995D01*
X01975Y01111D02*
Y01152D01*
X01954Y01507D02*
X01995D01*
X01975Y01487D02*
Y01528D01*
X01754Y02095D02*
X01785D01*
X0177Y02079D02*
Y0211D01*
X01804Y02095D02*
X01835D01*
X0182Y02079D02*
Y0211D01*
X01854Y02095D02*
X01885D01*
X0187Y02079D02*
Y0211D01*
X01205Y0224D02*
X01244D01*
X01225Y0222D02*
Y02259D01*
X01205Y0234D02*
X01244D01*
X01225Y0232D02*
Y02359D01*
X01205Y0244D02*
X01244D01*
X01225Y0242D02*
Y02459D01*
X01237Y02875D02*
X01272D01*
X01255Y02857D02*
Y02892D01*
X01237Y02975D02*
X01272D01*
X01255Y02957D02*
Y02992D01*
X01774Y01845D02*
X01805D01*
X0179Y01829D02*
Y0186D01*
X01824Y01845D02*
X01855D01*
X0184Y01829D02*
Y0186D01*
X01874Y01845D02*
X01905D01*
X0189Y01829D02*
Y0186D01*
X01214Y01845D02*
X01245D01*
X0123Y01829D02*
Y0186D01*
X01264Y01845D02*
X01295D01*
X0128Y01829D02*
Y0186D01*
X01314Y01845D02*
X01345D01*
X0133Y01829D02*
Y0186D01*
X01186Y01235D02*
X01213D01*
X012Y01221D02*
Y01248D01*
X01186Y01335D02*
X01213D01*
X012Y01321D02*
Y01348D01*
X01186Y01435D02*
X01213D01*
X012Y01421D02*
Y01448D01*
X04744Y01593D02*
X04772D01*
X04758Y01579D02*
Y01607D01*
X01871Y0219D02*
X01899D01*
X01885Y02176D02*
Y02204D01*
X01665Y0179D02*
X01693D01*
X01679Y01776D02*
Y01804D01*
X04349Y01675D02*
X04377D01*
X04363Y01661D02*
Y01689D01*
X04382Y01297D02*
X0441D01*
X04396Y01283D02*
Y01311D01*
X04236Y01501D02*
X04264D01*
X0425Y01487D02*
Y01515D01*
X03141Y01585D02*
X03169D01*
X03155Y01571D02*
Y01599D01*
X01666Y02325D02*
X01694D01*
X0168Y02311D02*
Y02339D01*
X01572Y02231D02*
X016D01*
X01586Y02217D02*
Y02245D01*
X01872Y0174D02*
X019D01*
X01886Y01726D02*
Y01754D01*
X01989Y02494D02*
X02017D01*
X02003Y0248D02*
Y02508D01*
X0373Y02328D02*
X03758D01*
X03744Y02314D02*
Y02342D01*
X03726Y02069D02*
X03754D01*
X0374Y02055D02*
Y02083D01*
X02757Y02434D02*
X02785D01*
X02771Y0242D02*
Y02448D01*
X036Y01422D02*
X03628D01*
X03614Y01408D02*
Y01436D01*
X03391Y01972D02*
X03419D01*
X03405Y01958D02*
Y01986D01*
X01949Y02549D02*
X01977D01*
X01963Y02535D02*
Y02563D01*
X04676Y01188D02*
X04704D01*
X0469Y01174D02*
Y01202D01*
X04362Y01512D02*
X0439D01*
X04376Y01498D02*
Y01526D01*
X0319Y02551D02*
X03218D01*
X03204Y02537D02*
Y02565D01*
X03109Y02364D02*
X03137D01*
X03123Y0235D02*
Y02378D01*
X03422Y02377D02*
X0345D01*
X03436Y02363D02*
Y02391D01*
X0451Y01472D02*
X04538D01*
X04524Y01458D02*
Y01486D01*
X04542Y02133D02*
X0457D01*
X04556Y02119D02*
Y02147D01*
X04597Y017D02*
X04625D01*
X04611Y01686D02*
Y01714D01*
X0407Y0171D02*
X04098D01*
X04084Y01696D02*
Y01724D01*
X03471Y02211D02*
X03499D01*
X03485Y02197D02*
Y02225D01*
X03853Y02403D02*
X03881D01*
X03867Y02389D02*
Y02417D01*
X03123Y02133D02*
X03151D01*
X03137Y02119D02*
Y02147D01*
X03301Y01935D02*
X03329D01*
X03315Y01921D02*
Y01949D01*
X03067Y0252D02*
X03095D01*
X03081Y02506D02*
Y02534D01*
X0332Y0238D02*
X03348D01*
X03334Y02366D02*
Y02394D01*
X03163Y02065D02*
X03191D01*
X03177Y02051D02*
Y02079D01*
X04471Y01067D02*
X04499D01*
X04485Y01053D02*
Y01081D01*
X04183Y01351D02*
X04211D01*
X04197Y01337D02*
Y01365D01*
X0313Y0227D02*
X03158D01*
X03144Y02256D02*
Y02284D01*
X02635Y02257D02*
X02663D01*
X02649Y02243D02*
Y02271D01*
X02841Y02631D02*
X02869D01*
X02855Y02617D02*
Y02645D01*
X02671Y01983D02*
X02699D01*
X02685Y01969D02*
Y01997D01*
X02977Y02365D02*
X03005D01*
X02991Y02351D02*
Y02379D01*
X01471Y02063D02*
X01499D01*
X01485Y02049D02*
Y02077D01*
X02161Y01764D02*
X02189D01*
X02175Y0175D02*
Y01778D01*
X04636Y02279D02*
X04664D01*
X0465Y02265D02*
Y02293D01*
X04243Y01717D02*
X04271D01*
X04257Y01703D02*
Y01731D01*
X04256Y01297D02*
X04284D01*
X0427Y01283D02*
Y01311D01*
X04261Y01092D02*
X04289D01*
X04275Y01078D02*
Y01106D01*
M02*