%FSTAX23Y23*%
%MOIN*%
%SFA1B1*%

%IPPOS*%
%ADD46C,0.003940*%
%ADD47C,0.001970*%
%LNpcb1-1*%
%LPD*%
G54D46*
X03945Y01385D02*
Y01424D01*
X03925Y01405D02*
X03964D01*
X03465Y0116D02*
X03504D01*
X03485Y0114D02*
Y01179D01*
X04853Y02117D02*
X04916D01*
X04853Y02251D02*
X04916D01*
X04853Y02117D02*
Y02251D01*
X04916Y02117D02*
Y02251D01*
X04885Y02164D02*
Y02204D01*
X04865Y02184D02*
X04904D01*
X04583Y02107D02*
X04646D01*
X04583Y02241D02*
X04646D01*
X04583Y02107D02*
Y02241D01*
X04646Y02107D02*
Y02241D01*
X04615Y02154D02*
Y02194D01*
X04595Y02174D02*
X04634D01*
X04935Y0247D02*
X04974D01*
X04955Y0245D02*
Y02489D01*
X0468Y02465D02*
X04719D01*
X047Y02445D02*
Y02484D01*
X04783Y01567D02*
X04846D01*
X04783Y01701D02*
X04846D01*
X04783Y01567D02*
Y01701D01*
X04846Y01567D02*
Y01701D01*
X04815Y01614D02*
Y01654D01*
X04795Y01634D02*
X04834D01*
X04673Y01737D02*
X04736D01*
X04673Y01871D02*
X04736D01*
X04673Y01737D02*
Y01871D01*
X04736Y01737D02*
Y01871D01*
X04705Y01784D02*
Y01824D01*
X04685Y01804D02*
X04724D01*
X04538Y0111D02*
Y01149D01*
X04518Y0113D02*
X04557D01*
X04459Y01092D02*
X04616D01*
X04459Y01167D02*
X04616D01*
Y01092D02*
Y01167D01*
X04459Y01092D02*
Y01167D01*
X04658Y01277D02*
X04721D01*
X04658Y01411D02*
X04721D01*
X04658Y01277D02*
Y01411D01*
X04721Y01277D02*
Y01411D01*
X0469Y01324D02*
Y01364D01*
X0467Y01344D02*
X04709D01*
X04458Y01273D02*
X04521D01*
X04458Y01406D02*
X04521D01*
X04458Y01273D02*
Y01406D01*
X04521Y01273D02*
Y01406D01*
X0449Y0132D02*
Y01359D01*
X0447Y0134D02*
X04509D01*
X04543Y0155D02*
Y01589D01*
X04523Y0157D02*
X04562D01*
X04464Y01532D02*
X04621D01*
X04464Y01607D02*
X04621D01*
Y01532D02*
Y01607D01*
X04464Y01532D02*
Y01607D01*
X04538Y0176D02*
Y01799D01*
X04518Y0178D02*
X04557D01*
X04459Y01742D02*
X04616D01*
X04459Y01817D02*
X04616D01*
Y01742D02*
Y01817D01*
X04459Y01742D02*
Y01817D01*
X04328Y01135D02*
Y01174D01*
X04308Y01155D02*
X04347D01*
X04249Y01117D02*
X04406D01*
X04249Y01192D02*
X04406D01*
Y01117D02*
Y01192D01*
X04249Y01117D02*
Y01192D01*
X04323Y0134D02*
Y01379D01*
X04303Y0136D02*
X04342D01*
X04244Y01322D02*
X04401D01*
X04244Y01397D02*
X04401D01*
Y01322D02*
Y01397D01*
X04244Y01322D02*
Y01397D01*
X04323Y01555D02*
Y01594D01*
X04303Y01575D02*
X04342D01*
X04244Y01537D02*
X04401D01*
X04244Y01612D02*
X04401D01*
Y01537D02*
Y01612D01*
X04244Y01537D02*
Y01612D01*
X0431Y0176D02*
Y01799D01*
X0429Y0178D02*
X04329D01*
X04231Y01742D02*
X04388D01*
X04231Y01817D02*
X04388D01*
Y01742D02*
Y01817D01*
X04231Y01742D02*
Y01817D01*
X0348Y0172D02*
X03519D01*
X035Y017D02*
Y01739D01*
X03915Y0171D02*
X03954D01*
X03935Y0169D02*
Y01729D01*
X03945Y01135D02*
X03984D01*
X03965Y01115D02*
Y01154D01*
X03035Y01245D02*
X03074D01*
X03055Y01225D02*
Y01264D01*
X02745Y01245D02*
X02784D01*
X02765Y01225D02*
Y01264D01*
X0245Y01245D02*
X02489D01*
X0247Y01225D02*
Y01264D01*
X0347Y0144D02*
X03509D01*
X0349Y0142D02*
Y01459D01*
X04163Y02147D02*
X04226D01*
X04163Y02281D02*
X04226D01*
X04163Y02147D02*
Y02281D01*
X04226Y02147D02*
Y02281D01*
X04195Y02194D02*
Y02234D01*
X04175Y02214D02*
X04214D01*
X04163Y02397D02*
X04226D01*
X04163Y02531D02*
X04226D01*
X04163Y02397D02*
Y02531D01*
X04226Y02397D02*
Y02531D01*
X04195Y02444D02*
Y02484D01*
X04175Y02464D02*
X04214D01*
X03928Y02138D02*
Y02201D01*
X04062Y02138D02*
Y02201D01*
X03928D02*
X04062D01*
X03928Y02138D02*
X04062D01*
X03975Y0217D02*
X04015D01*
X03995Y0215D02*
Y02189D01*
X03958Y02392D02*
X04021D01*
X03958Y02526D02*
X04021D01*
X03958Y02392D02*
Y02526D01*
X04021Y02392D02*
Y02526D01*
X0399Y02439D02*
Y02479D01*
X0397Y02459D02*
X04009D01*
X03708Y01872D02*
X03771D01*
X03708Y02006D02*
X03771D01*
X03708Y01872D02*
Y02006D01*
X03771Y01872D02*
Y02006D01*
X0374Y01919D02*
Y01959D01*
X0372Y01939D02*
X03759D01*
X03458Y02002D02*
X03521D01*
X03458Y02136D02*
X03521D01*
X03458Y02002D02*
Y02136D01*
X03521Y02002D02*
Y02136D01*
X0349Y02049D02*
Y02089D01*
X0347Y02069D02*
X03509D01*
X03243Y02017D02*
X03306D01*
X03243Y02151D02*
X03306D01*
X03243Y02017D02*
Y02151D01*
X03306Y02017D02*
Y02151D01*
X03275Y02064D02*
Y02104D01*
X03255Y02084D02*
X03294D01*
X03703Y02127D02*
X03766D01*
X03703Y02261D02*
X03766D01*
X03703Y02127D02*
Y02261D01*
X03766Y02127D02*
Y02261D01*
X03735Y02174D02*
Y02214D01*
X03715Y02194D02*
X03754D01*
X03698Y02392D02*
X03761D01*
X03698Y02526D02*
X03761D01*
X03698Y02392D02*
Y02526D01*
X03761Y02392D02*
Y02526D01*
X0373Y02439D02*
Y02479D01*
X0371Y02459D02*
X03749D01*
X03528Y0228D02*
Y02319D01*
X03508Y023D02*
X03547D01*
X03449Y02262D02*
X03606D01*
X03449Y02337D02*
X03606D01*
Y02262D02*
Y02337D01*
X03449Y02262D02*
Y02337D01*
X03528Y02475D02*
Y02514D01*
X03508Y02495D02*
X03547D01*
X03449Y02457D02*
X03606D01*
X03449Y02532D02*
X03606D01*
Y02457D02*
Y02532D01*
X03449Y02457D02*
Y02532D01*
X03303Y02285D02*
Y02324D01*
X03283Y02305D02*
X03322D01*
X03224Y02267D02*
X03381D01*
X03224Y02342D02*
X03381D01*
Y02267D02*
Y02342D01*
X03224Y02267D02*
Y02342D01*
X03313Y02475D02*
Y02514D01*
X03293Y02495D02*
X03332D01*
X03234Y02457D02*
X03391D01*
X03234Y02532D02*
X03391D01*
Y02457D02*
Y02532D01*
X03234Y02457D02*
Y02532D01*
X0304Y02416D02*
X03079D01*
X0306Y02397D02*
Y02436D01*
X03097Y02338D02*
Y02495D01*
X03022Y02338D02*
Y02495D01*
X03097*
X03022Y02338D02*
X03097D01*
X02908Y0248D02*
Y02519D01*
X02888Y025D02*
X02927D01*
X02829Y02462D02*
X02986D01*
X02829Y02537D02*
X02986D01*
Y02462D02*
Y02537D01*
X02829Y02462D02*
Y02537D01*
X02701Y023D02*
Y02339D01*
X02682Y0232D02*
X02721D01*
X02623Y02282D02*
X0278D01*
X02623Y02357D02*
X0278D01*
Y02282D02*
Y02357D01*
X02623Y02282D02*
Y02357D01*
X027Y02485D02*
Y02524D01*
X0268Y02504D02*
X02719D01*
X02621Y02467D02*
X02778D01*
X02621Y02542D02*
X02778D01*
Y02467D02*
Y02542D01*
X02621Y02467D02*
Y02542D01*
X01533Y02755D02*
Y02794D01*
X01513Y02775D02*
X01552D01*
X01454Y02737D02*
X01611D01*
X01454Y02812D02*
X01611D01*
Y02737D02*
Y02812D01*
X01454Y02737D02*
Y02812D01*
X02373Y01452D02*
X02996D01*
X02373Y02247D02*
X02996D01*
X02373Y01452D02*
Y02247D01*
X02996Y01452D02*
Y02247D01*
X02685Y0183D02*
Y01869D01*
X02665Y0185D02*
X02704D01*
X02135Y02316D02*
X02174D01*
X02155Y02297D02*
Y02336D01*
X02192Y02238D02*
Y02395D01*
X02117Y02238D02*
Y02395D01*
X02192*
X02117Y02238D02*
X02192D01*
X02163Y0204D02*
Y02079D01*
X02143Y0206D02*
X02182D01*
X02084Y02022D02*
X02241D01*
X02084Y02097D02*
X02241D01*
Y02022D02*
Y02097D01*
X02084Y02022D02*
Y02097D01*
X02158Y0183D02*
Y01869D01*
X02138Y0185D02*
X02177D01*
X02079Y01812D02*
X02236D01*
X02079Y01887D02*
X02236D01*
Y01812D02*
Y01887D01*
X02079Y01812D02*
Y01887D01*
X02163Y01645D02*
Y01684D01*
X02143Y01665D02*
X02182D01*
X02084Y01627D02*
X02241D01*
X02084Y01702D02*
X02241D01*
Y01627D02*
Y01702D01*
X02084Y01627D02*
Y01702D01*
X01538Y02545D02*
Y02584D01*
X01518Y02565D02*
X01557D01*
X01459Y02527D02*
X01616D01*
X01459Y02602D02*
X01616D01*
Y02527D02*
Y02602D01*
X01459Y02527D02*
Y02602D01*
X018Y02095D02*
X01839D01*
X0182Y02075D02*
Y02114D01*
X01533Y02315D02*
Y02354D01*
X01513Y02335D02*
X01552D01*
X01454Y02297D02*
X01611D01*
X01454Y02372D02*
X01611D01*
Y02297D02*
Y02372D01*
X01454Y02297D02*
Y02372D01*
X01538Y02105D02*
Y02144D01*
X01518Y02125D02*
X01557D01*
X01459Y02087D02*
X01616D01*
X01459Y02162D02*
X01616D01*
Y02087D02*
Y02162D01*
X01459Y02087D02*
Y02162D01*
X01543Y01915D02*
Y01954D01*
X01523Y01935D02*
X01562D01*
X01464Y01897D02*
X01621D01*
X01464Y01972D02*
X01621D01*
Y01897D02*
Y01972D01*
X01464Y01897D02*
Y01972D01*
X01225Y0232D02*
Y02359D01*
X01205Y0234D02*
X01244D01*
X01833Y0165D02*
Y01689D01*
X01813Y0167D02*
X01852D01*
X01754Y01632D02*
X01911D01*
X01754Y01707D02*
X01911D01*
Y01632D02*
Y01707D01*
X01754Y01632D02*
Y01707D01*
X0182Y01845D02*
X01859D01*
X0184Y01825D02*
Y01864D01*
X0126Y01845D02*
X01299D01*
X0128Y01825D02*
Y01864D01*
X0145Y0137D02*
X01489D01*
X0147Y0135D02*
Y01389D01*
X01507Y01291D02*
Y01448D01*
X01432Y01291D02*
Y01448D01*
X01507*
X01432Y01291D02*
X01507D01*
X01693Y01285D02*
Y01324D01*
X01673Y01305D02*
X01712D01*
X01614Y01267D02*
X01771D01*
X01614Y01342D02*
X01771D01*
Y01267D02*
Y01342D01*
X01614Y01267D02*
Y01342D01*
X01528Y0161D02*
Y01649D01*
X01508Y0163D02*
X01547D01*
X01449Y01592D02*
X01606D01*
X01449Y01667D02*
X01606D01*
Y01592D02*
Y01667D01*
X01449Y01592D02*
Y01667D01*
X01543Y01765D02*
Y01804D01*
X01523Y01785D02*
X01562D01*
X01464Y01747D02*
X01621D01*
X01464Y01822D02*
X01621D01*
Y01747D02*
Y01822D01*
X01464Y01747D02*
Y01822D01*
G54D47*
X03848Y01348D02*
X04041D01*
Y01501*
X03848Y01348D02*
Y01501D01*
X04041*
X03388Y01256D02*
X03581D01*
X03388Y01103D02*
Y01256D01*
X03581Y01103D02*
Y01256D01*
X03388Y01103D02*
X03581D01*
X04858Y02566D02*
X05051D01*
X04858Y02413D02*
Y02566D01*
X05051Y02413D02*
Y02566D01*
X04858Y02413D02*
X05051D01*
X04603Y02561D02*
X04796D01*
X04603Y02408D02*
Y02561D01*
X04796Y02408D02*
Y02561D01*
X04603Y02408D02*
X04796D01*
X03403Y01816D02*
X03596D01*
X03403Y01663D02*
Y01816D01*
X03596Y01663D02*
Y01816D01*
X03403Y01663D02*
X03596D01*
X03838Y01806D02*
X04031D01*
X03838Y01653D02*
Y01806D01*
X04031Y01653D02*
Y01806D01*
X03838Y01653D02*
X04031D01*
X03868Y01231D02*
X04061D01*
X03868Y01078D02*
Y01231D01*
X04061Y01078D02*
Y01231D01*
X03868Y01078D02*
X04061D01*
X02958Y01341D02*
X03151D01*
X02958Y01188D02*
Y01341D01*
X03151Y01188D02*
Y01341D01*
X02958Y01188D02*
X03151D01*
X02668Y01341D02*
X02861D01*
X02668Y01188D02*
Y01341D01*
X02861Y01188D02*
Y01341D01*
X02668Y01188D02*
X02861D01*
X02373Y01341D02*
X02566D01*
X02373Y01188D02*
Y01341D01*
X02566Y01188D02*
Y01341D01*
X02373Y01188D02*
X02566D01*
X03393Y01536D02*
X03586D01*
X03393Y01383D02*
Y01536D01*
X03586Y01383D02*
Y01536D01*
X03393Y01383D02*
X03586D01*
X01723Y02191D02*
X01916D01*
X01723Y02038D02*
Y02191D01*
X01916Y02038D02*
Y02191D01*
X01723Y02038D02*
X01916D01*
X01139Y02125D02*
X01339D01*
X01139Y02554D02*
X01339D01*
Y02125D02*
Y02554D01*
X01139Y02125D02*
Y02554D01*
X01743Y01941D02*
X01936D01*
X01743Y01788D02*
Y01941D01*
X01936Y01788D02*
Y01941D01*
X01743Y01788D02*
X01936D01*
X01183Y01941D02*
X01376D01*
X01183Y01788D02*
Y01941D01*
X01376Y01788D02*
Y01941D01*
X01183Y01788D02*
X01376D01*
M02*