%FSTAX23Y23*%
%MOIN*%
%SFA1B1*%

%IPPOS*%
%ADD9500C,0.027600*%
%ADD9501C,0.028000*%
%ADD9502C,0.031500*%
%ADD9503C,0.035400*%
%ADD9504C,0.039400*%
%ADD9505C,0.041300*%
%LNpcb1-1*%
%LPD*%
G54D9500*
X012Y01235D03*
Y01335D03*
Y01435D03*
G54D9501*
X03614Y01422D03*
X04197Y01351D03*
X0427Y01297D03*
X04396D03*
X04376Y01512D03*
X0425Y01501D03*
X04524Y01472D03*
X04485Y01067D03*
X04275Y01092D03*
X0469Y01188D03*
X04758Y01593D03*
X04611Y017D03*
X04363Y01675D03*
X04257Y01717D03*
X04084Y0171D03*
X0374Y02069D03*
X03744Y02328D03*
X03867Y02403D03*
X03436Y02377D03*
X03334Y0238D03*
X03144Y0227D03*
X03137Y02133D03*
X03177Y02065D03*
X03315Y01935D03*
X03405Y01972D03*
X03485Y02211D03*
X03204Y02551D03*
X03155Y01585D03*
X04556Y02133D03*
X0465Y02279D03*
X03123Y02364D03*
X02991Y02365D03*
X03081Y0252D03*
X02855Y02631D03*
X02771Y02434D03*
X02649Y02257D03*
X02685Y01983D03*
X02175Y01764D03*
X01886Y0174D03*
X01679Y0179D03*
X01586Y02231D03*
X0168Y02325D03*
X01885Y0219D03*
X02003Y02494D03*
X01963Y02549D03*
X01485Y02063D03*
G54D9502*
X0242Y01245D03*
X0247D03*
X0252D03*
X02715D03*
X02765D03*
X02815D03*
X03005D03*
X03055D03*
X03105D03*
X03435Y0116D03*
X03485D03*
X03535D03*
X0354Y0144D03*
X0349D03*
X0344D03*
X03895Y01405D03*
X03945D03*
X03995D03*
X04015Y01135D03*
X03965D03*
X03915D03*
X047Y02465D03*
X0475D03*
X04905Y0247D03*
X04955D03*
X05005D03*
X0465Y02465D03*
X03985Y0171D03*
X03935D03*
X03885D03*
X0355Y0172D03*
X035D03*
X0345D03*
X0189Y01845D03*
X0184D03*
X0179D03*
X0177Y02095D03*
X0182D03*
X0187D03*
X0133Y01845D03*
X0128D03*
X0123D03*
G54D9503*
X03225Y0154D03*
X0513Y015D03*
Y014D03*
Y013D03*
Y012D03*
Y016D03*
Y017D03*
Y018D03*
Y019D03*
Y02D03*
X04465Y02435D03*
Y02535D03*
X03225Y0164D03*
X02478Y0253D03*
Y0263D03*
Y0273D03*
Y0283D03*
Y0293D03*
X02378D03*
Y0283D03*
Y0273D03*
Y0263D03*
Y0253D03*
X01255Y02875D03*
Y02975D03*
G54D9504*
X01225Y0224D03*
Y0234D03*
Y0244D03*
G54D9505*
X01975Y01132D03*
Y01507D03*
M02*