M48
;Layer_Color=9474304
;FILE_FORMAT=2:4
INCH,LZ
;TYPE=PLATED
T1F00S00C0.0276
T2F00S00C0.0280
T3F00S00C0.0315
T4F00S00C0.0354
T5F00S00C0.0394
T6F00S00C0.0413
%
T01
X012Y01235
Y01335
Y01435
T02
X03614Y01422
X04197Y01351
X0427Y01297
X04396
X04376Y01512
X0425Y01501
X04524Y01472
X04485Y01067
X04275Y01092
X0469Y01188
X04758Y01593
X046113Y017
X043632Y01675
X04257Y01717
X04084Y0171
X0374Y02069
X03744Y02328
X03867Y02403
X03436Y02377
X03334Y0238
X03144Y0227
X03137Y02133
X03177Y02065
X03315Y01935
X03405Y01972
X03485Y02211
X03204Y02551
X03155Y01585
X04556Y02133
X0465Y02279
X03123Y02364
X02991Y02365
X03081Y0252
X02855Y02631
X02771Y024348
X02649Y02257
X02685Y01983
X021757Y01764
X018863Y017407
X01679Y0179
X015865Y022315
X0168Y02325
X01885Y0219
X02003Y02494
X01963Y02549
X01485Y02063
T03
X0242Y01245
X0247
X0252
X02715
X02765
X02815
X03005
X03055
X03105
X03435Y0116
X03485
X03535
X0354Y0144
X0349
X0344
X03895Y01405
X03945
X03995
X04015Y01135
X03965
X03915
X047Y02465
X0475
X04905Y0247
X04955
X05005
X0465Y02465
X03985Y0171
X03935
X03885
X0355Y0172
X035
X0345
X0189Y01845
X0184
X0179
X0177Y02095
X0182
X0187
X0133Y01845
X0128
X0123
T04
X03225Y0154
X0513Y015
Y014
Y013
Y012
Y016
Y017
Y018
Y019
Y02
X04465Y02435
Y02535
X03225Y0164
X024782Y0253
Y0263
Y0273
Y0283
Y0293
X023782
Y0283
Y0273
Y0263
Y0253
X01255Y02875
Y02975
T05
X01225Y0224
Y0234
Y0244
T06
X01975Y011322
Y015078
M30
