G04*
G04 #@! TF.GenerationSoftware,Altium Limited,Altium Designer,21.1.1 (26)*
G04*
G04 Layer_Color=2752767*
%FSLAX25Y25*%
%MOIN*%
G70*
G04*
G04 #@! TF.SameCoordinates,1B7210B6-2D31-40D9-95A8-5B08F62603AF*
G04*
G04*
G04 #@! TF.FilePolarity,Positive*
G04*
G01*
G75*
%ADD14C,0.00200*%
D14*
X162700Y404800D02*
Y406400D01*
X164300D01*
Y404800D01*
X162700D01*
Y474800D02*
Y476400D01*
X164300D01*
Y474800D01*
X162700D01*
Y464800D02*
Y466400D01*
X164300D01*
Y464800D01*
X162700D01*
Y454800D02*
Y456400D01*
X164300D01*
Y454800D01*
X162700D01*
Y444800D02*
Y446400D01*
X164300D01*
Y444800D01*
X162700D01*
Y434800D02*
Y436400D01*
X164300D01*
Y434800D01*
X162700D01*
Y424800D02*
Y426400D01*
X164300D01*
Y424800D01*
X162700D01*
Y414800D02*
Y416400D01*
X164300D01*
Y414800D01*
X162700D01*
Y394800D02*
Y396400D01*
X164300D01*
Y394800D01*
X162700D01*
Y384800D02*
Y386400D01*
X164300D01*
Y384800D01*
X162700D01*
X163200Y133200D02*
Y134800D01*
X164800D01*
Y133200D01*
X163200D01*
Y203200D02*
Y204800D01*
X164800D01*
Y203200D01*
X163200D01*
Y193200D02*
Y194800D01*
X164800D01*
Y193200D01*
X163200D01*
Y183200D02*
Y184800D01*
X164800D01*
Y183200D01*
X163200D01*
Y173200D02*
Y174800D01*
X164800D01*
Y173200D01*
X163200D01*
Y163200D02*
Y164800D01*
X164800D01*
Y163200D01*
X163200D01*
Y153200D02*
Y154800D01*
X164800D01*
Y153200D01*
X163200D01*
Y143200D02*
Y144800D01*
X164800D01*
Y143200D01*
X163200D01*
Y123200D02*
Y124800D01*
X164800D01*
Y123200D01*
X163200D01*
Y113200D02*
Y114800D01*
X164800D01*
Y113200D01*
X163200D01*
X119200Y216200D02*
Y217800D01*
X120800D01*
Y216200D01*
X119200D01*
Y236200D02*
Y237800D01*
X120800D01*
Y236200D01*
X119200D01*
Y246200D02*
Y247800D01*
X120800D01*
Y246200D01*
X119200D01*
Y256200D02*
Y257800D01*
X120800D01*
Y256200D01*
X119200D01*
Y266200D02*
Y267800D01*
X120800D01*
Y266200D01*
X119200D01*
Y276200D02*
Y277800D01*
X120800D01*
Y276200D01*
X119200D01*
Y286200D02*
Y287800D01*
X120800D01*
Y286200D01*
X119200D01*
Y296200D02*
Y297800D01*
X120800D01*
Y296200D01*
X119200D01*
Y226200D02*
Y227800D01*
X120800D01*
Y226200D01*
X119200D01*
X116200Y353200D02*
Y354800D01*
X117800D01*
Y353200D01*
X116200D01*
Y363200D02*
Y364800D01*
X117800D01*
Y363200D01*
X116200D01*
Y373200D02*
Y374800D01*
X117800D01*
Y373200D01*
X116200D01*
M02*
