G04*
G04 #@! TF.GenerationSoftware,Altium Limited,Altium Designer,21.1.1 (26)*
G04*
G04 Layer_Color=65535*
%FSLAX25Y25*%
%MOIN*%
G70*
G04*
G04 #@! TF.SameCoordinates,1B7210B6-2D31-40D9-95A8-5B08F62603AF*
G04*
G04*
G04 #@! TF.FilePolarity,Positive*
G04*
G01*
G75*
%ADD10C,0.00787*%
%ADD11C,0.01000*%
D10*
X158500Y388100D02*
Y480600D01*
Y380600D02*
Y388100D01*
Y380600D02*
X168500D01*
Y480600D01*
X158500D02*
X168500D01*
X159000Y116500D02*
Y209000D01*
Y109000D02*
Y116500D01*
Y109000D02*
X169000D01*
Y209000D01*
X159000D02*
X169000D01*
X115000Y302000D02*
X125000D01*
Y212000D02*
Y302000D01*
X115000Y212000D02*
X125000D01*
X115000D02*
Y302000D01*
X122000Y349000D02*
Y379000D01*
X112000D02*
X122000D01*
X112000Y349000D02*
Y379000D01*
Y349000D02*
X122000D01*
D11*
X144506Y491999D02*
X148504D01*
Y490999D01*
X144506Y487000D01*
Y486001D01*
X150504D02*
X153503D01*
X154502Y487000D01*
X153503Y488000D01*
X151503D01*
X150504Y489000D01*
X151503Y489999D01*
X154502D01*
X159501Y486001D02*
X157501D01*
X156502Y487000D01*
Y489000D01*
X157501Y489999D01*
X159501D01*
X160500Y489000D01*
Y488000D01*
X156502D01*
X164499Y484001D02*
X165499D01*
X166498Y485001D01*
Y489999D01*
X163499D01*
X162500Y489000D01*
Y487000D01*
X163499Y486001D01*
X166498D01*
X168498Y489000D02*
X172496D01*
X178495Y486001D02*
X174496D01*
X178495Y489999D01*
Y490999D01*
X177495Y491999D01*
X175496D01*
X174496Y490999D01*
X148505Y221999D02*
X152504D01*
Y220999D01*
X148505Y217000D01*
Y216001D01*
X154503D02*
X157502D01*
X158502Y217000D01*
X157502Y218000D01*
X155503D01*
X154503Y219000D01*
X155503Y219999D01*
X158502D01*
X163500Y216001D02*
X161501D01*
X160501Y217000D01*
Y219000D01*
X161501Y219999D01*
X163500D01*
X164500Y219000D01*
Y218000D01*
X160501D01*
X168499Y214001D02*
X169498D01*
X170498Y215001D01*
Y219999D01*
X167499D01*
X166499Y219000D01*
Y217000D01*
X167499Y216001D01*
X170498D01*
X172497Y219000D02*
X176496D01*
X178496Y216001D02*
X180495D01*
X179495D01*
Y221999D01*
X178496Y220999D01*
X115600Y307400D02*
X118599D01*
X119599Y308400D01*
X118599Y309399D01*
X116600D01*
X115600Y310399D01*
X116600Y311399D01*
X119599D01*
X122598Y312398D02*
Y311399D01*
X121598D01*
X123597D01*
X122598D01*
Y308400D01*
X123597Y307400D01*
X126596Y311399D02*
Y308400D01*
X127596Y307400D01*
X130595D01*
Y311399D01*
X132595D02*
Y307400D01*
Y309399D01*
X133594Y310399D01*
X134594Y311399D01*
X135593D01*
X138593Y307400D02*
X140592D01*
X139592D01*
Y311399D01*
X138593D01*
X143591Y307400D02*
Y311399D01*
X146590D01*
X147590Y310399D01*
Y307400D01*
X151588Y305401D02*
X152588D01*
X153588Y306400D01*
Y311399D01*
X150589D01*
X149589Y310399D01*
Y308400D01*
X150589Y307400D01*
X153588D01*
X112600Y388398D02*
Y382400D01*
Y385399D01*
X113600Y386399D01*
X115599D01*
X116599Y385399D01*
Y382400D01*
X121597D02*
X119598D01*
X118598Y383400D01*
Y385399D01*
X119598Y386399D01*
X121597D01*
X122597Y385399D01*
Y384399D01*
X118598D01*
X125596Y386399D02*
X127595D01*
X128595Y385399D01*
Y382400D01*
X125596D01*
X124596Y383400D01*
X125596Y384399D01*
X128595D01*
X134593Y388398D02*
Y382400D01*
X131594D01*
X130594Y383400D01*
Y385399D01*
X131594Y386399D01*
X134593D01*
X139591Y382400D02*
X137592D01*
X136592Y383400D01*
Y385399D01*
X137592Y386399D01*
X139591D01*
X140591Y385399D01*
Y384399D01*
X136592D01*
X142590Y386399D02*
Y382400D01*
Y384399D01*
X143590Y385399D01*
X144590Y386399D01*
X145589D01*
M02*
